<svg xmlns="http://www.w3.org/2000/svg" version="1.1" xmlns:xlink="http://www.w3.org/1999/xlink" viewBox="0 0 4.5035912109375005 4.5035912109375005"><g transform="matrix(0.8571428571428571,0,0,0.8571428571428571,1.5862273158482145,1.9449384626116075)"><g transform="matrix(1,0,0,1,0,0)"><g clip-path="url(#SvgjsClipPath6219)"><path d=" M -0.4566298270089286 -1.518496337890625 L 2.009622502790179 -1.518496337890625 C 2.364946070106518 -1.518496337890625 2.6529926757812503 -1.230449732215893 2.6529926757812503 -0.8751261648995536 L 2.6529926757812503 1.591126164899554 C 2.6529926757812503 1.9464497322158931 2.364946070106518 2.2344963378906253 2.009622502790179 2.2344963378906253 L -0.4566298270089286 2.2344963378906253 C -0.8119533943252679 2.2344963378906253 -1.1 1.9464497322158931 -1.1 1.591126164899554 L -1.1 -0.8751261648995536 C -1.1 -1.230449732215893 -0.8119533943252679 -1.518496337890625 -0.4566298270089286 -1.518496337890625 Z" fill="#a4c868" transform="matrix(1,0,0,1,0,0)" fill-rule="nonzero"></path></g></g><g transform="matrix(1,0,0,1,0,0)"><path d=" M 0.879 0.01100000000000001 L 0.879 0.716 L 0.683 0.716 L 0.683 0.32699999999999996 L 0.55 0.716 L 0.386 0.716 L 0.252 0.32399999999999995 L 0.252 0.716 L 0.056 0.716 L 0.056 0.01100000000000001 L 0.293 0.01100000000000001 L 0.47000000000000003 0.469 L 0.643 0.01100000000000001 L 0.879 0.01100000000000001 M 1.0529975585937499 0.6645 Q 0.97399755859375 0.606 0.96799755859375 0.497 L 1.17699755859375 0.497 Q 1.17999755859375 0.534 1.19899755859375 0.5509999999999999 Q 1.21799755859375 0.568 1.24799755859375 0.568 Q 1.27499755859375 0.568 1.29249755859375 0.5545 Q 1.30999755859375 0.5409999999999999 1.30999755859375 0.5169999999999999 Q 1.30999755859375 0.486 1.28099755859375 0.469 Q 1.25199755859375 0.45199999999999996 1.18699755859375 0.43099999999999994 Q 1.11799755859375 0.408 1.07549755859375 0.38649999999999995 Q 1.03299755859375 0.36499999999999994 1.00149755859375 0.32349999999999995 Q 0.96999755859375 0.282 0.96999755859375 0.21499999999999997 Q 0.96999755859375 0.1469999999999999 1.00399755859375 0.09849999999999992 Q 1.03799755859375 0.04999999999999993 1.09799755859375 0.02499999999999991 Q 1.15799755859375 0 1.23399755859375 0 Q 1.35699755859375 0 1.43049755859375 0.057499999999999996 Q 1.50399755859375 0.11499999999999999 1.50899755859375 0.21899999999999997 L 1.29599755859375 0.21899999999999997 Q 1.2949975585937499 0.18699999999999994 1.27649755859375 0.17099999999999993 Q 1.25799755859375 0.15499999999999992 1.22899755859375 0.15499999999999992 Q 1.20699755859375 0.15499999999999992 1.19299755859375 0.16799999999999993 Q 1.17899755859375 0.18099999999999994 1.17899755859375 0.20499999999999996 Q 1.17899755859375 0.22499999999999998 1.19449755859375 0.23949999999999994 Q 1.20999755859375 0.25399999999999995 1.23299755859375 0.26449999999999996 Q 1.25599755859375 0.27499999999999997 1.30099755859375 0.291 Q 1.36799755859375 0.31399999999999995 1.4114975585937501 0.33649999999999997 Q 1.45499755859375 0.359 1.4864975585937499 0.39949999999999997 Q 1.51799755859375 0.43999999999999995 1.51799755859375 0.502 Q 1.51799755859375 0.565 1.4864975585937499 0.615 Q 1.45499755859375 0.6649999999999999 1.3954975585937501 0.694 Q 1.33599755859375 0.723 1.25499755859375 0.723 Q 1.13199755859375 0.723 1.0529975585937499 0.6645" fill="#1c3423" fill-rule="nonzero"></path></g><g transform="matrix(1,0,0,1,0,0)"></g></g><defs><clipPath id="SvgjsClipPath6219"><path d=" M -1.1 -1.518496337890625 h 3.7529926757812504 v 3.7529926757812504 h -3.7529926757812504 Z"></path></clipPath></defs></svg>