<svg xmlns="http://www.w3.org/2000/svg" version="1.1" viewBox="84.61 84.6 364.21 363.9">
<path d="M0 0 C0.93914564 -0.00382555 1.87829129 -0.00765109 2.84589589 -0.01159257 C5.97081852 -0.02185359 9.09555504 -0.01794358 12.2204895 -0.01396179 C14.46995208 -0.01831208 16.71941317 -0.02349628 18.96887207 -0.02944946 C25.0639414 -0.0428165 31.15894863 -0.04342068 37.25402975 -0.04088616 C42.34837247 -0.03981491 47.4427027 -0.04470377 52.53704274 -0.04949158 C65.24522702 -0.06121218 77.95336647 -0.06036623 90.6615503 -0.05393478 C101.67900983 -0.04876695 112.69638091 -0.06002012 123.71382295 -0.07903299 C135.04706628 -0.09843978 146.38025565 -0.10637144 157.71352017 -0.10290974 C164.06805646 -0.10109917 170.42251173 -0.10371066 176.77703476 -0.11762428 C182.7541377 -0.13022237 188.73106391 -0.12823963 194.70816422 -0.11521339 C196.89662995 -0.11285241 199.0851082 -0.11556508 201.27355957 -0.12383652 C222.48056127 -0.19818531 222.48056127 -0.19818531 231.26004028 3.26069641 C232.91713013 3.89878235 232.91713013 3.89878235 234.60769653 4.54975891 C249.01456459 11.63918175 257.87149167 22.12657028 263.53347778 37.06929016 C266.47448506 45.93974759 267.30119488 58.70086388 263.69754028 67.44819641 C258.31732079 76.94381187 250.70995957 83.20805736 240.26004028 86.26069641 C237.26068115 86.50120544 237.26068115 86.50120544 234.07107544 86.48774719 C232.87028351 86.48759613 231.66949158 86.48744507 230.43231201 86.48728943 C228.51012344 86.47180557 228.51012344 86.47180557 226.54910278 86.45600891 C225.21246554 86.45227431 223.87582554 86.44942945 222.53918457 86.44743347 C219.03748896 86.43983218 215.53596178 86.42021429 212.03433228 86.39802551 C208.45464353 86.37749115 204.87492732 86.36841559 201.29519653 86.35835266 C194.28340902 86.3369647 187.27173276 86.30287157 180.26004028 86.26069641 C180.26280566 87.44622258 180.26557104 88.63174875 180.26842022 89.85319996 C180.3334574 118.02386972 180.38289365 146.19453573 180.41323627 174.36526449 C180.41698819 177.83602383 180.42087117 181.30678301 180.42483521 184.77754211 C180.42562214 185.46847933 180.42640907 186.15941654 180.42721985 186.87129124 C180.44025763 198.04450896 180.46390246 209.21768015 180.49149867 220.39087031 C180.51959825 231.86394009 180.53600174 243.33697219 180.54230577 254.81007737 C180.54621282 261.25083519 180.55538003 267.69148766 180.57723045 274.13221169 C180.59764367 280.19863925 180.60386425 286.26491838 180.59936333 292.33137703 C180.60018636 294.55370644 180.60612302 296.77604098 180.61765671 298.99834061 C180.72390682 320.53291494 180.72390682 320.53291494 177.26004028 329.26069641 C176.83464966 330.36542297 176.40925903 331.47014954 175.97097778 332.60835266 C168.88155494 347.01522072 158.39416642 355.87214779 143.45144653 361.53413391 C138.75859615 363.09005222 134.50868199 363.40911928 129.57070923 363.40786743 C128.40221978 363.41338246 128.40221978 363.41338246 127.21012449 363.41900891 C124.59719912 363.43003058 121.98431354 363.43388706 119.37136841 363.43769836 C117.49864577 363.44396432 115.62592438 363.45061124 113.75320435 363.45761108 C107.59924178 363.47864371 101.445279 363.48901488 95.29129028 363.49897766 C93.17047615 363.50302595 91.04966214 363.5071429 88.92884827 363.51132774 C78.96132284 363.53038013 68.9938048 363.5446093 59.02626467 363.55293971 C47.53455472 363.56270322 36.04303784 363.58899946 24.55139589 363.62944061 C15.66117839 363.65964879 6.77101608 363.67441318 -2.11925173 363.67772073 C-7.42486928 363.68006645 -12.73028058 363.68896425 -18.0358429 363.7141819 C-23.03291663 363.73754897 -28.0296496 363.74166121 -33.02676392 363.73142052 C-34.85360348 363.73092709 -36.68046031 363.73719007 -38.50724792 363.75097656 C-56.29018681 363.8775927 -70.28957234 359.92395394 -83.63839722 347.51850891 C-93.35926691 337.07489797 -97.84009766 324.09626769 -97.97824097 310.03022766 C-97.98631271 309.23976547 -97.99438446 308.44930328 -98.00270081 307.6348877 C-98.01649274 305.96485047 -98.02723663 304.29478563 -98.03512573 302.62471008 C-98.04662149 300.93256757 -98.06703521 299.24046062 -98.09664917 297.54853821 C-98.32859786 284.2756308 -97.55935931 274.33953932 -88.03292847 264.24116516 C-82.76575208 259.69183223 -75.78132566 256.11000945 -68.72824097 256.16304016 C-67.59225464 256.16787415 -67.59225464 256.16787415 -66.43331909 256.17280579 C-65.2547937 256.18537415 -65.2547937 256.18537415 -64.05245972 256.19819641 C-63.25517456 256.20270813 -62.4578894 256.20721985 -61.63644409 256.21186829 C-59.67091715 256.22363791 -57.70542887 256.24157293 -55.73995972 256.26069641 C-55.7418033 255.23346938 -55.74364689 254.20624235 -55.74554634 253.14788723 C-55.79002436 228.10703034 -55.82284864 203.06617859 -55.84358406 178.02529049 C-55.8538791 165.91551239 -55.86790545 153.80576045 -55.89083862 141.69599915 C-55.91082687 131.13622617 -55.92368902 120.57647215 -55.92813671 110.01668078 C-55.9307349 104.42983786 -55.93680462 98.84304915 -55.95141983 93.25622368 C-55.96508973 87.98759686 -55.9691635 82.71904609 -55.96617508 77.45040321 C-55.96672106 75.52646851 -55.97064204 73.60253101 -55.97837067 71.67861176 C-56.06236093 49.67371542 -54.39098666 31.39231196 -38.93917847 14.26460266 C-28.30257834 4.03797856 -14.41065168 -0.06324032 0 0 Z " fill="#FEFEB2" transform="translate(182.73995971679688,84.73930358886719)"/>
<path d="M0 0 C0.93914564 -0.00382555 1.87829129 -0.00765109 2.84589589 -0.01159257 C5.97081852 -0.02185359 9.09555504 -0.01794358 12.2204895 -0.01396179 C14.46995208 -0.01831208 16.71941317 -0.02349628 18.96887207 -0.02944946 C25.0639414 -0.0428165 31.15894863 -0.04342068 37.25402975 -0.04088616 C42.34837247 -0.03981491 47.4427027 -0.04470377 52.53704274 -0.04949158 C65.24522702 -0.06121218 77.95336647 -0.06036623 90.6615503 -0.05393478 C101.67900983 -0.04876695 112.69638091 -0.06002012 123.71382295 -0.07903299 C135.04706628 -0.09843978 146.38025565 -0.10637144 157.71352017 -0.10290974 C164.06805646 -0.10109917 170.42251173 -0.10371066 176.77703476 -0.11762428 C182.7541377 -0.13022237 188.73106391 -0.12823963 194.70816422 -0.11521339 C196.89662995 -0.11285241 199.0851082 -0.11556508 201.27355957 -0.12383652 C222.48056127 -0.19818531 222.48056127 -0.19818531 231.26004028 3.26069641 C232.91713013 3.89878235 232.91713013 3.89878235 234.60769653 4.54975891 C249.01456459 11.63918175 257.87149167 22.12657028 263.53347778 37.06929016 C266.47448506 45.93974759 267.30119488 58.70086388 263.69754028 67.44819641 C258.31732079 76.94381187 250.70995957 83.20805736 240.26004028 86.26069641 C237.26068115 86.50120544 237.26068115 86.50120544 234.07107544 86.48774719 C232.87028351 86.48759613 231.66949158 86.48744507 230.43231201 86.48728943 C228.51012344 86.47180557 228.51012344 86.47180557 226.54910278 86.45600891 C225.21246554 86.45227431 223.87582554 86.44942945 222.53918457 86.44743347 C219.03748896 86.43983218 215.53596178 86.42021429 212.03433228 86.39802551 C208.45464353 86.37749115 204.87492732 86.36841559 201.29519653 86.35835266 C194.28340902 86.3369647 187.27173276 86.30287157 180.26004028 86.26069641 C180.26280566 87.44622258 180.26557104 88.63174875 180.26842022 89.85319996 C180.3334574 118.02386972 180.38289365 146.19453573 180.41323627 174.36526449 C180.41698819 177.83602383 180.42087117 181.30678301 180.42483521 184.77754211 C180.42562214 185.46847933 180.42640907 186.15941654 180.42721985 186.87129124 C180.44025763 198.04450896 180.46390246 209.21768015 180.49149867 220.39087031 C180.51959825 231.86394009 180.53600174 243.33697219 180.54230577 254.81007737 C180.54621282 261.25083519 180.55538003 267.69148766 180.57723045 274.13221169 C180.59764367 280.19863925 180.60386425 286.26491838 180.59936333 292.33137703 C180.60018636 294.55370644 180.60612302 296.77604098 180.61765671 298.99834061 C180.72390682 320.53291494 180.72390682 320.53291494 177.26004028 329.26069641 C176.83464966 330.36542297 176.40925903 331.47014954 175.97097778 332.60835266 C168.88155494 347.01522072 158.39416642 355.87214779 143.45144653 361.53413391 C138.75859615 363.09005222 134.50868199 363.40911928 129.57070923 363.40786743 C128.40221978 363.41338246 128.40221978 363.41338246 127.21012449 363.41900891 C124.59719912 363.43003058 121.98431354 363.43388706 119.37136841 363.43769836 C117.49864577 363.44396432 115.62592438 363.45061124 113.75320435 363.45761108 C107.59924178 363.47864371 101.445279 363.48901488 95.29129028 363.49897766 C93.17047615 363.50302595 91.04966214 363.5071429 88.92884827 363.51132774 C78.96132284 363.53038013 68.9938048 363.5446093 59.02626467 363.55293971 C47.53455472 363.56270322 36.04303784 363.58899946 24.55139589 363.62944061 C15.66117839 363.65964879 6.77101608 363.67441318 -2.11925173 363.67772073 C-7.42486928 363.68006645 -12.73028058 363.68896425 -18.0358429 363.7141819 C-23.03291663 363.73754897 -28.0296496 363.74166121 -33.02676392 363.73142052 C-34.85360348 363.73092709 -36.68046031 363.73719007 -38.50724792 363.75097656 C-56.29018681 363.8775927 -70.28957234 359.92395394 -83.63839722 347.51850891 C-93.35926691 337.07489797 -97.84009766 324.09626769 -97.97824097 310.03022766 C-97.98631271 309.23976547 -97.99438446 308.44930328 -98.00270081 307.6348877 C-98.01649274 305.96485047 -98.02723663 304.29478563 -98.03512573 302.62471008 C-98.04662149 300.93256757 -98.06703521 299.24046062 -98.09664917 297.54853821 C-98.32859786 284.2756308 -97.55935931 274.33953932 -88.03292847 264.24116516 C-82.76575208 259.69183223 -75.78132566 256.11000945 -68.72824097 256.16304016 C-67.59225464 256.16787415 -67.59225464 256.16787415 -66.43331909 256.17280579 C-65.2547937 256.18537415 -65.2547937 256.18537415 -64.05245972 256.19819641 C-63.25517456 256.20270813 -62.4578894 256.20721985 -61.63644409 256.21186829 C-59.67091715 256.22363791 -57.70542887 256.24157293 -55.73995972 256.26069641 C-55.7418033 255.23346938 -55.74364689 254.20624235 -55.74554634 253.14788723 C-55.79002436 228.10703034 -55.82284864 203.06617859 -55.84358406 178.02529049 C-55.8538791 165.91551239 -55.86790545 153.80576045 -55.89083862 141.69599915 C-55.91082687 131.13622617 -55.92368902 120.57647215 -55.92813671 110.01668078 C-55.9307349 104.42983786 -55.93680462 98.84304915 -55.95141983 93.25622368 C-55.96508973 87.98759686 -55.9691635 82.71904609 -55.96617508 77.45040321 C-55.96672106 75.52646851 -55.97064204 73.60253101 -55.97837067 71.67861176 C-56.06236093 49.67371542 -54.39098666 31.39231196 -38.93917847 14.26460266 C-28.30257834 4.03797856 -14.41065168 -0.06324032 0 0 Z M-26.73995972 33.26069641 C-31.82486225 40.7798608 -34.04738586 47.78318098 -33.98046875 56.87870789 C-33.9821776 57.73321333 -33.98388645 58.58771877 -33.98564708 59.46811831 C-33.98893457 62.32403113 -33.97795047 65.17970767 -33.9670105 68.03559875 C-33.96644622 70.08571873 -33.96676326 72.13583912 -33.96789551 74.18595886 C-33.96846939 79.74744509 -33.95670927 85.30884507 -33.94274759 90.87031126 C-33.9302462 96.68391705 -33.9290702 102.49752481 -33.92669678 108.31114197 C-33.92048028 119.31824386 -33.90406713 130.32530603 -33.8839978 141.33239043 C-33.86164411 153.86432912 -33.85064669 166.39626971 -33.84060693 178.92822337 C-33.81970108 204.70573641 -33.78452177 230.48321418 -33.73995972 256.26069641 C-32.48874329 256.26212143 -31.23752686 256.26354645 -29.94839478 256.26501465 C-18.12017544 256.28173018 -6.29229813 256.32464299 5.5357399 256.39278698 C11.61576458 256.42698474 17.6955399 256.45215579 23.77566528 256.45625305 C29.65033892 256.46055137 35.52445071 256.48914188 41.39894867 256.53412819 C43.6330309 256.54705412 45.86718054 256.5514284 48.10129547 256.5468502 C70.71612369 256.51132187 70.71612369 256.51132187 80.26004028 262.26069641 C81.16088348 262.79529732 81.16088348 262.79529732 82.07992554 263.34069824 C87.47205803 267.18078585 91.20026147 274.08135998 93.26004028 280.26069641 C93.37782845 282.73935333 93.44511358 285.19511341 93.47097778 287.67475891 C93.49907016 289.1734673 93.52773475 290.67216506 93.55691528 292.17085266 C93.59795924 294.52061897 93.63486516 296.87019185 93.66140747 299.22016907 C93.6919996 311.56056689 93.6919996 311.56056689 97.26004028 323.26069641 C97.63644653 324.0586261 98.01285278 324.85655579 98.40066528 325.67866516 C101.39106201 330.44855853 104.67617713 333.98512401 109.26004028 337.26069641 C109.79757935 337.67577454 110.33511841 338.09085266 110.88894653 338.51850891 C117.62311406 342.82717091 126.5802354 342.14217155 134.26004028 341.26069641 C142.83887233 339.32283841 149.27779944 334.56431328 154.07254028 327.26069641 C158.22838761 320.45248236 158.54851966 314.14278694 158.51832581 306.36967468 C158.52200151 305.27045579 158.52567721 304.17123689 158.5294643 303.03870833 C158.53944721 299.35403089 158.5352928 295.66950429 158.53128052 291.9848175 C158.53566749 289.34333182 158.5408592 286.70185971 158.54711914 284.06037903 C158.55915517 278.37031408 158.56427163 272.68027712 158.56500053 266.99020004 C158.5663279 258.7502727 158.58145541 250.51041308 158.6004957 242.27050968 C158.63133113 228.88394619 158.6554977 215.49738099 158.67337036 202.11079407 C158.67444304 201.30986881 158.67551572 200.50894356 158.67662091 199.68374784 C158.68843264 190.75472765 158.6986389 181.82570677 158.70706177 172.89668274 C158.71013555 169.66206358 158.71322437 166.42744444 158.71633911 163.19282532 C158.71710445 162.39469769 158.71786979 161.59657006 158.71865832 160.77425675 C158.73176077 147.44435419 158.75643049 134.11450054 158.79008251 120.78463423 C158.81032393 112.57099761 158.82066862 104.35746578 158.81809331 96.14380403 C158.81705459 90.50909558 158.8267534 84.87446973 158.84473234 79.23979013 C158.85473097 75.99371669 158.85830231 72.74786194 158.85196495 69.50177383 C158.84579833 65.9722043 158.85810156 62.44314525 158.87477112 58.91362 C158.8685593 57.90211077 158.86234749 56.89060155 158.85594743 55.84844053 C158.93621353 46.47095826 160.53994414 37.25443571 165.44754028 29.13569641 C167.58279761 25.90290368 167.58279761 25.90290368 168.26004028 22.26069641 C145.22449199 22.14378791 122.18899277 22.05567133 99.15320778 22.00163555 C88.45678401 21.9758766 77.7605448 21.94077014 67.0642395 21.88349915 C57.7390888 21.83359358 48.41407179 21.80138862 39.08879125 21.79025394 C34.15309747 21.78374731 29.21778609 21.76850299 24.28221512 21.73204613 C19.63152642 21.69797362 14.98137571 21.6876661 10.33057404 21.695158 C8.62865902 21.69378847 6.92672502 21.68392314 5.22491837 21.66466904 C-7.34986804 21.52944139 -17.99475333 23.35541162 -26.73995972 33.26069641 Z " fill="#1C1C1A" transform="translate(182.73995971679688,84.73930358886719)"/>
<path d="M0 0 C1.14129364 -0.00426498 2.28258728 -0.00852997 3.45846558 -0.01292419 C5.34580414 -0.01224442 5.34580414 -0.01224442 7.27127075 -0.0115509 C8.60496108 -0.0145419 9.93865055 -0.01794429 11.27233887 -0.02172852 C14.90047709 -0.03057941 18.52859174 -0.0329071 22.15673971 -0.0335443 C25.18359538 -0.03449274 28.21044553 -0.03817033 31.23729908 -0.0417164 C38.3781831 -0.04986531 45.5190545 -0.05230026 52.65994263 -0.05158997 C60.02965039 -0.05098924 67.39928495 -0.06153897 74.76897418 -0.07733363 C81.09259507 -0.09040414 87.41619202 -0.09577406 93.73982632 -0.09513456 C97.51820581 -0.0948794 101.29652027 -0.09774029 105.07488632 -0.10831261 C108.62892558 -0.11798524 112.18283755 -0.11807856 115.73688126 -0.11079597 C117.66363388 -0.10924965 119.59038646 -0.11760298 121.51712036 -0.12623596 C123.23752029 -0.11994423 123.23752029 -0.11994423 124.99267578 -0.11352539 C125.98930174 -0.11407016 126.9859277 -0.11461493 128.01275444 -0.1151762 C130.73590889 0.14444674 132.33121954 0.66837242 134.62332153 2.13371277 C137.63532779 5.99189853 138.0091009 9.00804856 138.06472778 13.83293152 C138.10436646 15.77135925 138.10436646 15.77135925 138.14480591 17.74894714 C138.1596615 19.10635658 138.17332633 20.46377955 138.18582153 21.82121277 C138.31912282 32.93638609 138.55499342 43.15354669 143.12332153 53.44621277 C143.54613403 54.41172058 143.96894653 55.37722839 144.40457153 56.37199402 C145.00785278 57.7390448 145.00785278 57.7390448 145.62332153 59.13371277 C146.29381538 60.79884346 146.96106276 62.4652897 147.62332153 64.13371277 C130.48958471 64.25081028 113.35597379 64.33882963 96.22192764 64.39277363 C88.26525703 64.41849291 80.30883588 64.45352225 72.35232544 64.51091003 C65.41280399 64.5609385 58.4734633 64.59304934 51.53376651 64.60415524 C47.86332982 64.61064141 44.19341003 64.62575186 40.52313995 64.66236305 C36.41340262 64.70302076 32.30454871 64.70364985 28.1946106 64.70133972 C26.39385323 64.72830429 26.39385323 64.72830429 24.55671692 64.7558136 C14.31814893 64.69384257 4.6743847 62.00304465 -2.91574097 54.80168152 C-10.86603368 45.72474304 -11.7498056 36.54580922 -11.74728394 24.85661316 C-11.75167334 22.57388054 -11.78809055 20.29305928 -11.82589722 18.01066589 C-11.83176352 16.55038599 -11.83573416 15.09009699 -11.83761597 13.62980652 C-11.84583374 12.31165955 -11.85405151 10.99351257 -11.86251831 9.63542175 C-11.30294694 5.60229003 -10.22637604 3.98042324 -7.37667847 1.13371277 C-4.78294057 -0.16315618 -2.90555582 0.00488944 0 0 Z " fill="#FDDA00" transform="translate(118.37667846679688,362.8662872314453)"/>
<path d="M0 0 C1.12157501 -0.0071553 2.24315002 -0.01431061 3.39871216 -0.02168274 C4.6350943 -0.02437164 5.87147644 -0.02706055 7.14532471 -0.02983093 C9.09177383 -0.03968773 9.09177383 -0.03968773 11.07754517 -0.04974365 C14.64382538 -0.06715924 18.21009218 -0.07770724 21.77640438 -0.08594918 C24.00467855 -0.0910989 26.23294856 -0.09717469 28.46121979 -0.10346031 C35.43335781 -0.12251524 42.40548524 -0.13674489 49.3776443 -0.14507228 C57.42488052 -0.15484235 65.4718415 -0.18115432 73.51898074 -0.22157317 C79.73902327 -0.25174221 85.95898695 -0.26654195 92.17910123 -0.26985329 C95.89392632 -0.27220319 99.60845747 -0.28115497 103.32320404 -0.30631447 C107.46981598 -0.33394452 111.61581405 -0.32976169 115.76251221 -0.32279968 C117.60494003 -0.34201477 117.60494003 -0.34201477 119.48458862 -0.36161804 C125.82476825 -0.32275599 129.97241973 -0.27072747 134.71270752 4.14717102 C137.2157513 7.90173669 137.16550826 9.69463036 136.71270752 14.14717102 C134.59583068 18.15411646 132.94325983 20.51801611 128.71270752 22.14717102 C126.15737247 22.40164661 126.15737247 22.40164661 123.21614075 22.40786743 C122.0987854 22.41495224 120.98143005 22.42203705 119.83021545 22.42933655 C118.60880356 22.42685913 117.38739166 22.42438171 116.12896729 22.42182922 C114.83918976 22.42694016 113.54941223 22.43205109 112.22055054 22.43731689 C108.68541162 22.4507034 105.15037963 22.45128597 101.61522031 22.4487536 C98.66291218 22.44768365 95.71062567 22.45256784 92.75832218 22.45735902 C85.79282414 22.46845297 78.82738004 22.46889223 71.86187744 22.46284485 C64.67841822 22.45680409 57.49515482 22.46911879 50.31172901 22.49041492 C44.14175721 22.50803329 37.97184772 22.51403192 31.80185169 22.51077718 C28.11789846 22.50896455 24.43408493 22.51159828 20.7501545 22.52549171 C16.64192117 22.54040572 12.53408623 22.53109792 8.42584229 22.51948547 C7.20645462 22.52712921 5.98706696 22.53477295 4.73072815 22.54264832 C3.61055298 22.535634 2.49037781 22.52861969 1.33625793 22.52139282 C0.36527444 22.52156056 -0.60570906 22.52172831 -1.60611629 22.52190113 C-5.57710327 21.96690277 -8.20348906 20.15622938 -11.09979248 17.45967102 C-12.85663675 14.03844797 -13.06949912 10.85198612 -12.28729248 7.14717102 C-9.13759375 1.72268988 -6.094502 0.02661631 0 0 Z " fill="#FF8F05" transform="translate(183.28729248046875,212.8528289794922)"/>
<path d="M0 0 C1.68453026 -0.00856522 1.68453026 -0.00856522 3.40309143 -0.01730347 C4.64104462 -0.01842133 5.8789978 -0.01953918 7.15446472 -0.02069092 C9.10332329 -0.02813828 9.10332329 -0.02813828 11.09155273 -0.03573608 C14.66190357 -0.04886892 18.2322356 -0.05530689 21.80260682 -0.05974674 C24.03288352 -0.06267637 26.26315507 -0.066781 28.49342918 -0.07125092 C35.47037381 -0.0849289 42.44730667 -0.09459377 49.42426378 -0.09845281 C57.47994981 -0.10293283 65.5354661 -0.12047679 73.59110051 -0.1494534 C79.81622408 -0.17106863 86.0412999 -0.18115702 92.2664606 -0.18249393 C95.98510838 -0.18354218 99.70359667 -0.18945405 103.42220497 -0.20731354 C107.57134423 -0.22685251 111.72012832 -0.22250591 115.86930847 -0.21600342 C117.10118896 -0.2252182 118.33306946 -0.23443298 119.60227966 -0.243927 C120.73375931 -0.23835785 121.86523895 -0.2327887 123.03100586 -0.22705078 C124.50243907 -0.22925062 124.50243907 -0.22925062 126.00359821 -0.2314949 C129.98547604 0.31654304 132.58952403 2.17284811 135.58097839 4.76544189 C137.38368981 8.57116599 136.80719162 12.1467086 135.70597839 16.14044189 C133.80534157 18.5928765 132.44742985 19.76971617 129.70597839 21.14044189 C127.91822174 21.24228625 126.12666775 21.2799189 124.33602905 21.28761292 C122.62625633 21.29834587 122.62625633 21.29834587 120.88194275 21.30929565 C119.62528809 21.31198456 118.36863342 21.31467346 117.07389832 21.31744385 C115.09577904 21.32730064 115.09577904 21.32730064 113.07769775 21.33735657 C109.45363519 21.35477166 105.82958582 21.36531969 102.20549178 21.3735621 C99.94171338 21.37871117 97.67793909 21.38478694 95.41416359 21.39107323 C88.3325707 21.41012671 81.25098825 21.42435753 74.16937464 21.4326852 C65.99251933 21.44245934 57.8159346 21.46878255 49.63917464 21.50918609 C43.32063478 21.53933716 37.00217252 21.55415309 30.6835621 21.55746621 C26.90896724 21.55981786 23.1346614 21.56879271 19.36014366 21.59392738 C15.80846353 21.61719586 12.25726293 21.62144667 8.70552635 21.611166 C6.78250909 21.61043402 4.85951625 21.62953399 2.93659973 21.64923096 C1.2141378 21.63881523 1.2141378 21.63881523 -0.54312134 21.62818909 C-1.5388255 21.63057744 -2.53452967 21.63296579 -3.56040668 21.63542652 C-7.05834689 21.00204301 -8.74416969 19.56465365 -11.29402161 17.14044189 C-13.03033797 13.66780917 -12.89592563 9.92851176 -12.29402161 6.14044189 C-8.46155195 1.29942759 -5.99327376 0.01819506 0 0 Z " fill="#FF8C00" transform="translate(183.2940216064453,255.85955810546875)"/>
<path d="M0 0 C1.14129364 -0.00426498 2.28258728 -0.00852997 3.45846558 -0.01292419 C5.34580414 -0.01224442 5.34580414 -0.01224442 7.27127075 -0.0115509 C8.60496108 -0.0145419 9.93865055 -0.01794429 11.27233887 -0.02172852 C14.90047709 -0.03057941 18.52859174 -0.0329071 22.15673971 -0.0335443 C25.18359538 -0.03449274 28.21044553 -0.03817033 31.23729908 -0.0417164 C38.3781831 -0.04986531 45.5190545 -0.05230026 52.65994263 -0.05158997 C60.02965039 -0.05098924 67.39928495 -0.06153897 74.76897418 -0.07733363 C81.09259507 -0.09040414 87.41619202 -0.09577406 93.73982632 -0.09513456 C97.51820581 -0.0948794 101.29652027 -0.09774029 105.07488632 -0.10831261 C108.62892558 -0.11798524 112.18283755 -0.11807856 115.73688126 -0.11079597 C117.66363388 -0.10924965 119.59038646 -0.11760298 121.51712036 -0.12623596 C123.23752029 -0.11994423 123.23752029 -0.11994423 124.99267578 -0.11352539 C125.98930174 -0.11407016 126.9859277 -0.11461493 128.01275444 -0.1151762 C131.86442762 0.25203864 133.8946519 1.30453698 136.43582153 4.19621277 C138.12067777 8.36401505 137.82098721 11.83336956 136.62332153 16.13371277 C134.37742828 19.1282371 133.17462786 19.94994399 129.62332153 21.13371277 C127.82055224 21.23050328 126.01440284 21.26866859 124.20904541 21.27415466 C123.08465057 21.27986481 121.96025574 21.28557495 120.80178833 21.29145813 C119.56743042 21.29257599 118.33307251 21.29369385 117.06130981 21.29484558 C115.76192474 21.29981049 114.46253967 21.30477539 113.1237793 21.30989075 C109.55761976 21.32300711 105.99147905 21.32945809 102.42529917 21.33390141 C100.1971947 21.33683308 97.96909538 21.34093805 95.7409935 21.34540558 C88.76939166 21.35907788 81.79780157 21.36874611 74.82618725 21.37260747 C66.7790013 21.37708911 58.73198513 21.39464295 50.68485081 21.42360806 C44.46395333 21.44522249 38.24310363 21.4553116 32.02216899 21.45664859 C28.3068895 21.4576967 24.59176965 21.46360581 20.87652969 21.4814682 C16.73228901 21.50100588 12.58840393 21.4966609 8.44412231 21.49015808 C6.59865814 21.50398026 6.59865814 21.50398026 4.71591187 21.51808167 C3.58587738 21.51251251 2.4558429 21.50694336 1.29156494 21.50120544 C-0.17792005 21.50340528 -0.17792005 21.50340528 -1.6770916 21.50564957 C-5.48990577 20.98033738 -8.31247357 19.5019762 -10.68917847 16.44621277 C-11.71926185 12.98138684 -11.96815067 9.68254598 -11.37667847 6.13371277 C-8.06644909 0.94768675 -5.95692814 0.01002426 0 0 Z " fill="#FF8C00" transform="translate(182.37667846679688,298.8662872314453)"/>
<path d="M0 0 C7.50765583 4.3840326 12.99719063 10.8196969 15.78515625 19.18359375 C16.80017902 25.08411072 17.347097 31.1989976 14.265625 36.4375 C10.90881739 39.30065943 9.02582488 39.37309515 4.68115234 39.36352539 C3.54012054 39.36344986 2.39908875 39.36337433 1.22348022 39.36329651 C-0.01300262 39.35813522 -1.24948547 39.35297394 -2.5234375 39.34765625 C-3.78578217 39.3462413 -5.04812683 39.34482635 -6.34872437 39.34336853 C-9.70575799 39.33871078 -13.062724 39.32972408 -16.41973877 39.31866455 C-19.84492406 39.3084377 -23.27011634 39.30386818 -26.6953125 39.29882812 C-33.41668543 39.28778238 -40.13802631 39.27103194 -46.859375 39.25 C-46.90167593 36.35661631 -46.93261375 33.46385654 -46.95703125 30.5703125 C-46.97012329 29.75473877 -46.98321533 28.93916504 -46.9967041 28.09887695 C-47.05636524 18.6724176 -44.11594907 12.90101535 -37.71875 6.0390625 C-27.50995699 -3.78368372 -13.02874885 -6.21238356 0 0 Z " fill="#FDDA00" transform="translate(409.859375,109.75)"/>
<path d="M0 0 C0.94147888 -0.01283524 1.88295776 -0.02567047 2.85296631 -0.03889465 C4.38416107 -0.04997505 4.38416107 -0.04997505 5.94628906 -0.0612793 C6.99463928 -0.06935104 8.0429895 -0.07742279 9.12310791 -0.08573914 C11.34572695 -0.09958739 13.56836733 -0.11030621 15.79101562 -0.11816406 C19.18433183 -0.13535829 22.57666923 -0.1792365 25.96972656 -0.22338867 C28.12857356 -0.2335171 30.28742885 -0.24203273 32.44628906 -0.2487793 C33.96533844 -0.27504143 33.96533844 -0.27504143 35.51507568 -0.30183411 C41.48789917 -0.28351933 44.93454513 0.16179731 49.46191406 4.17700195 C51.92332653 7.86912065 52.14841613 10.89055 51.46191406 15.17700195 C49.28687511 18.75028022 47.29465728 20.6064712 43.46191406 22.17700195 C41.192276 22.43769836 41.192276 22.43769836 38.6809082 22.45166016 C37.73635269 22.46119217 36.79179718 22.47072418 35.81861877 22.48054504 C34.80500778 22.47963364 33.79139679 22.47872223 32.74707031 22.4777832 C31.17523232 22.48421089 31.17523232 22.48421089 29.57164001 22.49076843 C27.35676801 22.49650823 25.14187715 22.49701458 22.92700195 22.49267578 C19.54052532 22.48951698 16.15492326 22.51297601 12.76855469 22.53833008 C10.615561 22.54060323 8.46256496 22.54130649 6.30957031 22.5402832 C5.29798355 22.54949295 4.28639679 22.5587027 3.24415588 22.56819153 C-5.64029245 22.50979866 -5.64029245 22.50979866 -9.53808594 19.17700195 C-12.35533827 14.95112346 -12.33766977 11.14075507 -11.53808594 6.17700195 C-8.04495766 1.67270496 -5.56518393 0.06599179 0 0 Z " fill="#FF8F05" transform="translate(225.5380859375,148.822998046875)"/>
</svg>