<svg xmlns="http://www.w3.org/2000/svg" version="1.1" viewBox="41.62 -0.53 428.77 513.08">
<path d="M0 0 C1.30722206 -0.00538554 2.61444412 -0.01077108 3.96127898 -0.01631981 C7.57440439 -0.03073889 11.18730101 -0.02654088 14.80043876 -0.019153 C18.70305053 -0.01441485 22.60561327 -0.02693686 26.50820923 -0.03717041 C34.14763282 -0.05435085 41.78697414 -0.05520003 49.42641204 -0.04995751 C55.63658382 -0.04591332 61.84673131 -0.04736232 68.05690193 -0.05270576 C68.9413351 -0.05345419 69.82576827 -0.05420261 70.73700245 -0.05497371 C72.5338186 -0.05650521 74.33063475 -0.05804356 76.12745089 -0.05958868 C92.9706819 -0.07331088 109.81386644 -0.0678779 126.65709639 -0.05640347 C142.06028646 -0.04647046 157.46335642 -0.05941342 172.86652797 -0.08333766 C188.69040084 -0.10772979 204.51421778 -0.1173363 220.33810908 -0.11068493 C229.21888984 -0.10719308 238.09957823 -0.10942255 246.98034477 -0.12693596 C254.53995498 -0.14165932 262.09940775 -0.1422916 269.65901487 -0.12486505 C273.51436636 -0.11635391 277.3694366 -0.11420807 281.22477341 -0.1295166 C285.40780792 -0.14592045 289.59016419 -0.13121401 293.77319336 -0.11352539 C295.59333975 -0.1279329 295.59333975 -0.1279329 297.45025676 -0.14263147 C308.10267776 -0.04992197 316.07650494 3.19514486 323.9500885 10.38768005 C332.61672018 19.66215241 333.39292422 29.13514171 333.1375885 41.45018005 C333.12405334 42.69734802 333.11051819 43.94451599 333.09657288 45.22947693 C333.06147871 48.28266972 333.01231117 51.33493996 332.9500885 54.38768005 C334.00752258 54.36411438 334.00752258 54.36411438 335.08631897 54.34007263 C338.33249129 54.27706339 341.5785343 54.2384821 344.8250885 54.20018005 C345.93368225 54.17504333 347.042276 54.14990662 348.1844635 54.12400818 C359.2348326 54.02650492 368.40906952 56.09849873 376.9500885 63.38768005 C385.68828555 72.55006142 388.06835275 81.84244506 388.08151627 94.35312176 C388.0835689 95.02113437 388.08562153 95.68914698 388.08773637 96.3774024 C388.09337465 98.6077911 388.09195307 100.83811743 388.0905304 103.06851196 C388.09311585 104.6870483 388.09612951 106.305584 388.0995338 107.92411882 C388.10758578 112.36595773 388.10939236 116.80778046 388.11013126 121.2496258 C388.11198494 126.04255583 388.11953381 130.83547752 388.12626648 135.62840271 C388.1398371 146.10573136 388.14587242 156.58305617 388.15027714 167.06039214 C388.15304147 173.60429131 388.15727915 180.148189 388.16178131 186.69208717 C388.17397187 204.8158455 388.1842719 222.93960265 388.1876564 241.06336498 C388.18787597 242.22287161 388.18809553 243.38237824 388.18832175 244.57702144 C388.18854003 245.73927379 388.18875831 246.90152613 388.1889832 248.09899825 C388.18942667 250.45409596 388.18987323 252.80919367 388.19032288 255.16429138 C388.19054431 256.33249675 388.19076574 257.50070212 388.19099388 258.70430765 C388.19494183 277.63299636 388.21239672 296.56164657 388.2356824 315.49032041 C388.25940503 334.93133483 388.27185865 354.37232995 388.27302432 373.81335908 C388.27394052 384.7258869 388.27967904 395.63836454 388.29784393 406.55087852 C388.31325714 415.84293208 388.31835813 425.13491994 388.31010583 434.42698386 C388.30620379 439.16566717 388.30710718 443.90421824 388.32116318 448.64288521 C388.33392855 452.98625358 388.33268151 457.32939068 388.32057247 461.67275885 C388.31862004 463.23870384 388.32167276 464.80466535 388.33041683 466.37058713 C388.40473506 480.58705212 387.07062551 492.58606575 377.13368225 503.35643005 C368.47740919 511.61049245 359.26000691 512.98117045 347.65966797 512.89561462 C346.35073706 512.90185459 345.04180615 512.90809455 343.69321066 512.9145236 C340.08453431 512.93112983 336.47628432 512.92301077 332.867607 512.91057873 C328.96638683 512.90149466 325.06523782 512.91551447 321.16403198 512.92649841 C313.53153896 512.94425205 305.8992036 512.94045791 298.26670449 512.92884785 C292.06229673 512.91980201 285.85793305 512.9185945 279.65352058 512.92294312 C278.3272773 512.92386251 278.3272773 512.92386251 276.97424122 512.92480049 C275.17790812 512.92607943 273.38157505 512.92737628 271.58524198 512.92869085 C254.75533712 512.94008723 237.92551953 512.9269974 221.09562898 512.90548939 C206.66320138 512.88761615 192.23090246 512.89072619 177.79847717 512.90916443 C161.02587233 512.93058244 144.25334387 512.93899195 127.48072726 512.92671537 C125.69143173 512.92544122 123.9021362 512.92418373 122.11284065 512.92294312 C121.23254165 512.92232601 120.35224265 512.92170891 119.44526793 512.92107311 C113.24972716 512.91762324 107.05423495 512.92344067 100.85870171 512.93286133 C93.3064513 512.9440929 85.75436715 512.94101683 78.20213573 512.91973835 C74.35082647 512.90924394 70.49979415 512.90507846 66.64848709 512.91833496 C62.46992663 512.93250014 58.29206218 512.9155584 54.11352539 512.89561462 C52.90145871 512.90453751 51.68939202 512.9134604 50.44059604 512.92265368 C39.79427145 512.82406716 31.81929903 509.57622047 23.9500885 502.38768005 C15.28345683 493.1132077 14.50725278 483.6402184 14.7625885 471.32518005 C14.77612366 470.07801208 14.78965881 468.83084412 14.80360413 467.54588318 C14.8386983 464.49269039 14.88786583 461.44042015 14.9500885 458.38768005 C14.24513245 458.4033905 13.54017639 458.41910095 12.81385803 458.43528748 C9.56768571 458.49829672 6.3216427 458.53687801 3.0750885 458.57518005 C1.41219788 458.61288513 1.41219788 458.61288513 -0.2842865 458.65135193 C-12.34254806 458.75774835 -21.85171092 456.07286856 -30.80381775 447.7587738 C-37.74127174 440.26493253 -40.17096009 431.60057802 -40.18133926 421.56904316 C-40.1833919 420.8926088 -40.18544453 420.21617445 -40.18755937 419.51924208 C-40.19322258 417.24818164 -40.19177296 414.97718198 -40.19035339 412.70611572 C-40.19293742 411.06313132 -40.19595068 409.42014754 -40.19935679 407.77716464 C-40.20742565 403.25853642 -40.2092163 398.73992409 -40.20995426 394.22128952 C-40.21180501 389.34928898 -40.21935246 384.47729668 -40.22608948 379.6053009 C-40.23967247 368.95030781 -40.24569745 358.29531847 -40.25010014 347.64031816 C-40.25286259 340.98756407 -40.25709994 334.33481144 -40.26160431 327.68205833 C-40.27379688 309.26328148 -40.28409625 290.84450579 -40.2874794 272.42572498 C-40.28769897 271.24683932 -40.28791853 270.06795366 -40.28814475 268.85334418 C-40.28836303 267.67163503 -40.28858131 266.48992588 -40.2888062 265.27240735 C-40.28924967 262.8778075 -40.28969623 260.48320764 -40.29014587 258.08860779 C-40.2903673 256.90080311 -40.29058873 255.71299842 -40.29081687 254.48919966 C-40.29476495 235.24217317 -40.31221935 215.99518454 -40.3355054 196.74817268 C-40.35921869 176.98856775 -40.37168124 157.22898182 -40.37284732 137.46936244 C-40.37376408 126.37466316 -40.37951685 115.28001322 -40.39766693 104.18532753 C-40.41306758 94.73799393 -40.41818856 85.29072491 -40.40992883 75.84338114 C-40.40602224 71.02394972 -40.40695245 66.20464834 -40.42098618 61.38523293 C-40.43372431 56.97034086 -40.43252832 52.55567657 -40.42039546 48.14078482 C-40.41843832 46.54655208 -40.4215177 44.9523032 -40.43023983 43.35809312 C-40.49805244 30.12182385 -39.1346765 19.56191397 -30.0499115 9.38768005 C-20.81402501 1.51147524 -11.80004803 -0.05833763 0 0 Z M-18.38975525 19.25486755 C-18.91698181 19.91744568 -19.44420837 20.5800238 -19.9874115 21.26268005 C-20.53268494 21.92010193 -21.07795837 22.5775238 -21.63975525 23.25486755 C-24.68365527 27.85866093 -25.30042684 31.69937626 -25.30438709 37.18346214 C-25.30759357 37.85741854 -25.31080005 38.53137494 -25.31410369 39.22575426 C-25.32241773 41.48842395 -25.31647458 43.75082991 -25.31060791 46.01350403 C-25.31362796 47.65037798 -25.3175167 49.28725051 -25.32220048 50.92412055 C-25.33250818 55.42575855 -25.33029161 59.92731716 -25.32601988 64.42896175 C-25.32355768 69.2825043 -25.33256054 74.13602748 -25.34005737 78.98956299 C-25.35282058 88.49964566 -25.35459604 98.00970012 -25.35225711 107.51978992 C-25.35047557 115.24844759 -25.35222007 122.97709668 -25.35648155 130.70575333 C-25.35707674 131.80487323 -25.35767193 132.90399313 -25.35828516 134.0364197 C-25.35949688 136.26914091 -25.36071102 138.50186212 -25.36192753 140.73458333 C-25.37280936 161.68330158 -25.37063756 182.63200373 -25.36454269 203.58072288 C-25.35937321 222.75218054 -25.37062865 241.92358739 -25.3896409 261.095035 C-25.40900527 280.77213784 -25.41727775 300.44921663 -25.41351765 320.12632906 C-25.41160345 331.17677458 -25.41411449 342.22717684 -25.42823219 353.27761459 C-25.44012913 362.68514721 -25.44156987 372.09260997 -25.42944203 381.50014351 C-25.42354142 386.30097259 -25.4224865 391.10167377 -25.43444443 395.90249443 C-25.4452629 400.29688097 -25.44224813 404.69103222 -25.42818274 409.08540757 C-25.42552465 410.67554698 -25.4279371 412.26570459 -25.43591861 413.85582618 C-25.4460166 416.01757334 -25.43761045 418.1785013 -25.42464161 420.34021568 C-25.42469662 421.54083905 -25.42475164 422.74146241 -25.42480832 423.9784683 C-24.57434728 431.71233429 -20.82103975 436.18793487 -14.9874115 441.13768005 C-11.29784891 443.51804301 -7.71920864 443.50826142 -3.4092865 443.4853363 C-2.33936462 443.48211365 -1.26944275 443.47889099 -0.167099 443.47557068 C0.94407288 443.46719177 2.05524475 443.45881287 3.2000885 443.45018005 C4.32672913 443.44566833 5.45336975 443.44115662 6.614151 443.43650818 C9.39285067 443.42473403 12.1714426 443.40828845 14.9500885 443.38768005 C14.95030587 442.62625568 14.95052324 441.86483131 14.95074719 441.08033347 C14.96426747 395.93700238 15.00377032 350.79375798 15.07694412 305.65048216 C15.08571072 300.22824634 15.09426055 294.80601019 15.10267639 289.3837738 C15.10435545 288.30431898 15.10603452 287.22486416 15.10776446 286.11269858 C15.13442328 268.64177951 15.14352874 251.17089324 15.14612993 233.69995591 C15.14919101 215.76881535 15.17115565 197.83776954 15.21061307 179.90667176 C15.23435995 168.84510144 15.24341938 157.78372036 15.23360161 146.72212806 C15.22827969 139.13342358 15.2413447 131.54488844 15.26875141 123.95623216 C15.28401683 119.58004701 15.29128742 115.20424094 15.27668571 110.82804489 C15.26347673 106.81542851 15.27354053 102.80354472 15.30152623 98.79101041 C15.30760653 97.34532567 15.30540331 95.89957516 15.29371776 94.45392486 C15.20948795 83.14162157 16.90513491 73.4474943 24.7625885 64.88768005 C33.71527914 56.77640771 43.51994033 55.08761879 55.23193359 55.10920715 C56.36089147 55.10341475 57.48984934 55.09762235 58.65301806 55.09165442 C62.4316767 55.07466446 66.21021312 55.07177872 69.98890686 55.0688324 C72.69927272 55.0606336 75.40962436 55.04945187 78.11997986 55.03839111 C83.95300722 55.0161461 89.78601712 55.00111625 95.61907768 54.99102402 C104.05263762 54.97642196 112.4861367 54.95088087 120.91966087 54.92269273 C134.60337127 54.87725246 148.28709044 54.84062623 161.97084045 54.80955505 C175.26122071 54.77935818 188.55157951 54.74500269 201.8419342 54.70506287 C203.07131128 54.70137054 203.07131128 54.70137054 204.32552426 54.69760363 C208.43724962 54.68522881 212.54897473 54.67277231 216.66069973 54.66027522 C250.75713349 54.55674883 284.85359111 54.46753192 318.9500885 54.38768005 C318.98664277 51.17807496 319.00868862 47.96852411 319.0282135 44.7587738 C319.03868713 43.85461731 319.04916077 42.95046082 319.05995178 42.01890564 C319.09505279 34.32301065 318.24591312 28.15939192 314.2000885 21.51268005 C308.74661533 16.36217761 303.09665162 14.26621072 295.67288685 14.25625229 C294.59758711 14.25241114 293.52228737 14.24857 292.41440278 14.24461246 C291.23378115 14.24547894 290.05315952 14.24634542 288.83676147 14.24723816 C287.58195974 14.24426704 286.32715801 14.24129591 285.03433198 14.23823476 C281.54905606 14.23016732 278.06380075 14.22837533 274.5785166 14.22763729 C270.8203645 14.22578627 267.06222308 14.21823865 263.30407715 14.21150208 C255.08496505 14.1979197 246.86585783 14.19189409 238.64673638 14.18749142 C233.51414591 14.18472864 228.38155732 14.1804912 223.24896812 14.17598724 C209.03705749 14.16379434 194.82514836 14.1534953 180.61323261 14.15011215 C179.24880303 14.1497828 179.24880303 14.1497828 177.85680921 14.1494468 C176.94501676 14.14922852 176.03322432 14.14901024 175.0938018 14.14878535 C173.24617406 14.14834189 171.39854632 14.14789532 169.55091858 14.14744568 C168.63443203 14.14722425 167.71794548 14.14700282 166.77368661 14.14677468 C151.92638704 14.14282745 137.07913657 14.12537581 122.23185597 14.10208616 C106.98668662 14.07836551 91.7415419 14.06590996 76.49635381 14.06474423 C67.93745607 14.06382784 59.37862231 14.05808444 50.8197422 14.03992462 C43.53088876 14.02451397 36.24211905 14.01940883 28.95325241 14.02766272 C25.23568237 14.03156592 21.5182809 14.03065593 17.80073166 14.01660538 C13.76647764 14.00149757 9.73260245 14.00974277 5.69833374 14.02018738 C4.52886572 14.01213097 3.35939769 14.00407457 2.15449125 13.99577403 C-5.25522672 14.04063956 -12.40640654 14.48017526 -18.38975525 19.25486755 Z M34.0125885 76.01268005 C33.46731506 76.62369568 32.92204163 77.2347113 32.36024475 77.86424255 C27.75147622 86.11151256 28.66750468 96.03745856 28.69612122 105.18408203 C28.69381465 106.79069676 28.69063681 108.39731044 28.68666673 110.00392193 C28.67833709 114.40338397 28.68243566 118.80275896 28.68863916 123.20222127 C28.6931701 127.95277767 28.68617673 132.70331924 28.68067932 137.45387268 C28.67179075 146.75385904 28.67370489 156.0538131 28.6795046 165.35380072 C28.68402292 172.91215908 28.68463326 180.4705084 28.68245697 188.02886772 C28.6821505 189.10495405 28.68184404 190.18104038 28.68152829 191.28973539 C28.68088883 193.47582873 28.6802404 195.66192208 28.6795831 197.84801542 C28.67388145 218.34182759 28.68043526 238.83562187 28.69118384 259.32943111 C28.70012047 276.91290261 28.69856606 294.4963477 28.68934631 312.07981873 C28.67864298 332.50227876 28.67442942 352.92472311 28.68057084 373.34718555 C28.68120794 375.52489308 28.68183668 377.70260062 28.68245697 379.88030815 C28.68276552 380.95176646 28.68307407 382.02322477 28.68339197 383.12715151 C28.68511863 390.67667582 28.68220447 398.22619019 28.67749786 405.77571297 C28.67188839 414.97560019 28.67340696 424.17545328 28.68405935 433.37533659 C28.68931495 438.06895192 28.69137466 442.76251035 28.68476105 447.45612526 C28.67879731 451.75352341 28.68208377 456.05081197 28.69271615 460.34820019 C28.69494835 461.90189794 28.69381793 463.45560496 28.68896458 465.00929672 C28.45941438 480.43242999 28.45941438 480.43242999 35.9500885 493.38768005 C41.1245839 497.21634257 45.89995518 498.51062137 52.23008347 498.51910782 C53.30599991 498.52294896 54.38191635 498.52679011 55.49043632 498.53074765 C56.67174007 498.52988117 57.85304382 498.52901469 59.07014465 498.52812195 C60.32565195 498.53109307 61.58115925 498.53406419 62.87471223 498.53712535 C66.36191875 498.54519276 69.84910469 498.54698478 73.33631945 498.54772282 C77.09649743 498.54957382 80.85666474 498.55712139 84.61683655 498.56385803 C92.8400136 498.57744001 101.06318578 498.58346585 109.28637218 498.58786869 C114.42096497 498.59063132 119.55555588 498.59486872 124.6901474 498.59937286 C138.90634925 498.61156532 153.12254959 498.6218647 167.33875656 498.62524796 C168.24862785 498.62546752 169.15849913 498.62568709 170.09594227 498.62591331 C171.00799018 498.62613158 171.92003809 498.62634986 172.85972381 498.62657475 C174.70787923 498.62701822 176.55603465 498.62746478 178.40419006 498.62791443 C179.77931335 498.62824657 179.77931335 498.62824657 181.18221691 498.62858543 C196.03665855 498.6325334 210.89105114 498.6499875 225.74547383 498.67327395 C240.99628841 498.69698883 256.24707837 498.70944987 271.49791169 498.71061587 C280.06068992 498.71153255 288.62340423 498.71728311 297.18616486 498.73543549 C304.47760873 498.7508383 311.76896892 498.75595587 319.06042597 498.74769738 C322.77989733 498.74379152 326.4992002 498.74471726 330.21865082 498.75875473 C334.25325476 498.77384222 338.28747926 498.76562532 342.32209778 498.75517273 C343.49447864 498.76322913 344.66685951 498.77128554 345.87476707 498.77958608 C353.66839853 498.73230947 360.62176024 497.95674298 366.7625885 492.63768005 C367.30528381 492.1890863 367.84797913 491.74049255 368.40711975 491.27830505 C372.36521922 486.42838064 373.32512653 481.46690472 373.32761192 475.34580231 C373.33197225 474.66953822 373.33633257 473.99327413 373.34082502 473.29651719 C373.35174465 471.03792049 373.34137514 468.77993896 373.33103943 466.52134705 C373.3344973 464.88274559 373.33926274 463.24414647 373.34522116 461.6055522 C373.357743 457.10839372 373.35155538 452.61142627 373.34226251 448.11426711 C373.33547723 443.26211869 373.34595067 438.41000321 373.35420227 433.55786133 C373.36754734 424.05472137 373.36465841 414.55165247 373.35596435 405.04850972 C373.34919127 397.32561797 373.34826946 389.60274615 373.3515358 381.87985229 C373.3519955 380.78100337 373.3524552 379.68215445 373.35292882 378.55000708 C373.35388799 376.31776893 373.35486063 374.08553078 373.3558466 371.85329264 C373.36440276 350.91790834 373.3545628 329.98256344 373.3384455 309.0471856 C373.32504212 291.08074865 373.32737015 273.11436986 373.34120178 255.14793396 C373.35725359 234.28784302 373.36357877 213.42778662 373.35436499 192.56769037 C373.35340934 190.34362952 373.35246622 188.11956867 373.3515358 185.89550781 C373.35084156 184.254055 373.35084156 184.254055 373.35013329 182.57944152 C373.34754221 174.86515758 373.35191696 167.15089554 373.35897446 159.43661499 C373.36738521 150.03644547 373.36511824 140.6363511 373.34913222 131.2361902 C373.34124381 126.4394011 373.33816766 121.64273736 373.34807968 116.84594917 C373.35701522 112.45533759 373.35211253 108.06496763 373.33614703 103.67437798 C373.33279439 102.08564654 373.33450414 100.49689471 373.34177439 98.90817636 C373.35090039 96.74834682 373.3415375 94.58934429 373.32761192 92.4295578 C373.32712487 91.23001858 373.32663781 90.03047936 373.32613599 88.79459047 C372.60865663 82.29437978 370.05348966 77.58380989 364.9500885 73.38768005 C358.01795674 69.05863116 352.34199304 68.82066868 344.27981567 68.88647461 C343.01342914 68.88094021 341.7470426 68.87540582 340.44228071 68.86970371 C336.94308755 68.85499453 333.4443465 68.86510287 329.94516814 68.87944043 C326.16525639 68.89057249 322.3854069 68.8786002 318.60549927 68.86959839 C311.20667332 68.85567868 303.80801827 68.86321289 296.4092005 68.87827397 C287.78870936 68.89515241 279.16826059 68.89192144 270.54775804 68.88817989 C255.1633604 68.88230354 239.77904464 68.89646356 224.39466858 68.92112732 C209.47504099 68.94504324 194.55552283 68.95213291 179.63587952 68.94163513 C163.38114874 68.93021841 147.12646855 68.9283055 130.87173837 68.94273323 C129.13745813 68.94425903 127.40317788 68.94577938 125.66889763 68.94729424 C124.38902582 68.94843096 124.38902582 68.94843096 123.08329802 68.94959064 C117.07814868 68.95432797 111.07302198 68.95248591 105.067873 68.94822884 C97.7461597 68.9432953 90.42454972 68.94931702 83.10286004 68.96912313 C79.36907358 68.97897555 75.63544425 68.98412254 71.90164948 68.97623062 C67.85006644 68.96784242 63.79890011 68.98279123 59.74734497 69 C58.57282353 68.99398995 57.39830209 68.98797991 56.18818909 68.98178774 C48.1897176 69.04355957 39.52424924 69.46337169 34.0125885 76.01268005 Z " fill="#C641A7" transform="translate(82.04991149902344,-0.3876800537109375)"/>
<path d="M0 0 C1.43899663 -0.01358496 1.43899663 -0.01358496 2.9070639 -0.02744436 C3.95812177 -0.02211644 5.00917964 -0.01678851 6.09208775 -0.01129913 C7.21087096 -0.01739024 8.32965418 -0.02348134 9.48233992 -0.02975702 C13.24490049 -0.04645464 17.00712514 -0.04160145 20.76971531 -0.03681183 C23.4616777 -0.04414821 26.1536146 -0.05263989 28.84556675 -0.06247711 C35.40668457 -0.08354433 41.96771405 -0.08807124 48.52886169 -0.08628923 C53.86101937 -0.0849823 59.19314945 -0.08878216 64.52530193 -0.09621429 C66.06041719 -0.09831346 67.59553245 -0.10041106 69.13064772 -0.10250711 C70.27670033 -0.10407241 70.27670033 -0.10407241 71.44590551 -0.10566932 C85.89976235 -0.12457673 100.35356845 -0.1235199 114.80743254 -0.11669999 C128.03439317 -0.11112352 141.26116017 -0.13195342 154.48807555 -0.16506046 C168.06534203 -0.19878104 181.6425157 -0.21396788 195.21982485 -0.20934343 C202.84413601 -0.20709716 210.46826817 -0.21236487 218.0925436 -0.23723602 C224.58301248 -0.2582281 231.07320422 -0.26186217 237.5636844 -0.24293643 C240.87585763 -0.23376545 244.18740537 -0.23537667 247.49955845 -0.25329208 C251.08890268 -0.27137083 254.67685911 -0.25881811 258.26616001 -0.23834991 C259.31498716 -0.25086776 260.36381431 -0.26338561 261.44442409 -0.27628279 C266.18461043 -0.21810912 268.50410653 -0.15352524 272.42473793 2.69538879 C274.2426157 5.38311005 274.2426157 5.38311005 274.3051157 9.00811005 C273.12524033 12.75594945 272.52760175 13.45040739 269.2426157 15.38311005 C266.99352837 15.75915754 266.99352837 15.75915754 264.48243809 15.76063347 C263.04251641 15.77236833 263.04251641 15.77236833 261.5735054 15.78434026 C260.52176541 15.7776481 259.47002542 15.77095593 258.38641453 15.76406097 C257.26692575 15.76874095 256.14743696 15.77342092 254.99402428 15.77824271 C251.22911262 15.79024355 247.46456154 15.78071534 243.69964695 15.77129364 C241.00606308 15.77535708 238.31250435 15.78058881 235.61892796 15.78722382 C229.05412172 15.8005755 222.48941828 15.79767705 215.92460799 15.78898589 C210.59006038 15.78221539 205.25554162 15.78128988 199.92099094 15.78455734 C199.16223882 15.78501704 198.40348669 15.78547674 197.62174207 15.78595037 C196.08043312 15.78690953 194.53912418 15.78788217 192.99781525 15.78886814 C178.53921215 15.79742624 164.08066608 15.78758134 149.62207234 15.77146704 C137.21137854 15.75806347 124.80076892 15.76039145 112.39007664 15.77422333 C97.98380967 15.79027174 83.57759271 15.79660223 69.17131805 15.78738654 C67.63562553 15.78643087 66.099933 15.78548776 64.56424046 15.78455734 C63.43080533 15.7838631 63.43080533 15.7838631 62.27447253 15.78315484 C56.94528874 15.78056273 51.61613663 15.7849407 46.28695774 15.791996 C39.7939466 15.80040301 33.30104428 15.79814778 26.80804563 15.78215377 C23.49411465 15.77426016 20.18040311 15.77280811 16.86646748 15.78110123 C13.27706754 15.78925761 9.68818363 15.77906616 6.09881687 15.76406097 C4.52120689 15.77409922 4.52120689 15.77409922 2.911726 15.78434026 C1.95177821 15.77651702 0.99183043 15.76869378 0.00279331 15.76063347 C-0.82586648 15.76014641 -1.65452627 15.75965935 -2.50829697 15.75915754 C-5.30573068 15.29142651 -6.69386369 14.29859004 -8.7573843 12.38311005 C-9.2886343 10.22686005 -9.2886343 10.22686005 -9.2573843 7.88311005 C-9.2676968 7.10967255 -9.2780093 6.33623505 -9.2886343 5.53936005 C-8.14778925 0.90887131 -4.31737635 0.00819143 0 0 Z " fill="#FF09E6" transform="translate(150.75738430023193,277.6168899536133)"/>
<path d="M0 0 C0.96343118 -0.00905664 1.92686236 -0.01811328 2.91948843 -0.02744436 C3.97511937 -0.02211644 5.0307503 -0.01678851 6.11837006 -0.01129913 C7.24194239 -0.01739024 8.36551473 -0.02348134 9.52313471 -0.02975702 C13.30184835 -0.04645488 17.08022753 -0.04160143 20.85897064 -0.03681183 C23.56240664 -0.04250943 26.26582224 -0.05263979 28.96924591 -0.06247711 C35.55810212 -0.08354393 42.14687037 -0.08807129 48.73575628 -0.08628923 C54.08985233 -0.0849824 59.4439209 -0.08878169 64.79801178 -0.09621429 C66.33932129 -0.09831345 67.88063081 -0.10041105 69.42194033 -0.10250711 C70.18904788 -0.10355064 70.95615543 -0.10459417 71.74650866 -0.10566932 C86.25803919 -0.12457624 100.76951919 -0.12351992 115.28105694 -0.11669999 C128.56365825 -0.11112235 141.84606681 -0.13195851 155.12862307 -0.16506046 C168.76125526 -0.19877172 182.39379504 -0.21396913 196.02646971 -0.20934343 C203.68260675 -0.20709637 211.33856556 -0.21237648 218.99466705 -0.23723602 C225.51151459 -0.25821598 232.02808615 -0.26187418 238.54494488 -0.24293643 C241.87125879 -0.23375806 245.19663491 -0.23539186 248.52297783 -0.25329208 C252.1258085 -0.27134732 255.72725296 -0.25883597 259.33003998 -0.23834991 C260.91348638 -0.25712669 260.91348638 -0.25712669 262.5289216 -0.27628279 C269.55957965 -0.19013309 269.55957965 -0.19013309 272.90509033 2.69538879 C274.71793849 6.38910138 274.38103057 8.47882382 273.22420502 12.38311005 C270.3650745 15.11523159 268.38857979 15.75810063 264.47964478 15.75784016 C263.52318038 15.7650467 262.56671599 15.77225324 261.58126783 15.77967817 C260.00949427 15.76861674 260.00949427 15.76861674 258.40596771 15.75733185 C256.73285987 15.76329346 256.73285987 15.76329346 255.02595186 15.7693755 C251.27485071 15.7790278 247.52412394 15.76716232 243.77303314 15.7554245 C241.08930186 15.7578515 238.40559565 15.76145328 235.72187042 15.76648712 C229.1811211 15.77598124 222.64048201 15.76936995 216.09974086 15.75722418 C208.48545741 15.74361101 200.87120029 15.74524144 193.25690776 15.74735751 C179.67257925 15.75054829 166.08830315 15.73887459 152.50399017 15.71929169 C139.3174505 15.70028715 126.13097225 15.69320403 112.94441986 15.69878387 C98.59089495 15.70483954 84.23739708 15.70466849 69.88387442 15.69329804 C68.35379887 15.69209073 66.82372332 15.69088475 65.29364777 15.6896801 C64.16435881 15.68877479 64.16435881 15.68877479 63.01225594 15.68785119 C57.7026179 15.68396929 52.39298991 15.68436673 47.08335114 15.68626595 C40.61414599 15.68838649 34.1449947 15.68317455 27.67580473 15.66865239 C24.37406829 15.66140097 21.07242646 15.65840561 17.77068138 15.66189575 C14.19451397 15.66510325 10.61858519 15.65607169 7.04244232 15.64380646 C5.47066876 15.64947544 5.47066876 15.64947544 3.8671422 15.65525895 C2.91067781 15.64942676 1.95421342 15.64359457 0.96876526 15.63758564 C0.14314323 15.63671886 -0.6824788 15.63585209 -1.53311968 15.63495904 C-4.0407888 15.35335165 -5.64497668 14.72134752 -7.77579498 13.38311005 C-9.33039803 10.27390395 -9.50300191 6.75227977 -8.77579498 3.38311005 C-5.86787378 0.69188325 -3.92525905 0.00741541 0 0 Z " fill="#FF1BB8" transform="translate(150.77579498291016,321.6168899536133)"/>
<path d="M0 0 C0.95037325 -0.00384115 1.9007465 -0.00768229 2.87991893 -0.01163983 C4.44920215 -0.01034011 4.44920215 -0.01034011 6.05018806 -0.00901413 C7.15994975 -0.01198525 8.26971144 -0.01495637 9.41310227 -0.01801753 C13.15103529 -0.02672513 16.88893636 -0.02821451 20.62687874 -0.02970505 C23.29897908 -0.03433171 25.97107649 -0.03933538 28.64317513 -0.04475021 C35.91582686 -0.05833608 43.18847308 -0.0643585 50.46113539 -0.06876087 C55.00087253 -0.07152256 59.54060754 -0.07575975 64.08034325 -0.08026505 C76.64603415 -0.09245747 89.21172335 -0.10275721 101.77742004 -0.10614014 C102.58174713 -0.1063597 103.38607422 -0.10657927 104.21477485 -0.10680549 C105.02103911 -0.10702377 105.82730337 -0.10724204 106.65799987 -0.10746694 C108.29183189 -0.1079104 109.92566391 -0.10835697 111.55949593 -0.10880661 C112.77515467 -0.10913875 112.77515467 -0.10913875 114.01537217 -0.10947761 C127.15181099 -0.1134269 140.28819439 -0.13088502 153.42461179 -0.15416613 C166.90691108 -0.1778677 180.38918253 -0.19034142 193.871503 -0.19150805 C201.44325029 -0.19242543 209.01492534 -0.19819348 216.58665276 -0.21632767 C223.03316647 -0.23171247 229.47958561 -0.2368587 235.92611419 -0.22858956 C239.21586936 -0.2246774 242.50539374 -0.22726545 245.79513359 -0.23964691 C249.36013515 -0.25228019 252.92464368 -0.24653629 256.48964119 -0.23606491 C257.53136856 -0.24412132 258.57309593 -0.25217772 259.6463908 -0.26047826 C268.67921569 -0.19818691 268.67921569 -0.19818691 272.39689827 3.13142776 C273.63073491 7.05067356 273.90374064 9.09959735 272.07667065 12.81914902 C267.89478425 16.42754767 263.81264575 15.81610965 258.45804024 15.75288773 C256.76549806 15.76247096 256.76549806 15.76247096 255.03876311 15.77224779 C251.24364086 15.78755386 247.44955314 15.76699782 243.65446663 15.74666214 C240.93955131 15.74739804 238.22467034 15.75562118 235.50976753 15.76347733 C228.89308044 15.77801516 222.27669982 15.76575905 215.66004174 15.74436408 C207.95854094 15.72037359 200.25711067 15.72206722 192.5555808 15.72466999 C178.81699463 15.72836146 165.07855304 15.70752281 151.3400135 15.67341995 C138.00110914 15.64032128 124.66235654 15.62616258 111.32341194 15.63240433 C96.80544297 15.63916434 82.28753761 15.63671968 67.76957804 15.61704493 C67.00229886 15.61600544 66.23501968 15.61496595 65.44448962 15.61389497 C63.90334748 15.61180404 62.36220537 15.60969306 60.82106329 15.6075618 C55.44933754 15.60065906 50.07763136 15.59999806 44.7059021 15.60144424 C38.16270878 15.60288213 31.6196394 15.5932263 25.07648724 15.56949788 C21.73633065 15.55761651 18.39649341 15.55212323 15.05629539 15.55633545 C11.44025406 15.56002689 7.82475192 15.54538369 4.20877266 15.52583694 C3.14633793 15.53116487 2.08390321 15.5364928 0.98927349 15.54198217 C0.02434996 15.53292553 -0.94057357 15.52386889 -1.93473721 15.51453781 C-2.76985224 15.51296661 -3.60496728 15.51139541 -4.46538883 15.50977659 C-7.10029692 15.04343035 -7.98818222 14.22680515 -9.60310173 12.13142776 C-9.96638298 10.19392776 -9.96638298 10.19392776 -9.91560173 8.13142776 C-9.91173454 7.45080276 -9.90786736 6.77017776 -9.90388298 6.06892776 C-9.60310173 4.13142776 -9.60310173 4.13142776 -7.60310173 1.13142776 C-4.74180034 0.17766063 -2.96832481 0.00449892 0 0 Z " fill="#F307FB" transform="translate(151.60310173034668,233.86857223510742)"/>
<path d="M0 0 C0.96902362 -0.00905664 1.93804725 -0.01811328 2.93643522 -0.02744436 C4.53694691 -0.01945247 4.53694691 -0.01945247 6.16979218 -0.01129913 C7.86717805 -0.02043579 7.86717805 -0.02043579 9.59885454 -0.02975702 C13.41064615 -0.04647628 17.22210697 -0.04159842 21.03392792 -0.03681183 C23.75854304 -0.04250727 26.4831379 -0.05263799 29.20774078 -0.06247711 C35.85187798 -0.08355663 42.49592796 -0.08807056 49.14009464 -0.08628923 C54.53855951 -0.084983 59.93699711 -0.08877857 65.33545685 -0.09621429 C66.88884051 -0.09831342 68.44222418 -0.10041102 69.99560785 -0.10250711 C70.76869738 -0.10355064 71.54178691 -0.10459417 72.33830339 -0.10566932 C86.96711476 -0.12458144 101.59587601 -0.12351835 116.22469455 -0.11669999 C129.61796529 -0.11112227 143.01104489 -0.13195793 156.40427095 -0.16506046 C170.14647772 -0.19876278 183.88859283 -0.21397023 197.63084173 -0.20934343 C205.3501184 -0.20709542 213.06921833 -0.21239021 220.78845978 -0.23723602 C227.35915819 -0.25820449 233.92958294 -0.26188571 240.50029242 -0.24293643 C243.85482679 -0.23375082 247.20843051 -0.23540792 250.562994 -0.25329208 C254.19468933 -0.27132386 257.82500587 -0.25885377 261.45665741 -0.23834991 C263.0571691 -0.25712669 263.0571691 -0.25712669 264.69001436 -0.27628279 C267.32793472 -0.24414575 269.73662636 -0.1808409 272.31322479 0.38311005 C274.49957275 2.72663879 274.49957275 2.72663879 275.31322479 5.38311005 C275.18790695 8.51605619 274.96888307 10.52320974 273.05048466 13.03920233 C270.78817776 14.7892754 269.48595657 14.75897593 266.64206696 14.76063347 C265.19375661 14.77236833 265.19375661 14.77236833 263.71618748 14.78434026 C262.65307063 14.7776481 261.58995378 14.77095593 260.49462128 14.76406097 C259.36711425 14.76874095 258.23960722 14.77342092 257.07793331 14.77824271 C253.27994392 14.79025899 249.48231095 14.78070938 245.68431854 14.77129364 C242.96955872 14.7737053 240.25481429 14.7805876 237.54006195 14.78722382 C230.91997486 14.80058358 224.29998963 14.79767347 217.6798985 14.78898589 C212.30098206 14.78221855 206.92209422 14.7812885 201.54317474 14.78455734 C200.77844768 14.78501704 200.01372062 14.78547674 199.22582 14.78595037 C197.67242979 14.78690952 196.11903959 14.78788216 194.56564939 14.78886814 C179.98976552 14.79742861 165.4139382 14.78757763 150.8380636 14.77146704 C138.32357077 14.75806326 125.80916142 14.76039117 113.2946701 14.77422333 C98.77195771 14.79026757 84.24929491 14.79660457 69.7265749 14.78738654 C68.17880822 14.78643086 66.63104153 14.78548775 65.08327484 14.78455734 C64.32168751 14.78409452 63.56010017 14.78363169 62.77543443 14.78315484 C57.40120884 14.78056147 52.02701462 14.78494339 46.65279388 14.791996 C40.10593146 14.80039839 33.55917697 14.79815756 27.01232696 14.78215377 C23.67014215 14.77425383 20.32828715 14.77281544 16.98608017 14.78110123 C13.36781403 14.78924698 9.75006135 14.77907927 6.13182831 14.76406097 C5.06871146 14.77075314 4.00559462 14.7774453 2.91026211 14.78434026 C1.94472188 14.77651702 0.97918165 14.76869378 -0.01561737 14.76063347 C-0.85127448 14.76014641 -1.68693159 14.75965935 -2.54791164 14.75915754 C-5.18513139 14.29549081 -6.06954381 13.47850269 -7.68677521 11.38311005 C-8.08521271 9.44561005 -8.08521271 9.44561005 -8.06177521 7.38311005 C-8.06950958 6.70248505 -8.07724396 6.02186005 -8.08521271 5.32061005 C-7.15783834 0.81102491 -4.20272876 0.00787335 0 0 Z " fill="#FF3F60" transform="translate(149.68677520751953,409.6168899536133)"/>
<path d="M0 0 C0.96554023 -0.00782324 1.93108046 -0.01564648 2.92587948 -0.02370679 C3.98899632 -0.01701463 5.05211317 -0.01032246 6.14744568 -0.00342751 C7.27495271 -0.00810748 8.40245974 -0.01278745 9.56413364 -0.01760924 C13.36212304 -0.02962552 17.15975601 -0.02007591 20.95774841 -0.01066017 C23.67250823 -0.01307183 26.38725267 -0.01995413 29.102005 -0.02659035 C35.7220921 -0.03995011 42.34207732 -0.03704 48.96216846 -0.02835242 C54.3410849 -0.02158508 59.71997274 -0.02065503 65.09889221 -0.02392387 C65.86361928 -0.02438357 66.62834634 -0.02484327 67.41624695 -0.0253169 C68.96963716 -0.02627605 70.52302737 -0.02724869 72.07641757 -0.02823468 C86.65230144 -0.03679514 101.22812876 -0.02694416 115.80400336 -0.01083358 C128.31849618 0.00257021 140.83290553 0.0002423 153.34739685 -0.01358986 C167.87010924 -0.02963411 182.39277204 -0.0359711 196.91549206 -0.02675307 C198.46325874 -0.02579739 200.01102542 -0.02485428 201.55879211 -0.02392387 C202.32037945 -0.02346105 203.08196678 -0.02299822 203.86663252 -0.02252137 C209.24085812 -0.01992801 214.61505233 -0.02430992 219.98927307 -0.03136253 C226.5361355 -0.03976492 233.08288998 -0.03752409 239.62974 -0.0215203 C242.97192481 -0.01362036 246.31377981 -0.01218197 249.65598679 -0.02046776 C253.27425292 -0.02861351 256.89200561 -0.0184458 260.51023865 -0.00342751 C261.57335549 -0.01011967 262.63647234 -0.01681184 263.73180485 -0.02370679 C264.69734508 -0.01588355 265.6628853 -0.00806031 266.65768433 0 C267.49334144 0.00048706 268.32899855 0.00097411 269.1899786 0.00147593 C271.84987994 0.46913046 272.70767477 1.25135135 274.32884216 3.37752342 C275.34424693 6.71385337 275.53953405 8.689641 274.51519012 12.03399467 C271.93423017 14.80050484 271.28991923 14.76867416 267.64206696 15.0011425 C265.58562204 15.02619558 263.52873078 15.02310917 261.47227478 14.99898338 C260.3406842 15.0053722 259.20909362 15.01176103 258.04321241 15.01834345 C254.23116726 15.03366891 250.42014887 15.01308074 246.60813904 14.9927578 C243.88351917 14.99349342 241.15893356 15.00171548 238.43432617 15.00957298 C231.79009696 15.02411986 225.14617268 15.01184533 218.50197232 14.99045974 C210.76922226 14.96648148 203.03654255 14.96816215 195.30376357 14.97076565 C181.50916251 14.97445818 167.71470539 14.95361005 153.92015076 14.91951561 C140.52590802 14.88642272 127.13181637 14.87225703 113.73753357 14.87849998 C99.16207321 14.88526003 84.58667622 14.88281474 70.01122522 14.86314058 C69.24087782 14.8621011 68.47053041 14.86106161 67.67683914 14.85999063 C66.12951197 14.85789969 64.58218483 14.85578871 63.03485772 14.85365745 C57.64110221 14.84675425 52.24736618 14.84609381 46.85360718 14.8475399 C40.2829415 14.84897783 33.71239924 14.83932146 27.14177454 14.81559354 C23.78744842 14.80371197 20.43344032 14.79821895 17.07907295 14.80243111 C13.44765224 14.80612251 9.81676844 14.79147941 6.18540955 14.7719326 C5.11840175 14.77726053 4.05139396 14.78258845 2.95205259 14.78807783 C1.98302897 14.77902119 1.01400535 14.76996455 0.01561737 14.76063347 C-1.24242494 14.75827667 -1.24242494 14.75827667 -2.52588224 14.75587225 C-5.16650988 14.29016128 -6.05217824 13.47638425 -7.67115784 11.37752342 C-8.06959534 9.44002342 -8.06959534 9.44002342 -8.04615784 7.37752342 C-8.05389221 6.69689842 -8.06162659 6.01627342 -8.06959534 5.31502342 C-7.14376608 0.81295173 -4.19789443 0.00244671 0 0 Z " fill="#FF2D8D" transform="translate(149.67115783691406,365.6224765777588)"/>
<path d="M0 0 C1.16921494 -0.01272446 2.33842987 -0.02544891 3.54307556 -0.03855896 C4.81699661 -0.03203308 6.09091766 -0.0255072 7.40344238 -0.01878357 C8.76551751 -0.02584479 10.1275848 -0.03459066 11.48963928 -0.04489136 C15.18183879 -0.06737148 18.87360937 -0.0644493 22.56585121 -0.05556989 C25.6499527 -0.0504562 28.73397386 -0.05775552 31.81806707 -0.06504196 C39.09383016 -0.08203615 46.36938349 -0.07847958 53.6451416 -0.06175232 C61.14856523 -0.04482465 68.65140737 -0.060675 76.15476751 -0.0929752 C82.60079675 -0.11967146 89.04664498 -0.12694726 95.49272394 -0.11846012 C99.34106003 -0.11353174 103.18904612 -0.11574146 107.03733826 -0.13624763 C110.65569383 -0.1546062 114.27321273 -0.1486454 117.89152336 -0.12404823 C119.85026206 -0.11665528 121.8090453 -0.13389382 123.76771545 -0.15187073 C133.34327825 -0.04823811 133.34327825 -0.04823811 136.47949219 2.82754517 C138.15539551 5.5146637 138.15539551 5.5146637 138.21789551 9.1396637 C137.03332722 12.90241003 136.48341093 13.60878854 133.15539551 15.5146637 C130.50356293 15.88939381 130.50356293 15.88939381 127.42431641 15.8888855 C126.25503098 15.89589981 125.08574554 15.90291412 123.88102722 15.91014099 C122.60193985 15.90249725 121.32285248 15.89485352 120.00500488 15.88697815 C118.64146141 15.88940669 117.27791972 15.89312662 115.91438293 15.89804077 C112.21396088 15.90744496 108.51380355 15.89802845 104.81340218 15.88470864 C100.94086798 15.87339069 97.06834676 15.87750192 93.19580078 15.87945557 C86.69254228 15.88033843 80.18938804 15.86925971 73.68615723 15.85084534 C66.16756956 15.8296778 58.64913463 15.82616787 51.1305232 15.8324073 C43.8978114 15.83810216 36.66515339 15.83245385 29.43244934 15.82123375 C26.35438543 15.81658939 23.27635443 15.81571321 20.19828796 15.8178196 C16.57361281 15.81970338 12.94909308 15.81159175 9.32445335 15.7957592 C7.35956679 15.7894934 5.39465666 15.7930235 3.42976379 15.79682922 C2.26047836 15.78974442 1.09119293 15.78265961 -0.11352539 15.77536011 C-1.12967674 15.77330724 -2.14582809 15.77125437 -3.19277191 15.76913929 C-5.92418099 15.50702736 -7.55546699 15.00382072 -9.84460449 13.5146637 C-11.40890697 10.38605874 -11.20087733 7.95863445 -10.84460449 4.5146637 C-7.34263977 0.95388319 -4.94004705 0.01367581 0 0 Z " fill="#FF5134" transform="translate(286.8446044921875,452.48533630371094)"/>
<path d="M0 0 C2.4375 1.625 2.4375 1.625 4 4 C4.56060341 7.01762302 4.62221104 9.05436038 2.89672852 11.67675781 C1.19269516 13.64035681 -0.59533164 15.47769496 -2.4375 17.3125 C-3.12457031 18.01947021 -3.81164062 18.72644043 -4.51953125 19.45483398 C-6.99495095 21.98833825 -9.49603573 24.49470407 -12 27 C-13.07082117 28.07713019 -14.14127891 29.15462176 -15.21142578 30.23242188 C-22.44654349 37.51627013 -29.71221084 44.76887428 -37 52 C-35.57073412 55.26385402 -33.82714077 57.41226394 -31.30053711 59.91064453 C-30.54312729 60.6646756 -29.78571747 61.41870667 -29.00535583 62.19558716 C-28.18761185 62.99987152 -27.36986786 63.80415588 -26.52734375 64.6328125 C-25.26997154 65.88238235 -25.26997154 65.88238235 -23.98719788 67.15719604 C-21.30866155 69.81791527 -18.62353825 72.47185594 -15.9375 75.125 C-13.24876976 77.78614491 -10.56149421 80.44871799 -7.87709045 83.11422729 C-6.2060208 84.7730062 -4.53228601 86.42910518 -2.85569763 88.08230591 C-2.10143997 88.83003265 -1.34718231 89.5777594 -0.57006836 90.34814453 C0.09674454 91.00670441 0.76355743 91.66526428 1.45057678 92.34378052 C3.5707312 94.61006968 3.97303643 95.75193516 4.3125 98.875 C4 102 4 102 2.4375 104.375 C0 106 0 106 -3.1875 106.8125 C-8.18638745 105.74716333 -10.14098091 103.37671 -13.49609375 99.65234375 C-15.49421699 97.53576702 -17.47093057 95.6866519 -19.67236328 93.79907227 C-26.11420852 88.19671177 -32.15244761 82.18564763 -38.22045898 76.18457031 C-39.70485828 74.72191148 -41.19549716 73.26555944 -42.69213867 71.81542969 C-44.87060502 69.70381373 -47.02877473 67.57320974 -49.18359375 65.4375 C-50.18814857 64.47469116 -50.18814857 64.47469116 -51.21299744 63.49243164 C-54.24449222 60.44725541 -55.83910654 58.52772771 -57.11352539 54.34765625 C-56.91724878 48.55981767 -53.51885599 45.26876583 -49.56030273 41.31738281 C-48.66605087 40.42005432 -47.77179901 39.52272583 -46.85044861 38.59820557 C-45.87834399 37.63299706 -44.90605464 36.66797456 -43.93359375 35.703125 C-42.93339658 34.70412101 -41.93356998 33.7047459 -40.93409729 32.70501709 C-38.84496889 30.6174483 -36.75253727 28.53326907 -34.6574707 26.45166016 C-31.97000264 23.78123627 -29.28921965 21.10422156 -26.61064053 18.4248848 C-24.54949664 16.36401246 -22.48575988 14.30575365 -20.42112923 12.24837494 C-19.43133739 11.26176735 -18.44215188 10.2745511 -17.45358086 9.28672028 C-16.07500186 7.91030427 -14.69274057 6.5375793 -13.31030273 5.16503906 C-12.13140724 3.99186127 -12.13140724 3.99186127 -10.92869568 2.79498291 C-7.42156706 -0.46900322 -4.72132444 -0.40701073 0 0 Z " fill="#BF2AEA" transform="translate(247,99)"/>
<path d="M0 0 C6.98897687 0.12559288 11.58506533 6.52459329 16.15625 11.18969727 C17.24216875 12.27276412 18.32934789 13.3545686 19.41772461 14.43516541 C21.68985317 16.70002677 23.94719576 18.97840815 26.19482422 21.26757812 C29.07257089 24.19653315 31.98262275 27.09067172 34.90432739 29.97570133 C37.15294756 32.20288294 39.3843385 34.44670728 41.61083984 36.69598198 C42.67753089 37.76984117 43.74928256 38.83869852 44.82617188 39.9023304 C46.33024442 41.39328624 47.80982824 42.90498141 49.28515625 44.42431641 C50.13150635 45.27925186 50.97785645 46.13418732 51.84985352 47.01502991 C54.19102379 50.51695661 54.2077647 52.58098627 53.65625 56.71704102 C52.46186829 58.80909729 52.46186829 58.80909729 50.75512695 60.54736328 C50.11233795 61.21833038 49.46954895 61.88929749 48.80728149 62.58059692 C48.0974411 63.28562347 47.38760071 63.99065002 46.65625 64.71704102 C45.92908783 65.46694305 45.20192566 66.21684509 44.45272827 66.98947144 C42.01398466 69.49171215 39.54783525 71.96412856 37.07421875 74.43188477 C36.17882889 75.32823135 35.28343903 76.22457794 34.36091614 77.14808655 C32.48214224 79.02753704 30.60241009 80.90596289 28.72094727 82.78271484 C26.30883227 85.18908378 23.90130193 87.59998225 21.49503613 90.01219845 C19.19051977 92.32118534 16.8822104 94.62637245 14.57421875 96.93188477 C13.70967575 97.798452 12.84513275 98.66501923 11.95439148 99.55784607 C10.75723259 100.75027672 10.75723259 100.75027672 9.53588867 101.96679688 C8.48167976 103.01981239 8.48167976 103.01981239 7.40617371 104.09410095 C4.83347571 106.48011048 3.81981678 106.70514525 0.21875 106.96704102 C-3.34375 106.71704102 -3.34375 106.71704102 -5.28125 105.71704102 C-7.07530222 102.34000154 -7.26648924 99.34975198 -6.34375 95.71704102 C-3.78594378 92.03217207 -0.61230205 89.05529601 2.625 85.96704102 C3.53503784 85.06832275 4.44507568 84.16960449 5.38269043 83.24365234 C7.79550978 80.86796284 10.2240909 78.51113097 12.66229248 76.16168213 C15.15001529 73.7560805 17.61499517 71.32741492 20.08203125 68.90063477 C24.91948888 64.15130434 29.77906459 59.42554642 34.65625 54.71704102 C33.21673455 51.41027481 31.4382816 49.27352509 28.86499023 46.76220703 C28.08755966 45.99783829 27.31012909 45.23346954 26.50914001 44.44593811 C25.24971336 43.22081764 25.24971336 43.22081764 23.96484375 41.97094727 C22.19829607 40.22968634 20.43202855 38.48814116 18.66601562 36.74633789 C15.87596211 34.00598812 13.08285447 31.26890493 10.28442383 28.53710938 C7.58580362 25.89880149 4.89967199 23.24827865 2.21484375 20.59594727 C1.37320175 19.78122452 0.53155975 18.96650177 -0.33558655 18.12709045 C-1.10986496 17.35956955 -1.88414337 16.59204865 -2.68188477 15.80126953 C-3.70875145 14.79677513 -3.70875145 14.79677513 -4.75636292 13.77198792 C-6.61631347 11.36419484 -7.11237704 9.73621314 -7.34375 6.71704102 C-4.46384814 0.95723729 -4.46384814 0.95723729 0 0 Z " fill="#BF2AE9" transform="translate(322.34375,98.282958984375)"/>
<path d="M0 0 C2.83545984 0.1726387 4.08560324 0.51296036 6.625 1.9375 C9.89406402 7.76496194 6.5483415 16.18875117 4.88525391 22.32104492 C4.66559464 23.15152847 4.44593536 23.98201202 4.21961975 24.83766174 C3.49931269 27.55372185 2.76954825 30.26713006 2.0390625 32.98046875 C1.53162797 34.88127036 1.02458475 36.78217647 0.51791382 38.68318176 C-0.54206588 42.65411909 -1.6067472 46.62375727 -2.67480469 50.5925293 C-4.04104126 55.67080484 -5.39548359 60.75213823 -6.74643517 65.83449841 C-7.79006052 69.75545885 -8.83990351 73.6747337 -9.89162064 77.59353065 C-10.39347629 79.46645435 -10.89341381 81.33989313 -11.39136887 83.21385765 C-12.08843211 85.83335879 -12.79384642 88.4504721 -13.50146484 91.06713867 C-13.80553001 92.21981735 -13.80553001 92.21981735 -14.11573792 93.39578247 C-15.29324061 97.70994806 -16.67375351 101.60279008 -18.9375 105.5 C-21.98733996 107.02491998 -24.5798369 106.73562548 -27.9375 106.5 C-29.99740296 104.97711306 -30.8236655 104.0981401 -31.30624866 101.56242085 C-31.18444304 95.87206438 -30.28175376 90.76104183 -28.78198242 85.2800293 C-28.55271561 84.40731888 -28.32344879 83.53460846 -28.0872345 82.63545227 C-27.33353997 79.7786405 -26.56379098 76.92645252 -25.79296875 74.07421875 C-25.26135132 72.07903344 -24.73046365 70.08365355 -24.20027161 68.08808899 C-23.09011638 63.91965131 -21.97215208 59.75341212 -20.84838867 55.58862305 C-19.40879262 50.25135767 -17.98737038 44.90945388 -16.57152843 39.56584454 C-15.47928902 35.45055437 -14.37827255 31.3376532 -13.27449989 27.22544289 C-12.74689034 25.2561383 -12.2218365 23.28614715 -11.69939232 21.31546593 C-10.96878603 18.56552122 -10.22660856 15.81896202 -9.48120117 13.07299805 C-9.26756927 12.25995209 -9.05393738 11.44690613 -8.83383179 10.60922241 C-6.13202936 0.77867039 -6.13202936 0.77867039 0 0 Z " fill="#BF2AE9" transform="translate(294.9375,98.5)"/>
</svg>