<svg xmlns="http://www.w3.org/2000/svg" version="1.1" viewBox="31 0 450 512">
<path d="M0 0 C123.09 0 246.18 0 373 0 C373 143.55 373 287.1 373 435 C347.59 435 322.18 435 296 435 C296 460.41 296 485.82 296 512 C172.91 512 49.82 512 -77 512 C-77 368.45 -77 224.9 -77 77 C-51.59 77 -26.18 77 0 77 C0 51.59 0 26.18 0 0 Z M27 26 C27 42.83 27 59.66 27 77 C115.77 77 204.54 77 296 77 C296 186.56 296 296.12 296 409 C312.83 409 329.66 409 347 409 C347 282.61 347 156.22 347 26 C241.4 26 135.8 26 27 26 Z M-51 103 C-51 229.39 -51 355.78 -51 486 C54.93 486 160.86 486 270 486 C270 359.61 270 233.22 270 103 C164.07 103 58.14 103 -51 103 Z " fill="#7A5AF3" transform="translate(108,0)"/>
<path d="M0 0 C77.22 0 154.44 0 234 0 C234 8.58 234 17.16 234 26 C156.78 26 79.56 26 0 26 C0 17.42 0 8.84 0 0 Z " fill="#C518EB" transform="translate(100,417)"/>
<path d="M0 0 C77.22 0 154.44 0 234 0 C234 8.58 234 17.16 234 26 C156.78 26 79.56 26 0 26 C0 17.42 0 8.84 0 0 Z " fill="#A634EE" transform="translate(100,337)"/>
<path d="M0 0 C5.35495035 4.40295918 10.21512911 9.16213666 15.05859375 14.12109375 C17.19202533 16.26046694 19.41679236 18.24479929 21.71069336 20.21069336 C25.84182572 23.81121023 29.7218019 27.60938968 33.5703125 31.5078125 C34.25503632 32.19632294 34.93976013 32.88483337 35.64523315 33.59420776 C37.80763239 35.76869554 39.96672755 37.94641667 42.125 40.125 C44.97882428 43.00554906 47.83603448 45.88267795 50.6953125 48.7578125 C51.33920929 49.41000763 51.98310608 50.06220276 52.64651489 50.73416138 C56.27689345 54.38405842 59.98919998 57.77149463 64 61 C63.43949716 64.85501999 61.75902292 66.60360876 59.02734375 69.30078125 C58.20943359 70.11353516 57.39152344 70.92628906 56.54882812 71.76367188 C55.68708984 72.60478516 54.82535156 73.44589844 53.9375 74.3125 C53.10283203 75.14201172 52.26816406 75.97152344 51.40820312 76.82617188 C47.7501779 80.4385787 44.06255079 83.96039589 40.16894531 87.31787109 C36.04878501 90.90269623 32.21119395 94.71011873 28.39453125 98.61328125 C26.98531162 100.03999568 25.57579792 101.46641968 24.16601562 102.89257812 C21.97723608 105.11243218 19.79090578 107.33454893 17.60961914 109.56176758 C15.4821556 111.73152851 13.34537997 113.89175452 11.20703125 116.05078125 C10.23344414 117.05229973 10.23344414 117.05229973 9.2401886 118.0740509 C6.0397077 121.29252367 3.50083795 123.75777945 -1 125 C-3.27409341 122.5863834 -5.54368549 120.16857862 -7.8125 117.75 C-8.45509766 117.06808594 -9.09769531 116.38617188 -9.75976562 115.68359375 C-10.38173828 115.01972656 -11.00371094 114.35585938 -11.64453125 113.671875 C-12.50075073 112.76066895 -12.50075073 112.76066895 -13.37426758 111.83105469 C-15.03427918 109.96139153 -16.52801815 108.01983205 -18 106 C-15.337658 103.30818725 -12.66933333 100.62237853 -10 97.9375 C-9.25621094 97.18533203 -8.51242187 96.43316406 -7.74609375 95.65820312 C-4.27677869 92.17380409 -0.79457276 88.76564344 2.9375 85.5625 C7.87529543 81.31479577 12.41961258 76.68862094 17 72.0625 C17.87011719 71.18787109 18.74023438 70.31324219 19.63671875 69.41210938 C21.76013549 67.27702551 23.88116378 65.13962795 26 63 C22.45938069 58.72299944 18.85365881 54.81384783 14.6875 51.125 C7.43469238 44.591507 0.57605008 37.66191834 -6.3125 30.75 C-6.88795563 30.17268127 -7.46341125 29.59536255 -8.05630493 29.00054932 C-11.37424098 25.67037389 -14.68854278 22.33661732 -18 19 C-14.07711742 14.29658874 -9.98981304 9.85726049 -5.625 5.5625 C-5.07972656 5.02173828 -4.53445313 4.48097656 -3.97265625 3.92382812 C-2.65076536 2.61353277 -1.32572382 1.30641716 0 0 Z " fill="#7162F4" transform="translate(288,150)"/>
<path d="M0 0 C4.70341126 3.92288258 9.14273951 8.01018696 13.4375 12.375 C13.97826172 12.92027344 14.51902344 13.46554688 15.07617188 14.02734375 C16.38646723 15.34923464 17.69358284 16.67427618 19 18 C17.89036879 21.32889364 17.06910183 22.02229752 14.43310547 24.19799805 C10.09634194 27.87988846 6.07591485 31.79576752 2.0703125 35.83203125 C1.35390594 36.54985275 0.63749939 37.26767426 -0.10061646 38.00724792 C-2.36113043 40.27330154 -4.61812173 42.54282599 -6.875 44.8125 C-8.41122486 46.35374838 -9.94768117 47.89476609 -11.484375 49.43554688 C-14.84522422 52.80617282 -18.20386492 56.17898109 -21.56051636 59.55378723 C-22.70545375 60.70407684 -23.85238338 61.85238338 -25 63 C-22.337658 65.69181275 -19.66933333 68.37762147 -17 71.0625 C-15.88431641 72.19075195 -15.88431641 72.19075195 -14.74609375 73.34179688 C-11.27677869 76.82619591 -7.79457276 80.23435656 -4.0625 83.4375 C0.87529543 87.68520423 5.41961258 92.31137906 10 96.9375 C10.87011719 97.81212891 11.74023438 98.68675781 12.63671875 99.58789062 C14.76013549 101.72297449 16.88116378 103.86037205 19 106 C15.36562243 111.05764154 11.60702007 115.67631216 7.125 120 C6.62742187 120.48855469 6.12984375 120.97710937 5.6171875 121.48046875 C4.41613046 122.65842854 3.20876441 123.82995047 2 125 C-1.006818 123.66000502 -2.99762609 122.20154709 -5.25 119.8125 C-7.6043629 117.32410159 -10.07037756 115.05996794 -12.66699219 112.83081055 C-16.78673059 109.23689294 -20.66081343 105.45197093 -24.5 101.5625 C-25.17998047 100.87873291 -25.85996094 100.19496582 -26.56054688 99.49047852 C-29.43225143 96.60262227 -32.29788438 93.70876925 -35.1640625 90.81542969 C-37.27392787 88.68734275 -39.38689645 86.56237083 -41.5 84.4375 C-42.45036133 83.47469116 -42.45036133 83.47469116 -43.41992188 82.49243164 C-47.20114697 78.69087205 -51.09760643 75.09178393 -55.171875 71.60546875 C-57.9153931 69.19609709 -60.45085082 66.61287791 -63 64 C-61.64368172 60.97125541 -60.12353234 58.8748059 -57.77880859 56.53588867 C-57.12407562 55.87807907 -56.46934265 55.22026947 -55.79476929 54.54252625 C-55.0864798 53.84142227 -54.37819031 53.1403183 -53.6484375 52.41796875 C-52.91557526 51.68556473 -52.18271301 50.95316071 -51.42764282 50.19856262 C-49.87486171 48.64880153 -48.31965197 47.10147055 -46.76220703 45.55639648 C-44.39956172 43.21187332 -42.04488265 40.85958252 -39.69140625 38.50585938 C-38.17755167 36.99692583 -36.66324283 35.48844785 -35.1484375 33.98046875 C-34.4522934 33.28543747 -33.75614929 32.59040619 -33.03890991 31.87431335 C-29.08141368 27.95429711 -25.01831278 24.22012615 -20.80288696 20.57951355 C-18.46236578 18.52897739 -16.25481553 16.36769619 -14.0625 14.16015625 C-12.81533203 12.9081543 -12.81533203 12.9081543 -11.54296875 11.63085938 C-10.70378906 10.78330078 -9.86460937 9.93574219 -9 9.0625 C-8.12988281 8.18787109 -7.25976562 7.31324219 -6.36328125 6.41210938 C-4.23986451 4.27702551 -2.11883622 2.13962795 0 0 Z " fill="#7162F4" transform="translate(145,150)"/>
<path d="M0 0 C1.89599609 0.14501953 1.89599609 0.14501953 4 1 C5.39697266 3.01513672 5.39697266 3.01513672 6.6640625 5.6796875 C7.14077393 6.66090576 7.61748535 7.64212402 8.10864258 8.65307617 C8.60904053 9.71631104 9.10943848 10.7795459 9.625 11.875 C10.70277692 14.09845689 11.78222187 16.32110596 12.86328125 18.54296875 C13.39646973 19.64688965 13.9296582 20.75081055 14.47900391 21.88818359 C16.50564097 26.03449436 18.64047098 30.11597099 20.8125 34.1875 C25.01058629 42.09815627 29.14046433 50.04307613 33.25 58 C33.89614939 59.25073731 34.54230828 60.50146971 35.18847656 61.75219727 C36.16380562 63.64012179 37.13910671 65.52806071 38.11428833 67.4160614 C41.42374513 73.82247108 44.74256784 80.22401342 48.0625 86.625 C48.62710938 87.71441895 49.19171875 88.80383789 49.7734375 89.92626953 C52.48623382 95.15952553 55.20237267 100.39098698 57.9282074 105.61746216 C59.22465348 108.10378452 60.51936825 110.59100646 61.81393433 113.07830811 C62.72720546 114.83124798 63.64298985 116.58287774 64.55883789 118.33447266 C65.11176514 119.39714355 65.66469238 120.45981445 66.234375 121.5546875 C66.72131836 122.48780762 67.20826172 123.42092773 67.70996094 124.38232422 C68.94217177 126.88265816 70.00341726 129.39794247 71 132 C67.37871557 134.00678401 63.75238357 136.0042648 60.125 138 C59.09246094 138.57234375 58.05992187 139.1446875 56.99609375 139.734375 C55.51689453 140.54648437 55.51689453 140.54648437 54.0078125 141.375 C53.09660645 141.87773437 52.18540039 142.38046875 51.24658203 142.8984375 C49 144 49 144 47 144 C46.65855957 143.31188232 46.31711914 142.62376465 45.96533203 141.91479492 C40.11434009 130.13538585 34.25828846 118.36591868 28.08789062 106.74975586 C23.86497769 98.78509522 19.7469028 90.76722856 15.625 82.75 C10.71141919 73.19573331 5.78974687 63.64632038 0.8125 54.125 C0.11785645 52.7954126 0.11785645 52.7954126 -0.59082031 51.43896484 C-1.54113751 49.62009583 -2.49149628 47.80124854 -3.44189453 45.98242188 C-6.19024071 40.72172039 -8.93767297 35.46057453 -11.67715454 30.19525146 C-12.60234066 28.41851521 -13.53002119 26.64307854 -14.45776367 24.86767578 C-15.02084229 23.78470215 -15.5839209 22.70172852 -16.1640625 21.5859375 C-16.66373535 20.6273584 -17.1634082 19.6687793 -17.67822266 18.68115234 C-18.92164086 16.15894718 -19.99575284 13.62534644 -21 11 C-20.09906616 10.55346069 -20.09906616 10.55346069 -19.17993164 10.09790039 C-16.47308771 8.75483792 -13.76777908 7.40871152 -11.0625 6.0625 C-10.11697266 5.59392578 -9.17144531 5.12535156 -8.19726562 4.64257812 C-6.84858398 3.9706543 -6.84858398 3.9706543 -5.47265625 3.28515625 C-4.64000244 2.87144775 -3.80734863 2.45773926 -2.94946289 2.03149414 C-1.05158863 1.14969058 -1.05158863 1.14969058 0 0 Z " fill="#7162F4" transform="translate(192,141)"/>
</svg>