<?xml version="1.0" encoding="UTF-8"?>
<svg version="1.1" xmlns="http://www.w3.org/2000/svg" width="512" height="512">
<path d="M0 0 C1.17231597 -0.01177436 2.34463195 -0.02354872 3.55247265 -0.03567988 C6.79430445 -0.06008381 10.03370651 -0.04874714 13.27544653 -0.02199829 C16.77596217 -0.00180493 20.2761825 -0.02776336 23.7766571 -0.04776001 C30.62935911 -0.07945825 37.48134142 -0.06809374 44.33403926 -0.04143386 C49.90451093 -0.02062024 55.47478507 -0.01582454 61.04528999 -0.02244759 C61.83856046 -0.02338473 62.63183092 -0.02432187 63.44913988 -0.02528741 C65.06074235 -0.02727295 66.67234476 -0.02930095 68.28394712 -0.03137095 C83.39187364 -0.04900598 98.49940487 -0.01839951 113.60724754 0.02924787 C126.56425147 0.06906827 139.52076999 0.06989939 152.47779846 0.04161072 C167.53059983 0.00877685 182.58312473 -0.00154717 197.63594776 0.02515787 C199.24187756 0.02795784 200.84780739 0.03073568 202.45373726 0.03349113 C203.63890081 0.03555351 203.63890081 0.03555351 204.84800706 0.03765755 C210.40982955 0.04584607 215.97150069 0.03818355 221.53330803 0.02450752 C228.31434316 0.00834264 235.0947941 0.01743596 241.87573295 0.05852479 C245.33420897 0.07887626 248.79174947 0.08818176 252.25024223 0.06703568 C256.00307683 0.05015203 259.75322668 0.07636113 263.50585938 0.11352539 C265.13879626 0.09112599 265.13879626 0.09112599 266.80472177 0.06827408 C273.46832961 0.19261182 276.9353872 1.42269105 281.64910585 6.18999738 C282.4744271 7.09047298 282.4744271 7.09047298 283.31642151 8.00914001 C284.17025862 8.81960596 285.02409573 9.63007191 285.90380669 10.46509743 C287.02818484 11.58501359 287.02818484 11.58501359 288.17527771 12.72755432 C289.487425 14.0311364 289.487425 14.0311364 290.82608032 15.36105347 C291.75730209 16.29115738 292.68852386 17.22126129 293.64796448 18.17955017 C294.66047745 19.18742383 295.6731834 20.19510367 296.68606567 21.2026062 C299.41334642 23.91688211 302.13738795 26.63438499 304.8604064 29.35293627 C306.56393021 31.05351451 308.26803318 32.75351035 309.97230911 34.45333481 C315.31179281 39.77918515 320.64930165 45.1070028 325.9839114 50.4377352 C332.13041712 56.57974747 338.28343327 62.71513879 344.44211662 68.84493983 C349.21444489 73.59566449 353.98100532 78.35212582 358.74321282 83.11299551 C361.58331855 85.95205378 364.42579703 88.78863481 367.27430344 91.61926651 C369.94855215 94.27705387 372.61557061 96.94188808 375.27720451 99.61230659 C376.25418003 100.59005308 377.23372151 101.56524341 378.21600914 102.53765297 C379.55742834 103.86636984 380.88871066 105.20529719 382.21946716 106.54469299 C383.34045209 107.66347808 383.34045209 107.66347808 384.48408318 108.80486488 C388.07910225 113.12961812 388.56698659 117.07813084 388.57369041 122.59910297 C388.57719649 123.25081092 388.58070256 123.90251886 388.58431488 124.57397553 C388.59362966 126.76097027 388.58870546 128.94769877 388.58384705 131.13470459 C388.58758327 132.71724387 388.59218468 134.29978131 388.59757769 135.88231581 C388.60982654 140.23379963 388.60954501 144.58520667 388.60718894 148.9367038 C388.60678125 153.62871306 388.61781535 158.32069756 388.62730408 163.01269531 C388.64392537 172.20627483 388.64941413 181.39982869 388.65052883 190.59342197 C388.65147877 198.06558792 388.65558634 205.5377454 388.66193008 213.00990868 C388.67954554 234.18945784 388.68876847 255.36898671 388.68726914 276.54854325 C388.68718922 277.69062075 388.68710931 278.83269825 388.68702698 280.00938416 C388.68694522 281.15285424 388.68686345 282.29632432 388.68677922 283.47444501 C388.68596622 302.00828888 388.70510651 320.5420515 388.73330371 339.07587186 C388.7620202 358.10096336 388.77584469 377.12601522 388.77411616 396.15112895 C388.77345183 406.83441802 388.77896281 417.51762192 388.80047226 428.20089149 C388.8186678 437.29659709 388.82304477 446.39217891 388.80945341 455.48789481 C388.80291556 460.12889299 388.80283603 464.76965358 388.82015991 469.41062927 C388.83585958 473.66018193 388.83305893 477.90930798 388.81559165 482.15885004 C388.81251489 483.69517381 388.8161796 485.23152917 388.8273118 486.76781569 C388.93647457 502.90286962 388.93647457 502.90286962 384.31642151 508.00914001 C379.96246695 511.48426932 377.09038403 512.50920309 371.54817867 512.50971127 C370.55994012 512.51798252 370.55994012 512.51798252 369.55173716 512.52642086 C367.34628246 512.5400057 365.14195687 512.52512575 362.93652344 512.51034546 C361.33860579 512.51423871 359.74069161 512.51987935 358.14278561 512.52711636 C353.7534625 512.54188544 349.36449762 512.53168123 344.97518599 512.51737964 C340.24098222 512.50628208 335.50682919 512.51820838 330.77262878 512.52722168 C321.49926952 512.54116411 312.22604631 512.5335907 302.95269351 512.5185461 C292.15771631 512.50169846 281.36277311 512.50489466 270.56778682 512.50864018 C251.30989859 512.51452052 232.05207572 512.50033994 212.79420471 512.47569275 C194.09886729 512.45176814 175.40361719 512.44468957 156.70826721 512.45518494 C136.35836305 512.46658865 116.00849929 512.46853122 95.65859562 512.45408684 C93.4896015 512.45256097 91.32060737 512.45104061 89.15161324 512.44952583 C88.08437605 512.44876802 87.01713886 512.4480102 85.91756115 512.44722943 C78.38920213 512.44248264 70.86086112 512.44434081 63.33250237 512.44859123 C54.16134772 512.45351276 44.99027571 512.4475564 35.81914001 512.42769694 C31.13804822 512.4178108 26.45708237 512.41273407 21.77598381 512.42058945 C17.49337013 512.42762921 13.21101096 512.42088174 8.92843092 512.40298582 C7.37671947 512.39893025 5.82498494 512.3999597 4.27328198 512.40650468 C2.16815599 512.41462607 0.06389362 512.40437897 -2.0411768 512.38945675 C-3.2116399 512.38842762 -4.38210301 512.38739849 -5.58803469 512.38633817 C-10.99008311 511.72808785 -14.36195318 509.02130602 -17.70397738 504.75654136 C-19.50344673 501.54666837 -19.3697099 498.14939849 -19.31837082 494.57821846 C-19.33017041 493.32034412 -19.33017041 493.32034412 -19.34220839 492.03705817 C-19.36250143 489.22003287 -19.34712522 486.40433684 -19.33195496 483.58729553 C-19.33914675 481.55015881 -19.34851215 479.51302879 -19.35986733 477.47591102 C-19.3846698 471.87240896 -19.37815618 466.26931065 -19.36651993 460.66578174 C-19.35933807 454.62473664 -19.38082793 448.58378423 -19.39857483 442.54277039 C-19.42855545 430.70565123 -19.43114007 418.86867364 -19.42356166 407.03153695 C-19.41760544 397.41216735 -19.42082063 387.79283957 -19.43053436 378.17347336 C-19.43189363 376.7917504 -19.4332508 375.41002744 -19.43460591 374.02830448 C-19.43665834 371.94620955 -19.43871689 369.86411464 -19.4407975 367.78201974 C-19.45993449 348.42202464 -19.4689908 329.06204552 -19.45692062 309.70204353 C-19.45646707 308.97210841 -19.45601353 308.24217328 -19.45554623 307.49011891 C-19.45180619 301.56240089 -19.44780623 295.63468304 -19.44378476 289.7069652 C-19.42832515 266.58543869 -19.44460991 243.46412818 -19.48631287 220.34263611 C-19.53309451 194.36843017 -19.55667851 168.39435587 -19.54554963 142.42010581 C-19.54443821 139.6508833 -19.54340228 136.88166076 -19.5424118 134.1124382 C-19.54215126 133.43058025 -19.54189072 132.7487223 -19.54162229 132.04620199 C-19.53815237 121.75020744 -19.55278388 111.45433952 -19.5765152 101.15837479 C-19.60346397 89.44957382 -19.60524564 77.74101195 -19.57565412 66.03219499 C-19.56121868 60.05642931 -19.55809889 54.08122145 -19.58530807 48.10548782 C-19.60991099 42.63632902 -19.60227841 37.1682037 -19.56880715 31.69910072 C-19.56236937 29.71934127 -19.56778071 27.73950096 -19.58615467 25.7598163 C-19.72951643 9.14591115 -19.72951643 9.14591115 -15.85908794 3.84247303 C-11.14557522 -0.24912726 -5.98495513 -0.1016529 0 0 Z " fill="#FEE361" transform="translate(71.68357849121094,-1.0091400146484375)"/>
<path d="M0 0 C92.09375314 0 92.09375314 0 103.8588562 11.71841431 C105.17100349 13.02199638 105.17100349 13.02199638 106.50965881 14.35191345 C107.90649147 15.74706932 107.90649147 15.74706932 109.33154297 17.17041016 C110.34405595 18.17828382 111.3567619 19.18596365 112.36964417 20.19346619 C115.09692491 22.9077421 117.82096644 25.62524497 120.54398489 28.34379625 C122.2475087 30.0443745 123.95161167 31.74437033 125.6558876 33.44419479 C130.9953713 38.77004514 136.33288014 44.09786278 141.66748989 49.42859519 C147.81399561 55.57060745 153.96701176 61.70599878 160.12569511 67.83579981 C164.89802338 72.58652448 169.66458381 77.34298581 174.42679131 82.10385549 C177.26689704 84.94291376 180.10937552 87.77949479 182.95788193 90.6101265 C185.63213064 93.26791386 188.2991491 95.93274807 190.960783 98.60316658 C191.93775852 99.58091306 192.91730001 100.55610339 193.89958763 101.52851295 C195.24100683 102.85722982 196.57228915 104.19615718 197.90304565 105.53555298 C198.65036894 106.2814097 199.39769222 107.02726643 200.16766167 107.79572487 C203.76268074 112.12047811 204.25056508 116.06899082 204.25726891 121.58996296 C204.26077498 122.2416709 204.26428105 122.89337885 204.26789337 123.56483552 C204.27720815 125.75183026 204.27228395 127.93855875 204.26742554 130.12556458 C204.27116176 131.70810386 204.27576317 133.2906413 204.28115618 134.8731758 C204.29340504 139.22465962 204.2931235 143.57606666 204.29076743 147.92756379 C204.29035974 152.61957305 204.30139384 157.31155754 204.31088257 162.0035553 C204.32750386 171.19713481 204.33299262 180.39068868 204.33410732 189.58428196 C204.33505726 197.05644791 204.33916483 204.52860539 204.34550858 212.00076866 C204.36312404 233.18031782 204.37234696 254.3598467 204.37084763 275.53940324 C204.37076772 276.68148074 204.3706878 277.82355823 204.37060547 279.00024414 C204.37052371 280.14371422 204.37044195 281.2871843 204.37035771 282.46530499 C204.36954471 300.99914886 204.388685 319.53291148 204.4168822 338.06673185 C204.44559869 357.09182335 204.45942318 376.1168752 204.45769465 395.14198893 C204.45703032 405.82527801 204.46254131 416.50848191 204.48405075 427.19175148 C204.50224629 436.28745708 204.50662327 445.38303889 204.4930319 454.4787548 C204.48649405 459.11975298 204.48641452 463.76051356 204.5037384 468.40148926 C204.51943807 472.65104191 204.51663742 476.90016797 204.49917014 481.14971002 C204.49609338 482.68603379 204.49975809 484.22238915 204.51089029 485.75867567 C204.61682176 501.41611976 204.61682176 501.41611976 200 507 C195.55250216 511.00242878 191.69958461 511.57244608 185.91348267 511.48101807 C185.11614696 511.48443577 184.31881125 511.48785347 183.49731386 511.49137473 C180.83459086 511.49794569 178.1728835 511.47599113 175.51025391 511.45410156 C173.59806339 511.45297291 171.68587115 511.45360729 169.77368164 511.45587158 C164.5880998 511.45701897 159.40288825 511.43350544 154.21739244 511.40557575 C148.79618235 511.38056637 143.37496372 511.37822046 137.95370483 511.37347412 C127.69027548 511.36104301 117.42701661 511.32821947 107.16366231 511.28807616 C95.47815893 511.24336275 83.79264739 511.22137248 72.10707974 511.20129442 C48.07127021 511.15948701 24.03569438 511.08613282 0 511 C0 484.27 0 457.54 0 430 C6.84878906 429.96261719 13.69757813 429.92523438 20.75390625 429.88671875 C25.09703021 429.85643687 29.4401133 429.82528751 33.78320312 429.79101562 C40.67421395 429.73672033 47.56514393 429.68560894 54.45629883 429.65356445 C60.01314159 429.6275235 65.56971238 429.58711497 71.12638664 429.53681374 C73.24458364 429.52015048 75.36282768 429.50863284 77.48108101 429.50238609 C80.45195031 429.49273934 83.42212465 429.46467243 86.39282227 429.43237305 C87.26532623 429.43380814 88.1378302 429.43524323 89.03677368 429.4367218 C94.42703264 429.35403842 98.21569382 428.53426299 103 426 C106.64885807 422.10788473 107.29649988 418.34949161 107.21875 413.0625 C106.78440568 408.96725352 105.09867869 406.02543344 102.125 403.25 C96.58949258 399.99381917 92.00076091 399.69676182 85.71166992 399.68115234 C84.78435059 399.67110672 83.85703125 399.6610611 82.90161133 399.65071106 C79.84456995 399.61988548 76.78761614 399.60284554 73.73046875 399.5859375 C71.60768379 399.56722537 69.48490626 399.54765192 67.36213684 399.5272522 C61.78089786 399.4759299 56.19963476 399.43630458 50.61828613 399.39910889 C44.92059361 399.35906995 39.22300141 399.30797707 33.52539062 399.2578125 C22.35032389 399.16105193 11.17521575 399.07766925 0 399 C0 388.44 0 377.88 0 367 C2.8359375 366.9906543 5.671875 366.98130859 8.59375 366.97167969 C17.97759423 366.93786932 27.36121948 366.88229761 36.74488831 366.81609726 C42.43263887 366.77663635 48.12023494 366.74444091 53.80810547 366.72900391 C59.30017216 366.71382844 64.79181406 366.67936643 70.28369141 366.63169098 C72.37593894 366.61688648 74.46824713 366.60895952 76.56054688 366.60811615 C79.49785322 366.605742 82.43398988 366.57862556 85.37109375 366.54589844 C86.2306517 366.5509288 87.09020966 366.55595917 87.97581482 366.56114197 C93.76841171 366.46168851 98.13663963 365.21214839 103 362 C106.85924326 357.8917733 107.35203284 353.7265867 107.28125 348.28515625 C106.73234117 343.82527201 104.36520861 341.09190024 100.95320129 338.36296082 C96.75988381 336.42766185 93.00401243 336.5603305 88.4362793 336.56762695 C87.47969925 336.5574353 86.5231192 336.54724365 85.53755188 336.53674316 C82.38304798 336.50660499 79.22884773 336.49734581 76.07421875 336.48828125 C73.88417043 336.47143521 71.69413179 336.45328507 69.50410461 336.43388367 C63.74530052 336.38636965 57.98653565 336.35656919 52.2276001 336.33044434 C46.34892023 336.30064602 40.47037551 336.25411314 34.59179688 336.20898438 C23.06126859 336.1229352 11.53071251 336.05559695 0 336 C-0.32906413 327.67948503 -0.57539531 319.36182361 -0.72537041 311.03634644 C-0.79747531 307.16718801 -0.89463509 303.30257528 -1.05615234 299.43603516 C-1.89668847 278.75558491 -0.30671206 264.73300526 12.29193115 247.39215088 C14.5893177 244.1746604 16.523421 240.80933248 18.4375 237.35546875 C19.04207031 236.30939453 19.64664062 235.26332031 20.26953125 234.18554688 C20.84058594 233.19619141 21.41164063 232.20683594 22 231.1875 C22.60199219 230.14787109 23.20398438 229.10824219 23.82421875 228.03710938 C25.55997631 225.03059655 27.28273836 222.01710895 29 219 C29.8650415 217.49638916 29.8650415 217.49638916 30.74755859 215.96240234 C31.29234863 214.99641113 31.83713867 214.03041992 32.3984375 213.03515625 C32.88489746 212.17929932 33.37135742 211.32344238 33.87255859 210.44165039 C35.9999453 205.83446233 35.91400946 201.74737348 34.33203125 196.9921875 C32.67952485 193.54285099 30.97045308 191.98271784 27.6875 190.0625 C22.26005713 188.49866053 18.79888325 188.18700357 13.5859375 190.54296875 C9.34236364 193.06561262 7.41404035 196.48625934 5.125 200.75 C3.76907185 203.17899711 2.39510272 205.59299874 1 208 C0.67 208 0.34 208 0 208 C0 139.36 0 70.72 0 0 Z " fill="#FEDB00" transform="translate(256,0)"/>
<path d="M0 0 C6.72155086 4.85596904 12.47828329 11.31818263 18.33154297 17.15454102 C19.34406517 18.16078318 20.35677085 19.16684075 21.36964417 20.17272949 C24.66400884 23.44626364 27.95322836 26.72494267 31.2421875 30.00390625 C32.3800558 31.13772144 33.51795603 32.27150459 34.6558876 33.40525627 C39.99564799 38.72602446 45.33303527 44.04915901 50.66748989 49.37524658 C56.81241548 55.51037149 62.96556034 61.63709827 69.12569511 67.75695091 C73.89975476 72.50086356 78.66612467 77.25241451 83.42679131 82.009767 C86.2656263 84.84625334 89.10766053 87.67934796 91.95788193 90.50439644 C94.63432252 93.15757102 97.30109721 95.8200919 99.960783 98.4900589 C100.93688285 99.46665428 101.91640115 100.43984692 102.89958763 101.40930748 C104.24332418 102.73532862 105.57352914 104.0750202 106.90304565 105.41529846 C107.65036894 106.16023339 108.39769222 106.90516832 109.16766167 107.67267704 C111.81794085 111.03889794 113.06635473 114.30285029 112.8984375 118.59765625 C111.56066279 124.89717745 110.15051094 128.94612905 104.53857422 132.60464478 C99.67017356 134.52438642 95.32078021 134.4191837 90.1328125 134.38818359 C89.04917419 134.39344055 87.96553589 134.39869751 86.84906006 134.40411377 C83.27422588 134.41729582 79.69983855 134.40858168 76.125 134.3984375 C73.63688064 134.40045874 71.14876186 134.4033706 68.66064453 134.40713501 C62.78179668 134.41212176 56.90311044 134.4016366 51.02428627 134.3856827 C46.34099526 134.37441908 41.65789337 134.37840383 36.97460938 134.39111328 C30.50968954 134.40850578 24.04495235 134.41122846 17.58001709 134.4014473 C15.117655 134.39944698 12.65528512 134.40189864 10.19293213 134.40888596 C6.75080787 134.41651011 3.30926826 134.40488185 -0.1328125 134.38818359 C-1.65723969 134.39729263 -1.65723969 134.39729263 -3.21246338 134.40658569 C-9.31691442 134.3517635 -13.8956565 133.76515157 -18.64453125 129.53515625 C-22.20948128 125.04021926 -23.11950747 122.01126677 -23.14044189 116.3833313 C-23.14615204 115.46094666 -23.15186218 114.53856201 -23.15774536 113.58822632 C-23.15886322 112.58345245 -23.15998108 111.57867859 -23.16113281 110.54345703 C-23.16609772 109.47961792 -23.17106262 108.41577881 -23.17617798 107.31970215 C-23.19078774 103.7990657 -23.19759919 100.27847429 -23.203125 96.7578125 C-23.20887684 94.31167601 -23.21463457 91.86553954 -23.22039795 89.41940308 C-23.23090415 84.28985382 -23.23674951 79.16032022 -23.24023438 74.03076172 C-23.24572233 67.45781615 -23.26975863 60.88507739 -23.29820633 54.31219673 C-23.31682757 49.2593017 -23.32203801 44.20645657 -23.32357025 39.15353012 C-23.32659778 36.73023216 -23.33462964 34.30693511 -23.34775543 31.88367081 C-23.36480688 28.49406417 -23.36293776 25.10496414 -23.35644531 21.71533203 C-23.3656601 20.71460663 -23.37487488 19.71388123 -23.3843689 18.68283081 C-23.34291101 11.77443229 -22.09485291 7.60441172 -17.6875 2.125 C-12.81001472 -1.61562781 -5.70279473 -1.34904822 0 0 Z " fill="#FBB300" transform="translate(347,0)"/>
<path d="M0 0 C1.22156175 -0.01064158 1.22156175 -0.01064158 2.46780151 -0.02149814 C5.18263009 -0.03902822 7.89601746 -0.02099955 10.61082458 -0.00291443 C12.5626948 -0.00805512 14.51456038 -0.01533753 16.46641541 -0.02459717 C21.75773246 -0.04309892 27.04854512 -0.03018062 32.33984113 -0.01050687 C37.87971402 0.0058886 43.41955519 -0.00293441 48.95944214 -0.00802612 C58.26112417 -0.01254568 67.56260501 0.00331528 76.86424255 0.03126526 C87.61675828 0.06332585 98.36891136 0.06329726 109.12145287 0.04605049 C119.46863829 0.0301856 129.8156908 0.03691815 140.16287041 0.0539875 C144.56507342 0.06085834 148.9671699 0.0598252 153.36937141 0.05244255 C158.55284325 0.04478007 163.73590242 0.05690487 168.91930389 0.08429146 C170.8212073 0.09117637 172.72314924 0.09127213 174.6250515 0.08407593 C177.22201134 0.07538224 179.81769739 0.09133519 182.41455078 0.11352539 C183.16659761 0.10528462 183.91864443 0.09704386 184.69348055 0.08855337 C189.81317667 0.16925939 192.69029219 1.42259994 196.64378357 4.62818909 C200.3451468 8.8165738 201.23784563 12.02304152 200.96409607 17.45240784 C200.28594503 22.05887282 198.51728161 24.8202034 195.14378357 27.94068909 C190.78097124 30.88558741 186.88201516 30.77659526 181.80654907 30.77536011 C180.5962392 30.78087514 180.5962392 30.78087514 179.36147863 30.78650159 C176.64852636 30.79754478 173.93561238 30.80138332 171.22264099 30.80519104 C169.28121824 30.81145514 167.33979669 30.81810189 165.39837646 30.82510376 C160.11733211 30.84251665 154.83629681 30.85306601 149.55523086 30.86130929 C146.25706751 30.86645814 142.95890698 30.87253388 139.66074562 30.87882042 C129.34510281 30.89787209 119.02946717 30.91210408 108.71381015 30.92043239 C96.79923962 30.93021003 84.88485462 30.95654347 72.97034949 30.99693328 C63.76517425 31.0270698 54.56005228 31.04189887 45.35482866 31.0452134 C39.85488904 31.0475664 34.35514763 31.05655966 28.85526085 31.08167458 C23.68175547 31.10491758 18.50857934 31.10920367 13.33503532 31.09891319 C11.43633684 31.09841683 9.53762234 31.10476681 7.63897324 31.11846924 C5.04624242 31.13613383 2.45470021 31.12910919 -0.13803101 31.11593628 C-0.88891536 31.12690553 -1.63979972 31.13787477 -2.41343814 31.14917642 C-7.52971187 31.08644184 -10.39955467 29.82198954 -14.35621643 26.62818909 C-17.90036412 22.59519344 -18.67153798 19.0580131 -18.56324768 13.68287659 C-18.16966112 9.77671562 -16.78820125 6.9795131 -13.92953068 4.28186566 C-9.25943041 0.67850196 -5.82263363 -0.09190935 0 0 Z " fill="#36C7E2" transform="translate(163.35621643066406,335.37181091308594)"/>
<path d="M0 0 C1.21415478 -0.0083016 1.21415478 -0.0083016 2.45283794 -0.0167709 C5.15678076 -0.0303507 7.85979625 -0.015423 10.5637207 -0.00050354 C12.5055887 -0.00428769 14.447454 -0.00978852 16.38931274 -0.01687622 C21.65790217 -0.03083552 26.92616519 -0.0196576 32.19473648 -0.00316501 C37.709254 0.01068788 43.22375261 0.00422514 48.73828125 0.0007019 C57.99883279 -0.00200002 67.2592547 0.01147395 76.51977539 0.03465271 C87.22507587 0.06126228 97.93015962 0.06300945 108.63548183 0.05126435 C118.93512685 0.04048381 129.23469348 0.04667582 139.53433228 0.06081963 C143.91698052 0.06657702 148.29957137 0.06649867 152.68222046 0.06175423 C157.8434512 0.05698068 163.00444472 0.06710194 168.16563034 0.08870888 C170.05947444 0.09427174 171.95334135 0.09474664 173.84718704 0.08975601 C176.43305559 0.08379652 179.01820051 0.0963209 181.60400391 0.11352539 C182.7272609 0.10451032 182.7272609 0.10451032 183.87320995 0.09531313 C188.58529176 0.15229316 191.79773942 1.01843633 195.80200195 3.50120544 C199.92913031 7.96296583 201.1178019 11.32915287 201.0168457 17.44261169 C200.54644048 21.949949 198.58154371 24.76164019 195.36450195 27.81370544 C190.73967215 30.85932507 186.30026216 30.65151484 180.88920593 30.65510559 C180.08626738 30.65948784 179.28332883 30.6638701 178.4560588 30.66838515 C175.76237013 30.68175234 173.06871417 30.68794728 170.375 30.69407654 C168.4449041 30.701979 166.51480967 30.71024804 164.5847168 30.71885681 C158.24439908 30.74505519 151.90407482 30.76037996 145.5637207 30.77464294 C143.38088286 30.78000308 141.19804505 30.78538059 139.01520729 30.7907753 C129.93658743 30.81239874 120.85796934 30.83113632 111.77933025 30.84239769 C98.7677196 30.85864412 85.7564072 30.89184506 72.74490899 30.94879854 C63.59575001 30.98748168 54.44667087 31.00702833 45.29743224 31.01231825 C39.83263528 31.01597324 34.36815658 31.02801098 28.9034481 31.06042099 C23.76270683 31.09047364 18.62247692 31.09682334 13.48166656 31.08503723 C11.59627947 31.08481628 9.71086883 31.09313921 7.82556343 31.11069107 C5.24834344 31.13337639 2.67297888 31.1250917 0.0957489 31.10920715 C-0.64764954 31.12308924 -1.39104799 31.13697133 -2.15697366 31.15127409 C-7.77756509 31.06610767 -11.20414978 29.24921941 -15.19799805 25.50120544 C-18.51760119 20.78951065 -19.09343685 16.10524381 -18.19799805 10.50120544 C-14.30148458 2.5583126 -8.55709319 -0.10975797 0 0 Z " fill="#36C7E2" transform="translate(163.197998046875,399.49879455566406)"/>
<path d="M0 0 C3.93792318 2.56821077 6.74612583 5.61725165 8.875 9.875 C9.26045191 15.65677863 8.9695998 18.80329477 5.875 23.875 C3.4286536 26.64450393 0.79225847 29.19468851 -1.875 31.75 C-6.63226211 36.3563788 -11.19612246 41.0080923 -15.51318359 46.03173828 C-17.75759817 48.59843475 -20.134858 50.98061337 -22.5625 53.375 C-23.42746094 54.2309375 -24.29242188 55.086875 -25.18359375 55.96875 C-25.82425781 56.5978125 -26.46492188 57.226875 -27.125 57.875 C-25.84526369 60.68967611 -24.52843206 62.71124686 -22.31518555 64.86425781 C-21.75087326 65.41873596 -21.18656097 65.97321411 -20.60514832 66.54449463 C-19.99681656 67.13309265 -19.3884848 67.72169067 -18.76171875 68.328125 C-17.46927594 69.60013332 -16.17696236 70.87227295 -14.88476562 72.14453125 C-12.85325016 74.13271882 -10.81932502 76.11835638 -8.7824707 78.10107422 C-6.81057687 80.02427635 -4.84831676 81.95693034 -2.88671875 83.890625 C-2.28445969 84.4711261 -1.68220062 85.0516272 -1.06169128 85.64971924 C3.73416623 90.38972532 9.04322619 95.89004687 9.4375 102.9375 C8.6611663 108.37183591 6.9650726 111.974934 2.8125 115.75 C-0.33278172 117.57629261 -3.23195374 118.15016193 -6.8125 118.375 C-8.02486328 118.48328125 -8.02486328 118.48328125 -9.26171875 118.59375 C-17.27607858 116.58195981 -24.29579408 106.87945943 -29.98828125 101.21484375 C-30.90208054 100.30674454 -31.81587982 99.39864532 -32.75737 98.46302795 C-34.67616816 96.55464439 -36.59270233 94.64401728 -38.50805664 92.73217773 C-40.95344192 90.29230905 -43.40799942 87.86188677 -45.86474323 85.4334631 C-48.22500675 83.09634627 -50.57464161 80.74863849 -52.92578125 78.40234375 C-53.80389969 77.53657211 -54.68201813 76.67080048 -55.58674622 75.77879333 C-65.54908558 65.77976141 -65.54908558 65.77976141 -65.5625 58.375 C-65.58183594 57.6634375 -65.60117188 56.951875 -65.62109375 56.21875 C-64.36780409 50.29769647 -59.48427364 45.96689078 -55.29296875 41.8828125 C-54.73813309 41.33317841 -54.18329742 40.78354431 -53.61164856 40.21725464 C-51.85000891 38.47328689 -50.08180564 36.73618706 -48.3125 35 C-38.66697746 25.5698199 -38.66697746 25.5698199 -29.59936523 15.59179688 C-27.20266933 12.80100939 -24.64902712 10.17643403 -22.0625 7.5625 C-21.57201172 7.05138672 -21.08152344 6.54027344 -20.57617188 6.01367188 C-14.47343265 -0.1532223 -8.49556299 -3.05840268 0 0 Z " fill="#38C8E1" transform="translate(199.125,177.125)"/>
<path d="M0 0 C6.20838286 3.01905018 10.96752233 7.54966475 15.75390625 12.42578125 C16.45845444 13.13220261 17.16300262 13.83862396 17.88890076 14.56645203 C19.36884231 16.0530773 20.84520145 17.54327671 22.31811523 19.03686523 C24.55268253 21.30254583 26.79769826 23.55742568 29.04492188 25.81054688 C30.49020661 27.26500592 31.93488818 28.72006462 33.37890625 30.17578125 C34.36982018 31.17306999 34.36982018 31.17306999 35.38075256 32.19050598 C39.24318834 36.11144168 42.93467407 40.13630505 46.52038574 44.31221008 C47.69564692 45.65282569 48.94414677 46.92916031 50.21484375 48.1796875 C53.74090189 51.64977647 55.46663203 54.08739041 55.625 59.125 C55.36794667 66.25238772 51.42622282 71.01223649 46.484375 75.7734375 C45.95032043 76.30087555 45.41626587 76.8283136 44.86602783 77.37173462 C43.16770462 79.04681475 41.45954031 80.71137609 39.75 82.375 C37.51179131 84.5664325 35.27792874 86.76222208 33.046875 88.9609375 C32.24012833 89.75493454 32.24012833 89.75493454 31.41708374 90.56497192 C27.96750911 93.98106009 24.70410581 97.49997614 21.55664062 101.19873047 C18.79893407 104.38981562 15.84308404 107.38082291 12.875 110.375 C11.98361328 111.29732422 11.98361328 111.29732422 11.07421875 112.23828125 C6.45599447 116.89728455 2.80141006 119.26854013 -3.9375 119.375 C-8.70359714 119.2615215 -11.42038255 118.31769422 -15 115 C-18.18666603 110.64488975 -18.84255436 106.13088116 -18.63671875 100.8359375 C-17.5143538 95.83693779 -14.30277434 93.00659855 -10.65771484 89.57421875 C-7.92714817 86.98118578 -5.28581265 84.29923944 -2.62866211 81.63134766 C-1.16037078 80.16130666 0.31381066 78.69711793 1.79467773 77.23974609 C5.9030935 73.18575583 9.81447027 69.03661634 13.56787109 64.65087891 C14.66238305 63.38918613 15.81893585 62.18106415 17 61 C16.6734048 57.63929817 15.34559079 55.98316655 12.98071289 53.671875 C12.34657974 53.04442383 11.71244659 52.41697266 11.05909729 51.77050781 C10.37057175 51.10374023 9.6820462 50.43697266 8.97265625 49.75 C8.26854111 49.05487305 7.56442596 48.35974609 6.838974 47.64355469 C4.5871575 45.42177695 2.32573365 43.21014219 0.0625 41 C-2.19629647 38.78902782 -4.45278582 36.57588689 -6.70326233 34.35644531 C-8.10382564 32.9756367 -9.50929984 31.59978767 -10.92015076 30.22949219 C-11.55743607 29.60204102 -12.19472137 28.97458984 -12.85131836 28.328125 C-13.41233749 27.7805957 -13.97335663 27.23306641 -14.55137634 26.66894531 C-18.32464423 22.32179986 -18.43469691 18.26219896 -18.30859375 12.69140625 C-17.86349465 8.80946604 -16.68186582 6.8193974 -14 4 C-9.57203913 0.50366456 -5.70863292 -0.90136309 0 0 Z " fill="#30A1C5" transform="translate(320,176)"/>
<path d="M0 0 C4.21176749 2.33896214 6.25515661 4.91266267 7.8125 9.4375 C9.121518 17.1325061 6.25748612 22.43787376 2.4375 28.9375 C1.8894873 29.90381348 1.34147461 30.87012695 0.77685547 31.86572266 C-0.85776764 34.73520465 -2.51823592 37.58806211 -4.1875 40.4375 C-5.03139 41.89314801 -5.87515355 43.34886935 -6.71875 44.8046875 C-8.29840974 47.5150614 -9.89411708 50.21524445 -11.5 52.91015625 C-14.1190846 57.30803581 -16.69287741 61.73161406 -19.26391602 66.15771484 C-21.05384521 69.23511991 -22.85239494 72.30735303 -24.65234375 75.37890625 C-26.96566578 79.328959 -29.24641015 83.29515574 -31.50390625 87.27734375 C-32.54386314 89.0809643 -33.58420838 90.88436101 -34.625 92.6875 C-35.08438965 93.51483643 -35.5437793 94.34217285 -36.01708984 95.19458008 C-39.06830884 100.42500543 -41.58107953 103.02933066 -47.1875 105.4375 C-52.1857379 106.51598883 -56.7704946 106.15525503 -61.125 103.375 C-64.50100638 100.52574639 -66.03825788 97.74715796 -67.1875 93.4375 C-67.13810324 85.03181734 -63.87184881 79.56547074 -59.5625 72.5 C-58.53479185 70.76841081 -57.50710714 69.03680712 -56.48091125 67.30432129 C-55.41995202 65.51752657 -54.35236768 63.73482459 -53.28369141 61.95263672 C-50.03871289 56.52817554 -46.90004921 51.04241753 -43.75 45.5625 C-43.14148193 44.51175293 -42.53296387 43.46100586 -41.90600586 42.37841797 C-38.89506982 37.17552679 -35.91049869 31.96020436 -32.98664856 26.70794678 C-31.55316458 24.13391874 -30.11131589 21.56461377 -28.66940308 18.99530029 C-27.98160972 17.76361097 -27.29815983 16.52948453 -26.61941528 15.29278564 C-20.70386519 4.51694654 -13.89380018 -6.06557694 0 0 Z " fill="#38C8E1" transform="translate(284.1875,189.5625)"/>
<path d="M0 0 C12.67397725 -0.09038439 25.34774028 -0.16376435 38.02196693 -0.20724869 C43.90718184 -0.22811943 49.79216472 -0.25642827 55.67724609 -0.30175781 C61.35715387 -0.34523301 67.03683854 -0.36914097 72.71689987 -0.37950897 C74.88344205 -0.38689727 77.04997208 -0.40132486 79.21641922 -0.42292023 C82.25213213 -0.45197586 85.28692422 -0.45595502 88.32275391 -0.45410156 C89.66495499 -0.47567322 89.66495499 -0.47567322 91.03427124 -0.49768066 C96.52591382 -0.46142299 99.64602011 0.33759817 104 4 C107.70136323 8.18838471 108.59406206 11.39485244 108.3203125 16.82421875 C107.64216146 21.43068373 105.87349805 24.19201431 102.5 27.3125 C99.24446124 29.50998866 96.79700529 30.12522252 92.95674133 30.12025452 C92.1364444 30.12162918 91.31614746 30.12300385 90.47099304 30.12442017 C89.57475723 30.12082489 88.67852142 30.11722961 87.75512695 30.11352539 C86.33532532 30.11374443 86.33532532 30.11374443 84.88684082 30.1139679 C81.75396443 30.11327047 78.62114727 30.10548599 75.48828125 30.09765625 C73.3178053 30.09579147 71.14732894 30.09436785 68.97685242 30.09336853 C63.26072022 30.08954811 57.54461338 30.07972184 51.82849121 30.06866455 C45.99699242 30.05844024 40.16548954 30.05386872 34.33398438 30.04882812 C22.88930998 30.03809918 11.44466106 30.02050619 0 30 C0 20.1 0 10.2 0 0 Z " fill="#2FA1C6" transform="translate(256,336)"/>
<path d="M0 0 C12.5435985 -0.06779008 25.08707524 -0.12282454 37.63081551 -0.15543652 C43.45544366 -0.171089 49.27993993 -0.19231994 55.10449219 -0.22631836 C60.72603527 -0.25892626 66.34745152 -0.27685616 71.96908188 -0.28463173 C74.11327994 -0.29017263 76.2574711 -0.30099263 78.40161514 -0.31719017 C81.40607934 -0.33898315 84.4100202 -0.3419661 87.41455078 -0.34057617 C88.30000076 -0.351362 89.18545074 -0.36214783 90.09773254 -0.3732605 C95.15393664 -0.3479679 98.6220027 0.18796513 103 3 C107.12712836 7.46176039 108.31579995 10.82794743 108.21484375 16.94140625 C107.74443853 21.44874355 105.77954175 24.26043475 102.5625 27.3125 C99.01126864 29.65111578 96.07436282 30.12575178 91.87445068 30.12025452 C91.06119324 30.12162918 90.24793579 30.12300385 89.41003418 30.12442017 C88.52674438 30.12082489 87.64345459 30.11722961 86.73339844 30.11352539 C85.79647156 30.11367142 84.85954468 30.11381744 83.89422607 30.1139679 C80.79925212 30.11327157 77.70433844 30.10549223 74.609375 30.09765625 C72.46274854 30.09579108 70.31612166 30.09436764 68.16949463 30.09336853 C62.52078068 30.08955118 56.87209246 30.07972754 51.22338867 30.06866455 C45.45882516 30.05843364 39.69425748 30.0538673 33.9296875 30.04882812 C22.61977855 30.0381046 11.30989544 30.0205141 0 30 C0 20.1 0 10.2 0 0 Z " fill="#2FA1C6" transform="translate(256,400)"/>
<path d="M0 0 C4.21176749 2.33896214 6.25515661 4.91266267 7.8125 9.4375 C9.12151029 17.13246078 6.25755763 22.43792421 2.4375 28.9375 C1.8902124 29.90236328 1.3429248 30.86722656 0.77905273 31.86132812 C-0.85654456 34.73211369 -2.51800751 37.58632385 -4.1875 40.4375 C-5.04327967 41.9164868 -5.89877718 43.39563693 -6.75390625 44.875 C-8.74083698 48.29200172 -10.7607951 51.68837471 -12.78808594 55.08154297 C-14.42645625 57.83979027 -16.04563047 60.6089145 -17.6640625 63.37890625 C-18.25840088 64.39339844 -18.85273926 65.40789062 -19.46508789 66.453125 C-20.64121749 68.46079802 -21.81494325 70.46988148 -22.98608398 72.48046875 C-23.78381226 73.83785156 -23.78381226 73.83785156 -24.59765625 75.22265625 C-25.07340088 76.03613525 -25.54914551 76.84961426 -26.03930664 77.68774414 C-26.60766235 78.55387329 -26.60766235 78.55387329 -27.1875 79.4375 C-27.5175 79.4375 -27.8475 79.4375 -28.1875 79.4375 C-28.39787335 71.74379294 -28.55685976 64.05039089 -28.65380955 56.35444546 C-28.70039127 52.77895047 -28.76334296 49.20545039 -28.86645508 45.63110352 C-29.66871033 17.06762997 -29.66871033 17.06762997 -21.62475586 6.00415039 C-15.26525265 -0.69298045 -9.05235213 -3.9519597 0 0 Z " fill="#30A2C5" transform="translate(284.1875,189.5625)"/>
</svg>
