<svg xmlns="http://www.w3.org/2000/svg" version="1.1" viewBox="-0.12 0 512.57 512.66">
<path d="M0 0 C15.18 0 30.36 0 46 0 C50 10 50 10 51.11328125 14.85546875 C52.02932061 17.66033808 52.59808948 18.73051251 55.07177734 20.38916016 C57.74342812 21.54812834 60.4033461 22.459507 63.1875 23.3125 C65.03646575 23.92968451 66.88414711 24.55073127 68.73046875 25.17578125 C69.54926514 25.43270752 70.36806152 25.68963379 71.21166992 25.9543457 C74.92886495 27.34833452 78.44914166 29.22457083 82 31 C91.405 26.545 91.405 26.545 101 22 C111.56 32.56 122.12 43.12 133 54 C131.17002755 59.48991735 128.93373807 63.98334699 126.14453125 69 C124.79037776 72.54945351 124.96914861 74.37944879 126 78 C126.99 79.485 126.99 79.485 128 81 C131.12970584 81.29977313 134.06247126 81.40221957 137.19515991 81.37854004 C138.16028743 81.38307017 139.12541496 81.3876003 140.11978877 81.3922677 C143.37475286 81.40395465 146.62931094 81.39421904 149.88427734 81.38476562 C152.20990262 81.38886806 154.53552584 81.39432697 156.86114502 81.40104675 C161.88123175 81.41280273 166.90120844 81.41524488 171.92130661 81.41069031 C179.19262953 81.40447193 186.46381633 81.41639202 193.73511632 81.43419749 C205.54882836 81.46287702 217.36252638 81.48036649 229.17626953 81.48876953 C229.88375712 81.48927671 230.59124471 81.48978389 231.32017131 81.49030644 C236.33844736 81.4938314 241.35672363 81.4969599 246.375 81.5 C252.09000672 81.50346538 257.80501324 81.5071159 263.52001953 81.51123047 C264.57541152 81.51198439 264.57541152 81.51198439 265.65212457 81.51275355 C277.40892156 81.52151592 289.16567065 81.54199413 300.9224354 81.57071257 C308.81204424 81.58904575 316.70148782 81.59296869 324.59111285 81.58577728 C329.51269367 81.58425122 334.43419253 81.59506683 339.35575104 81.60915565 C341.63086512 81.61314575 343.90599495 81.61205483 346.18110275 81.60538292 C360.99667127 81.56528971 374.19453832 81.62209961 387 90 C387.86625 90.556875 388.7325 91.11375 389.625 91.6875 C398.0085166 99.85039774 403.0501553 109.80635532 403.42438984 121.54188919 C403.47727587 125.84555406 403.44153945 130.14571219 403.390625 134.44921875 C403.38315125 136.31679169 403.37746368 138.18437255 403.37347412 140.05195618 C403.35830701 144.93303633 403.31910364 149.81362942 403.2746582 154.69451904 C403.22625877 160.56918017 403.20812893 166.44400547 403.18484497 172.31880951 C403.146246 181.21287692 403.06953059 190.10587869 403 199 C381.22 199 359.44 199 337 199 C337 203.95 337 208.9 337 214 C358.78 214 380.56 214 403 214 C403 279.67 403 345.34 403 413 C381.22 413 359.44 413 337 413 C337.19732476 434.50959779 337.19732476 434.50959779 337.45043945 456.01855469 C337.46505703 458.73631809 337.47779468 461.45409252 337.48828125 464.171875 C337.50134811 464.86114075 337.51441498 465.55040649 337.52787781 466.26055908 C337.77377135 479.93758312 334.59344583 490.92487489 325 501 C314.93713199 510.54012162 303.21100533 512.74789551 289.77415466 512.62818909 C288.26607693 512.63324387 286.75800523 512.64047985 285.24994713 512.64968723 C281.13651652 512.66850411 277.02368564 512.65643613 272.91027081 512.6389643 C268.46234603 512.62553655 264.01450591 512.64104664 259.56658936 512.65278625 C250.86552183 512.67112655 242.16467947 512.6626749 233.46361905 512.64469803 C226.39018469 512.6306503 219.3168113 512.6267839 212.24336433 512.6301403 C210.7310568 512.63085647 210.7310568 512.63085647 209.1881976 512.6315871 C207.13981404 512.63261347 205.09143049 512.63366883 203.04304696 512.63475286 C184.94670316 512.64331251 166.8504678 512.62666832 148.75415039 512.59692383 C131.2078801 512.56808396 113.66176601 512.56100588 96.11547852 512.57641602 C76.99161431 512.59318875 57.8678242 512.59720176 38.74395806 512.57970566 C36.70357868 512.57786134 34.66319929 512.57602661 32.6228199 512.57420158 C31.61900734 512.57328949 30.61519478 512.5723774 29.58096365 512.57143768 C22.51821613 512.56583929 15.45550487 512.56913292 8.39275932 512.57574654 C-0.21742761 512.5834894 -8.82746097 512.57669268 -17.43761701 512.5515715 C-21.82789244 512.53909908 -26.21792906 512.53290249 -30.60821342 512.54411316 C-34.63192399 512.55419356 -38.65515948 512.54561567 -42.6788125 512.52253198 C-44.12950677 512.51739571 -45.58024402 512.51889274 -47.03091926 512.52792663 C-58.36909669 512.59262609 -67.80254418 511.00758539 -77 504 C-77.825 503.443125 -78.65 502.88625 -79.5 502.3125 C-87.23922123 495.15372036 -90.75839711 486.08721299 -93 476 C-93 460.49 -93 444.98 -93 429 C-60.33 429 -27.66 429 6 429 C6.08425006 399.07798134 6.08425006 399.07798134 6.08398438 369.15625 C6.06511409 356.94968262 6.05545492 344.74361244 6.10620117 332.53710938 C6.14312109 323.64609169 6.14826604 314.75570928 6.11582941 305.86466432 C6.09976027 301.16003605 6.09921264 296.45659875 6.13676643 291.75206757 C6.17167506 287.31585464 6.1638173 282.88169277 6.12437057 278.44553757 C6.11727797 276.8251129 6.12527723 275.20453388 6.15022469 273.58428574 C6.29714379 263.33752935 4.77680148 257.00169738 -2.07039738 249.22378922 C-4 247 -4 247 -4 245 C-5.0209375 244.79697266 -5.0209375 244.79697266 -6.0625 244.58984375 C-13.30539294 242.98138215 -19.78028568 240.54149599 -26.47851562 237.42553711 C-31.55063216 234.93605561 -31.55063216 234.93605561 -37 234 C-40.58497823 235.40530762 -43.8663153 237.38099094 -47.20507812 239.28320312 C-47.89150391 239.65509766 -48.57792969 240.02699219 -49.28515625 240.41015625 C-50.21146851 240.93814819 -50.21146851 240.93814819 -51.15649414 241.47680664 C-53 242 -53 242 -54.91471863 241.2190094 C-57.01442956 239.9915648 -58.49979852 238.74172861 -60.20800781 237.01904297 C-60.80832825 236.41857147 -61.40864868 235.81809998 -62.02716064 235.19943237 C-62.66272888 234.55354156 -63.29829712 233.90765076 -63.953125 233.2421875 C-64.61334656 232.57913605 -65.27356812 231.91608459 -65.95379639 231.23294067 C-68.05727824 229.11828168 -70.15369142 226.99676788 -72.25 224.875 C-73.67662261 223.43834443 -75.10370072 222.00214102 -76.53125 220.56640625 C-80.02613661 217.04949196 -83.51470062 213.52641453 -87 210 C-86.67262344 209.40564148 -86.34524689 208.81128296 -86.00794983 208.19891357 C-80.15531933 198.60196915 -80.15531933 198.60196915 -78.18017578 187.90429688 C-79.2264378 184.69204447 -80.97848334 182.10310313 -82.86328125 179.3203125 C-85.2040057 175.68298932 -85.87989107 172.69455097 -86.8125 168.5 C-87.93963567 165.02499002 -88.75396111 162.74787211 -91.95654297 160.82568359 C-97.13951541 158.5891432 -102.52291292 157.30274845 -108 156 C-109 155 -109 155 -109.12025452 153.13340759 C-109.11803391 152.31844315 -109.11581329 151.5034787 -109.11352539 150.66381836 C-109.11344986 149.7429393 -109.11337433 148.82206024 -109.11329651 147.87327576 C-109.10813522 146.87224319 -109.10297394 145.87121063 -109.09765625 144.83984375 C-109.0962413 143.82024063 -109.09482635 142.80063751 -109.09336853 141.75013733 C-109.08775097 138.47922893 -109.0751955 135.20838787 -109.0625 131.9375 C-109.05748726 129.72591244 -109.05292396 127.51432382 -109.04882812 125.30273438 C-109.03777584 119.86846643 -109.02102063 114.43423803 -109 109 C-106.23113877 107.99422987 -103.46015896 106.99519853 -100.6875 106 C-99.90181641 105.71382813 -99.11613281 105.42765625 -98.30664062 105.1328125 C-97.1706543 104.72675781 -97.1706543 104.72675781 -96.01171875 104.3125 C-95.31522217 104.06113281 -94.61872559 103.80976562 -93.90112305 103.55078125 C-92 103 -92 103 -89 103 C-88.6596875 101.14375 -88.6596875 101.14375 -88.3125 99.25 C-86.27762639 90.07142116 -81.79489527 81.53851437 -78 73 C-80.97 66.73 -83.94 60.46 -87 54 C-76.44 43.44 -65.88 32.88 -55 22 C-48.4 24.97 -41.8 27.94 -35 31 C-28.8471947 28.82349744 -24.95431705 27.40538397 -19.75927734 24.07226562 C-15.61112476 21.54399944 -10.852317 20 -6 20 C-5.62875 18.1128125 -5.62875 18.1128125 -5.25 16.1875 C-4 11 -4 11 0 0 Z M13 17 C12.4225 19.68125 11.845 22.3625 11.25 25.125 C10.03007138 29.25413774 8.76062197 32.88027208 5.01074219 35.26513672 C0.04796119 37.24708811 -5.1844328 38.19862569 -10.39355469 39.31933594 C-14.53839626 40.40174679 -18.21733465 42.20823967 -22 44.1875 C-22.65145996 44.52144775 -23.30291992 44.85539551 -23.97412109 45.19946289 C-26.56640103 46.56514344 -28.95885968 47.96797841 -31.2734375 49.76953125 C-31.84320313 50.17558594 -32.41296875 50.58164062 -33 51 C-37.93831228 50.05936909 -42.26776391 47.33947634 -46.6328125 44.92578125 C-49.40728164 43.84071659 -50.24507229 44.03296012 -53 45 C-55.23148395 46.86290337 -57.26253443 48.70732968 -59.3125 50.75 C-59.87517578 51.2759375 -60.43785156 51.801875 -61.01757812 52.34375 C-64.17508052 55.38904813 -64.17508052 55.38904813 -65.0546875 59.515625 C-63.35006945 63.53094752 -61.22582073 67.26852494 -59.08203125 71.0625 C-58 74 -58 74 -58.65234375 76.60546875 C-59.94541443 78.90301173 -61.29671612 81.11304079 -62.75 83.3125 C-65.4310553 87.70444878 -67.38879227 92.13775186 -69.1875 96.9375 C-69.45038818 97.62545654 -69.71327637 98.31341309 -69.98413086 99.0222168 C-71.48084869 103.0891438 -72.25941788 106.81213622 -72.8125 111.125 C-73.4140625 113.71484375 -73.4140625 113.71484375 -75 116 C-80.28306013 119.07817051 -86.1357286 120.36858615 -92 122 C-92 128.6 -92 135.2 -92 142 C-86.02040274 144.49149886 -80.32098229 146.59533727 -74 148 C-73.92523438 148.6084375 -73.85046875 149.216875 -73.7734375 149.84375 C-71.77675304 163.15497972 -66.6632397 174.74918872 -59.34375 185.9140625 C-58 189 -58 189 -58.609375 192.078125 C-60.32586994 195.68469301 -62.20250766 199.1593679 -64.171875 202.6328125 C-65.22028227 204.91312346 -65.22028227 204.91312346 -64.47265625 206.94140625 C-62.43377606 209.79151199 -60.13298707 212.31505039 -57.6875 214.8125 C-57.21376953 215.32748047 -56.74003906 215.84246094 -56.25195312 216.37304688 C-53.39407188 219.307955 -53.39407188 219.307955 -49.5078125 220.05078125 C-46.50933887 218.79441146 -43.94498065 217.09532811 -41.1875 215.375 C-35.42234661 212.61945211 -35.42234661 212.61945211 -32.04541016 213.52294922 C-27.73673974 215.49006558 -23.86046931 218.17177601 -19.92822266 220.79199219 C-12.08477732 225.70581436 -3.03156264 227.67537081 6 229 C6 223.72 6 218.44 6 213 C3.628125 212.319375 1.25625 211.63875 -1.1875 210.9375 C-13.30205983 207.2465289 -23.52231579 201.41552994 -33 193 C-33.68578125 192.40832031 -34.3715625 191.81664062 -35.078125 191.20703125 C-49.97123488 177.45729005 -58.07835335 156.60284556 -59.31640625 136.6875 C-60.21218904 113.53885315 -52.39252492 92.25186661 -37 75 C-22.40880498 59.46976767 -0.8944497 50.33045184 20.29663086 49.64624023 C44.36440533 49.40745629 64.87683679 57.86158887 82.37109375 74.3515625 C85 77 85 77 86.76953125 79.81640625 C89.31843412 82.31174198 89.90817414 82.34651421 93.328125 82.48828125 C94.96946243 82.45518977 96.61044165 82.39575882 98.25 82.3125 C99.09046875 82.28994141 99.9309375 82.26738281 100.796875 82.24414062 C102.86534964 82.18537714 104.93290488 82.09569885 107 82 C106.690625 81.236875 106.38125 80.47375 106.0625 79.6875 C105.32106407 77.81210323 104.63771783 75.91315348 104 74 C105.38690758 70.96429537 106.92488265 68.09193868 108.55078125 65.18164062 C110.48434872 61.77348173 110.48434872 61.77348173 110.76196289 57.97924805 C109.90666326 55.75755176 108.98063924 54.63388221 107.27734375 52.984375 C106.73916016 52.45585938 106.20097656 51.92734375 105.64648438 51.3828125 C105.08251953 50.84398437 104.51855469 50.30515625 103.9375 49.75 C103.36966797 49.19570313 102.80183594 48.64140625 102.21679688 48.0703125 C100.81787531 46.70665786 99.40980886 45.35239583 98 44 C93.07716165 45.51912916 88.913227 47.61387895 84.46484375 50.171875 C82 51 82 51 79.66796875 50.3828125 C78.78753906 49.92648438 77.90710938 49.47015625 77 49 C76.43369873 48.71640625 75.86739746 48.4328125 75.28393555 48.140625 C73.99587203 47.49484202 72.71149861 46.84165956 71.43041992 46.18212891 C60.84928254 40.74011384 50.84866022 36.74177597 39 35 C38.72736328 33.93072266 38.72736328 33.93072266 38.44921875 32.83984375 C38.07216797 31.40318359 38.07216797 31.40318359 37.6875 29.9375 C37.44386719 28.99777344 37.20023438 28.05804688 36.94921875 27.08984375 C35.88859402 23.63735749 34.42272974 20.31970274 33 17 C26.4 17 19.8 17 13 17 Z M-25 87 C-38.39320919 103.01738696 -43.44521738 119.80995903 -42.25439453 140.42724609 C-40.55260312 157.63787742 -30.60632321 173.15024451 -17.5234375 184.06640625 C-10.37817575 189.31760655 -2.71178797 193.25764241 6 195 C6 189.72 6 184.44 6 179 C4.39125 178.195625 2.7825 177.39125 1.125 176.5625 C-10.56153124 170.13340569 -19.40576473 160.91092098 -23.875 148.1875 C-27.77765418 134.58806704 -26.77837095 120.96235107 -20.3125 108.3125 C-13.53365382 96.76520075 -4.01904387 88.23334798 9.03125 84.48828125 C17.87462577 82.29498369 26.98472288 82.4773845 35.96484375 83.87890625 C38.05931985 84.09146398 38.05931985 84.09146398 40.30957031 83.52734375 C42.93866888 83.01202135 45.40807749 82.79842612 48.08203125 82.68359375 C49.47905273 82.62075195 49.47905273 82.62075195 50.90429688 82.55664062 C51.86400391 82.51732422 52.82371094 82.47800781 53.8125 82.4375 C54.79154297 82.39431641 55.77058594 82.35113281 56.77929688 82.30664062 C59.18607027 82.2009774 61.59293983 82.09887673 64 82 C55.32042968 72.54024358 41.84924641 67.36821557 29.17578125 66.6875 C8.45368859 66.0033336 -10.54010186 71.36540994 -25 87 Z M28.5 109 C25.28264388 113.63897859 23.74934084 117.80665396 23.75390434 123.4722414 C23.74992225 124.56553267 23.74594015 125.65882393 23.74183738 126.78524524 C23.74766307 127.98076595 23.75348875 129.17628667 23.75949097 130.40803528 C23.75778212 131.68229219 23.75607327 132.95654909 23.75431263 134.26941985 C23.7498407 137.80405809 23.75784065 141.33857512 23.76786876 144.87319791 C23.77650317 148.68568821 23.7735831 152.49817163 23.77206421 156.31066895 C23.77101535 162.91532321 23.77729203 169.51993796 23.78853989 176.12458229 C23.80479182 185.67379151 23.81000258 195.22298162 23.81251587 204.77220317 C23.81689345 220.26505708 23.83020428 235.75788994 23.84912109 251.25073242 C23.86747825 266.30086158 23.88161263 281.35098498 23.89013672 296.40112305 C23.89067271 297.3382265 23.89120871 298.27532995 23.89176095 299.24083048 C23.89591977 306.56956138 23.89983363 313.89829241 23.90367007 321.22702348 C23.92253849 357.15136832 23.96277485 393.07566044 24 429 C105.51 429 187.02 429 271 429 C271 443.19 271 457.38 271 472 C274.52218755 484.32726556 274.52218755 484.32726556 283.625 491.875 C289.80371986 495.05925495 295.58235855 496.33472254 302.37890625 494.28125 C309.87019771 491.13769623 314.78720422 487.35180182 318.23828125 479.8671875 C326.66039595 459.2222089 320 435.29679702 320 413 C259.94 413 199.88 413 138 413 C138 347.33 138 281.66 138 214 C198.06 214 258.12 214 320 214 C320.17035549 182.61776603 320.17035549 182.61776603 320.29785156 151.23535156 C320.34326172 145.13232422 320.34326172 145.13232422 320.36956787 142.26507568 C320.38407455 140.28480928 320.39094928 138.30447716 320.39154053 136.32415771 C320.40863925 115.18221412 320.40863925 115.18221412 325 105 C325.67068151 103.33494489 326.33785784 101.66846935 327 100 C290.8629395 99.88550787 254.72591085 99.79742741 218.58870626 99.74467335 C214.32053044 99.73841996 210.05235498 99.73194834 205.78417969 99.7253418 C204.93447758 99.72403024 204.08477548 99.72271869 203.20932482 99.7213674 C189.45848984 99.69962218 175.70775958 99.66020554 161.95698668 99.61423602 C147.84309004 99.56744675 133.72924818 99.53969938 119.61527717 99.52955753 C110.90904374 99.52270347 102.20310632 99.50107076 93.49696402 99.46041767 C87.52348436 99.43394876 81.5501573 99.42600836 75.57662328 99.43249311 C72.13222828 99.43568962 68.68834986 99.43085643 65.24404716 99.40397263 C61.50303713 99.37904757 57.76328732 99.38509489 54.02224731 99.39872742 C52.94245546 99.38416321 51.86266361 99.369599 50.7501508 99.35459346 C41.73689762 99.44319921 34.26076145 101.76903798 28.5 109 Z M343.0625 107.9375 C338.37167019 114.90267154 336.86823985 120.65385269 336.88647461 129.00537109 C336.88655014 130.16612152 336.88662567 131.32687195 336.88670349 132.52279663 C336.89186478 133.76050812 336.89702606 134.9982196 336.90234375 136.2734375 C336.9037587 137.55231842 336.90517365 138.83119934 336.90663147 140.14883423 C336.91126978 143.53211336 336.92023919 146.91532386 336.93133545 150.29858398 C336.94160485 153.75764363 336.94619586 157.21671061 336.95117188 160.67578125 C336.96133201 167.45055923 336.98091013 174.22521777 337 181 C353.17 181 369.34 181 386 181 C386.10517799 173.09528972 386.20530426 165.19314816 386.25875092 157.28834534 C386.28503506 153.60647303 386.3200913 149.92518656 386.37719727 146.24365234 C386.43196167 142.69039575 386.46151236 139.13770327 386.47438622 135.58405685 C386.48797276 133.58446372 386.52693404 131.58509411 386.56648254 129.58584595 C386.56927916 120.39946049 384.9402433 113.65665117 378.9375 106.5625 C378.298125 106.046875 377.65875 105.53125 377 105 C376.360625 104.46375 375.72125 103.9275 375.0625 103.375 C364.93052107 96.62034738 351.07332172 98.90148384 343.0625 107.9375 Z M-1 110 C-8.36600043 118.9821693 -9.97735499 127.52559854 -9 139 C-7.27061002 147.26393067 -2.16339464 153.40773073 4 159 C4.66 159 5.32 159 6 159 C6.01458252 157.85112305 6.02916504 156.70224609 6.04418945 155.51855469 C6.1027445 151.20185263 6.1799668 146.8856415 6.26245117 142.56933594 C6.29543421 140.71134487 6.32354634 138.85326001 6.34643555 136.99511719 C6.47792575 126.59899835 6.8095332 116.99515929 10 107 C10.34285855 105.66908419 10.67976333 104.33653932 11 103 C5.89514784 103 2.61448061 106.63224162 -1 110 Z M156 232 C156 236.95 156 241.9 156 247 C231.9 247 307.8 247 386 247 C386 242.05 386 237.1 386 232 C310.1 232 234.2 232 156 232 Z M156 265 C156 308.23 156 351.46 156 396 C231.9 396 307.8 396 386 396 C386 352.77 386 309.54 386 265 C310.1 265 234.2 265 156 265 Z M-75 446 C-77.39673548 469.22426567 -77.39673548 469.22426567 -69.10546875 487.20703125 C-68.47253906 487.73683594 -67.83960938 488.26664062 -67.1875 488.8125 C-66.24970703 489.62654297 -66.24970703 489.62654297 -65.29296875 490.45703125 C-57.99135199 495.37038495 -51.74785558 495.42289059 -43.12367249 495.36076355 C-41.17297188 495.36460846 -41.17297188 495.36460846 -39.18286318 495.36853105 C-35.58427865 495.37522314 -31.98596317 495.36326113 -28.38741291 495.34819686 C-24.502701 495.33522224 -20.61800385 495.33962697 -16.73327637 495.34190369 C-10.00640847 495.34347552 -3.27962797 495.33407573 3.44721794 495.31719017 C13.17305242 495.29279254 22.8988447 495.28499412 32.62470645 495.2812262 C48.40485755 495.27466291 64.18496208 495.25470508 79.96508789 495.22631836 C95.29255948 495.19877461 110.62001842 495.17754257 125.94750977 495.16479492 C126.8925483 495.16400675 127.83758683 495.16321858 128.8112629 495.16240653 C133.55231897 495.15849137 138.29337512 495.15470026 143.03443134 495.15097082 C182.35632016 495.11987874 221.678157 495.06704628 261 495 C260.34 493.35 259.68 491.7 259 490 C255 478 255 478 254 446 C145.43 446 36.86 446 -75 446 Z " fill="#566EE9" transform="translate(109,0)"/>
<path d="M0 0 C87.45 0 174.9 0 265 0 C265 5.94 265 11.88 265 18 C177.55 18 90.1 18 0 18 C0 12.06 0 6.12 0 0 Z " fill="#3889E0" transform="translate(148,148)"/>
<path d="M0 0 C76.56 0 153.12 0 232 0 C232 5.94 232 11.88 232 18 C155.44 18 78.88 18 0 18 C0 12.06 0 6.12 0 0 Z " fill="#2E91DD" transform="translate(181,115)"/>
<path d="M0 0 C49.17 0 98.34 0 149 0 C149 5.94 149 11.88 149 18 C99.83 18 50.66 18 0 18 C0 12.06 0 6.12 0 0 Z " fill="#4280E3" transform="translate(264,181)"/>
<path d="M0 0 C33 0 66 0 100 0 C100 5.94 100 11.88 100 18 C67 18 34 18 0 18 C0 12.06 0 6.12 0 0 Z " fill="#4280E3" transform="translate(148,181)"/>
<path d="M0 0 C6.25107435 0.42954941 12.04204521 1.01401507 18 3 C14.48199371 25.75532339 10.79712423 48.48261146 7.0276413 71.19749451 C6.68676561 73.25443153 6.34714669 75.3115725 6.00787354 77.36877441 C5.36728528 81.25172013 4.72110163 85.1337227 4.07421875 89.015625 C3.87965591 90.19729248 3.68509308 91.37895996 3.4846344 92.59643555 C3.30367722 93.67610596 3.12272003 94.75577637 2.9362793 95.86816406 C2.77894821 96.81500061 2.62161713 97.76183716 2.45951843 98.73736572 C2 101 2 101 1 103 C-4.61 102.01 -10.22 101.02 -16 100 C-14.57951324 87.95329681 -12.75940101 76.02216331 -10.7421875 64.0625 C-10.43087625 62.20211494 -10.1198567 60.34168104 -9.80911255 58.48120117 C-8.99990124 53.64103195 -8.1867931 48.80152568 -7.37280273 43.9621582 C-6.53909637 39.00121691 -5.70917223 34.03964302 -4.87890625 29.078125 C-3.25625388 19.38480254 -1.62947389 9.69217791 0 0 Z " fill="#6A5DEF" transform="translate(379,279)"/>
<path d="M0 0 C3.63303084 1.69586126 5.94549046 3.73800488 8.75 6.625 C9.54921875 7.44226563 10.3484375 8.25953125 11.171875 9.1015625 C11.77515625 9.72804688 12.3784375 10.35453125 13 11 C11.41568547 14.90851199 8.73364905 17.52367356 5.7734375 20.421875 C5.26575836 20.92672424 4.75807922 21.43157349 4.23501587 21.95172119 C2.61966158 23.55592096 0.99747791 25.15300856 -0.625 26.75 C-1.72441698 27.83938107 -2.82338059 28.9292199 -3.921875 30.01953125 C-6.6093602 32.68501885 -9.30299021 35.34415143 -12 38 C-10.42780802 41.91189274 -7.73889499 44.43800205 -4.73828125 47.28125 C-3.69164143 48.29774906 -2.64543 49.31468938 -1.59960938 50.33203125 C0.0481425 51.92383104 1.69947693 53.51140476 3.35864258 55.09130859 C4.9624277 56.62276569 6.55032074 58.1693175 8.13671875 59.71875 C8.63870285 60.18865356 9.14068695 60.65855713 9.65788269 61.1427002 C11.03393555 62.49804688 11.03393555 62.49804688 13 65 C12.89499898 69.27903254 9.89204768 71.40765033 6.9375 74.25 C6.01839844 75.14203125 5.09929687 76.0340625 4.15234375 76.953125 C3.44207031 77.62859375 2.73179687 78.3040625 2 79 C-3.22948744 74.62970634 -8.10289955 70.03088196 -12.90234375 65.1953125 C-13.6249086 64.4713327 -14.34747345 63.74735291 -15.0919342 63.00143433 C-17.37616922 60.71164735 -19.65688312 58.41839007 -21.9375 56.125 C-23.49521039 54.56226839 -25.05315087 52.9997661 -26.61132812 51.4375 C-30.41021602 47.6276469 -34.20622713 43.81494621 -38 40 C-36.59490901 36.81740149 -34.93078658 34.68651534 -32.46826172 32.24121094 C-31.74766571 31.52076599 -31.0270697 30.80032104 -30.28463745 30.05804443 C-29.11893723 28.90782806 -29.11893723 28.90782806 -27.9296875 27.734375 C-27.13345978 26.94097717 -26.33723206 26.14757935 -25.51687622 25.33013916 C-22.97424052 22.79869297 -20.42473652 20.27429197 -17.875 17.75 C-16.14928247 16.03431383 -14.42401645 14.31817338 -12.69921875 12.6015625 C-8.47136968 8.39575752 -4.23786131 4.19571493 0 0 Z " fill="#6A5DEF" transform="translate(348,291)"/>
<path d="M0 0 C3.22745524 1.41901662 5.37258107 3.12855765 7.85058594 5.62353516 C8.59105164 6.36415192 9.33151733 7.10476868 10.09442139 7.86782837 C10.88310608 8.66683563 11.67179077 9.4658429 12.484375 10.2890625 C13.29996887 11.10748627 14.11556274 11.92591003 14.95587158 12.76913452 C17.55864562 15.38309973 20.15437762 18.00393505 22.75 20.625 C24.5138634 22.39889454 26.2781809 24.17233766 28.04296875 25.9453125 C32.36726136 30.29165142 36.6857933 34.64365081 41 39 C36.62970634 44.22948744 32.03088196 49.10289955 27.1953125 53.90234375 C26.4713327 54.6249086 25.74735291 55.34747345 25.00143433 56.0919342 C22.71164735 58.37616922 20.41839007 60.65688312 18.125 62.9375 C16.56226839 64.49521039 14.9997661 66.05315087 13.4375 67.61132812 C9.6276469 71.41021602 5.81494621 75.20622713 2 79 C0.95203782 78.15356901 -0.08792692 77.29723808 -1.125 76.4375 C-1.99511719 75.72400391 -1.99511719 75.72400391 -2.8828125 74.99609375 C-5.82159088 72.22540048 -8.37148276 69.06660344 -11 66 C-2.42 57.42 6.16 48.84 15 40 C11.38095567 35.77778161 7.94860025 31.82555739 4.0390625 27.94140625 C3.15605469 27.06162109 2.27304687 26.18183594 1.36328125 25.27539062 C0.45964844 24.38013672 -0.44398438 23.48488281 -1.375 22.5625 C-2.30183594 21.64017578 -3.22867187 20.71785156 -4.18359375 19.76757812 C-6.45345846 17.50941375 -8.72563538 15.25363058 -11 13 C-10.60022949 12.53456787 -10.20045898 12.06913574 -9.78857422 11.58959961 C-9.2576416 10.97093018 -8.72670898 10.35226074 -8.1796875 9.71484375 C-7.65616699 9.10503662 -7.13264648 8.49522949 -6.59326172 7.86694336 C-4.37185918 5.26396064 -2.18437727 2.63410201 0 0 Z " fill="#6A5DEF" transform="translate(409,291)"/>
<path d="M0 0 C27.72 0 55.44 0 84 0 C84 5.94 84 11.88 84 18 C56.28 18 28.56 18 0 18 C0 12.06 0 6.12 0 0 Z " fill="#5E67EB" transform="translate(148,280)"/>
<path d="M0 0 C27.72 0 55.44 0 84 0 C84 5.94 84 11.88 84 18 C56.28 18 28.56 18 0 18 C0 12.06 0 6.12 0 0 Z " fill="#5570E9" transform="translate(148,247)"/>
<path d="M0 0 C27.72 0 55.44 0 84 0 C84 5.94 84 11.88 84 18 C56.28 18 28.56 18 0 18 C0 12.06 0 6.12 0 0 Z " fill="#4B78E6" transform="translate(148,214)"/>
<path d="M0 0 C5.94 0 11.88 0 18 0 C18 5.94 18 11.88 18 18 C12.06 18 6.12 18 0 18 C0 12.06 0 6.12 0 0 Z " fill="#2E91DD" transform="translate(148,115)"/>
</svg>