<svg xmlns="http://www.w3.org/2000/svg" version="1.1" viewBox="89.62 47.34 332.78 417.32">
<path d="M0 0 C2.17109256 -0.00514511 4.34218094 -0.01243084 6.51325989 -0.02168274 C12.38102805 -0.04012812 18.24833926 -0.02730172 24.11608815 -0.00759244 C30.27152447 0.00884992 36.42693313 -0.0000265 42.5823822 -0.00511169 C52.91599791 -0.00962606 63.24943222 0.00619741 73.58300781 0.03417969 C85.51305851 0.0662369 97.44278227 0.06621028 109.3728562 0.04896492 C120.87279787 0.03307686 132.37262021 0.03984756 143.87255669 0.05690193 C148.75627271 0.06375656 153.63989263 0.0627563 158.52360725 0.05535698 C164.27840429 0.04767078 170.03283121 0.05989676 175.78756523 0.08720589 C177.8937813 0.09406595 180.00003209 0.09421337 182.10624695 0.08699036 C207.61464045 0.00962111 207.61464045 0.00962111 216.34619141 8.62133789 C217.16477631 9.4117749 217.98336121 10.20221191 218.82675171 11.01660156 C219.68692902 11.87938721 220.54710632 12.74217285 221.43334961 13.63110352 C222.38959443 14.56102962 223.34763411 15.48911295 224.30728149 16.41552734 C227.50583789 19.51441639 230.66910598 22.64798795 233.82788086 25.78735352 C234.39719519 26.35259232 234.96650951 26.91783112 235.55307579 27.50019836 C238.55733408 30.48379527 241.5584483 33.47051458 244.55712891 36.4597168 C247.63279381 39.52426238 250.71998109 42.57692879 253.8097887 45.6272049 C256.20753031 47.99870884 258.59625454 50.37914503 260.98270226 52.76200867 C262.11671436 53.89118606 263.25406939 55.01701753 264.39496803 56.13923645 C274.84025527 66.42381952 281.34499601 75.28274237 281.6878252 90.39581203 C281.70003913 92.60892964 281.70142022 94.82212403 281.69404602 97.03526306 C281.69787157 98.26096294 281.70169711 99.48666281 281.70563859 100.7495051 C281.71413804 104.13041205 281.71374791 107.51110018 281.70945799 110.89200056 C281.70698291 114.54647601 281.71601456 118.20092632 281.72349548 121.85539246 C281.73622239 129.0063792 281.73803872 136.15732835 281.73569522 143.30832451 C281.73390981 149.12229243 281.73566647 154.93624897 281.73991966 160.75021553 C281.74051485 161.57871726 281.74111004 162.407219 281.74172327 163.26082684 C281.74293506 164.94409573 281.74414919 166.62736461 281.74536564 168.31063349 C281.75623324 184.08374221 281.75408226 199.85682953 281.7479808 215.62993944 C281.74281117 230.04945911 281.75406967 244.46891123 281.77307902 258.88841753 C281.79246514 273.70773976 281.80071213 288.52703005 281.79695576 303.34636503 C281.79504505 311.66097046 281.79751877 319.97551839 281.8116703 328.29011345 C281.82359488 335.36765479 281.82497686 342.44510323 281.81288014 349.52264588 C281.80699927 353.13100749 281.80586998 356.73919924 281.81788254 360.34754944 C281.83077257 364.26510347 281.82025819 368.18240134 281.80757141 372.09996033 C281.8149457 373.23197732 281.82231998 374.36399432 281.82991773 375.53031486 C281.74917206 387.40011882 278.56692882 397.57817351 270.68725586 406.63891602 C262.28784433 414.70654206 252.0163412 417.39056092 240.65548706 417.2592926 C238.97235088 417.26993418 238.97235088 417.26993418 237.25521195 417.28079075 C233.52891424 417.29826676 229.80367399 417.28031782 226.07739258 417.26220703 C223.39234559 417.26734976 220.70736761 417.27444603 218.02233887 417.28388977 C211.50734567 417.30219681 204.99265388 417.29380135 198.4776703 417.27580155 C193.18053803 417.26173539 187.88348719 417.25789134 182.58633804 417.26124382 C181.45243424 417.26195998 181.45243424 417.26195998 180.29562328 417.26269061 C178.75964098 417.26371701 177.2236587 417.26477237 175.68767644 417.26585638 C162.12904521 417.2744091 148.57055886 417.2577937 135.01196289 417.22802734 C121.8725781 417.19918196 108.73340192 417.19211365 95.59399414 417.20751953 C81.26303742 417.22429964 66.93217957 417.22829836 52.60122025 417.21080917 C51.07172339 417.2089649 49.54222652 417.20713017 48.01272964 417.2053051 C47.26031041 417.20439301 46.50789117 417.20348092 45.73267134 417.20254119 C40.44428049 417.19694791 35.15593811 417.20023156 29.8675499 417.20685005 C23.41951197 417.21460003 16.97167898 417.20777067 10.52368222 417.18267501 C7.23725723 417.17021955 3.9512141 417.16614912 0.66476822 417.17521667 C-2.90473909 417.18392926 -6.4733247 417.16792291 -10.04275513 417.14576721 C-11.07156111 417.15400798 -12.10036709 417.16224875 -13.16034901 417.17073923 C-23.98428029 417.04707398 -32.81361646 413.19105422 -40.56665039 405.63110352 C-47.15356512 397.50532443 -50.68575765 389.04313381 -50.69807816 378.54648304 C-50.7019193 377.31653954 -50.70576045 376.08659605 -50.70971799 374.81938154 C-50.7089378 373.45753461 -50.70805903 372.09568774 -50.70709229 370.73384094 C-50.70967677 369.28472206 -50.71269016 367.83560389 -50.71609569 366.38648671 C-50.72415921 362.40373203 -50.7259549 358.42099537 -50.72669315 354.43823349 C-50.72854484 350.14292488 -50.73609276 345.8476256 -50.74282837 341.55232239 C-50.75640764 332.15968588 -50.76243578 322.76705365 -50.76683903 313.37440896 C-50.76960215 307.50895043 -50.77383963 301.64349354 -50.7783432 295.77803612 C-50.79053536 279.53644699 -50.80083476 263.29485918 -50.80421829 247.05326557 C-50.80443786 246.01385764 -50.80465742 244.9744497 -50.80488364 243.90354456 C-50.80510192 242.86165796 -50.8053202 241.81977136 -50.80554509 240.74631244 C-50.80598856 238.63507418 -50.80643512 236.52383592 -50.80688477 234.41259766 C-50.8071062 233.36535187 -50.80732763 232.31810608 -50.80755576 231.23912557 C-50.81150344 214.2715473 -50.82895677 197.30401199 -50.85224429 180.33645032 C-50.8759634 162.91371083 -50.8884204 145.4909929 -50.88958621 128.06823701 C-50.89050266 118.28698175 -50.89624735 108.50578245 -50.91440582 98.72454262 C-50.92981435 90.39526944 -50.93492282 82.06606952 -50.92666772 73.73678479 C-50.92276389 69.48847197 -50.92367778 65.24030665 -50.93772507 60.99201202 C-50.9504799 57.09892911 -50.94925269 53.20610432 -50.93713436 49.31302168 C-50.93518009 47.90855858 -50.93824327 46.5040771 -50.94697872 45.09963981 C-51.0241326 31.85093968 -48.70740333 20.84217065 -39.82055664 10.62329102 C-28.3636465 -0.38105926 -14.86446734 -0.0897397 0 0 Z M-16.56665039 34.63110352 C-17.89224456 37.28229185 -17.69327783 39.27065334 -17.69528484 42.24119473 C-17.69850929 43.4416148 -17.70173374 44.64203488 -17.70505589 45.87883133 C-17.70358453 47.22288615 -17.7020168 48.56694087 -17.70036316 49.91099548 C-17.70222986 51.32951546 -17.70452999 52.74803492 -17.70722848 54.16655356 C-17.71337032 58.07839025 -17.7132101 61.99020566 -17.71203411 65.90204608 C-17.7118307 70.11547165 -17.71734308 74.32889026 -17.72209167 78.54231262 C-17.73041172 86.80216325 -17.73314712 95.06200674 -17.73370405 103.3218612 C-17.73417855 110.03279277 -17.73622998 116.74372197 -17.73940468 123.45465279 C-17.74821476 142.46375047 -17.75282347 161.47284249 -17.7520742 180.48194223 C-17.75203425 181.50754973 -17.75199429 182.53315723 -17.75195312 183.58984375 C-17.75191224 184.6166973 -17.75187136 185.64355084 -17.75182924 186.70152117 C-17.75142262 203.35068266 -17.76099535 219.99982155 -17.77509149 236.6489765 C-17.78943709 253.72693332 -17.79636269 270.80487911 -17.79549772 287.88284212 C-17.79516513 297.47778659 -17.7979392 307.07270736 -17.80867577 316.66764641 C-17.8177569 324.83578612 -17.81997575 333.0038914 -17.81316634 341.17203396 C-17.80988907 345.34246738 -17.80988767 349.51283464 -17.81851959 353.68326187 C-17.82633254 357.4971014 -17.82500703 361.31082174 -17.81623546 365.12465817 C-17.8146889 366.50822322 -17.81655964 367.89179692 -17.82209554 369.27535176 C-17.82909751 371.14861308 -17.82270024 373.02191044 -17.81553936 374.89517117 C-17.81575673 375.93793821 -17.8159741 376.98070525 -17.81619805 378.05507129 C-17.74797739 380.8703251 -17.74797739 380.8703251 -15.56665039 383.63110352 C-12.77125165 384.5629031 -11.09796286 384.7571114 -8.21063328 384.75973797 C-7.31537766 384.76296241 -6.42012204 384.76618686 -5.49773747 384.76950902 C-4.02081383 384.76718611 -4.02081383 384.76718611 -2.51405334 384.76481628 C-1.46892293 384.76708184 -0.42379251 384.7693474 0.65300852 384.77168161 C4.1721665 384.77803644 7.69128612 384.77719129 11.21044922 384.77636719 C13.72653758 384.77935773 16.24262548 384.78276002 18.75871277 384.7865448 C24.89382606 384.79447856 31.02892518 384.79759989 37.16404312 384.79815718 C42.14963714 384.79863204 47.13522798 384.80068527 52.120821 384.8038578 C66.24924278 384.81266563 80.37765696 384.81727694 94.50608151 384.81652733 C95.26800528 384.81648737 96.02992904 384.81644742 96.81494141 384.81640625 C97.57779304 384.81636537 98.34064468 384.81632449 99.12661303 384.81628237 C111.49419823 384.81587578 123.861753 384.82544826 136.2293294 384.83954462 C148.92174515 384.85389734 161.61414604 384.86081542 174.30657011 384.85995084 C181.43504945 384.85961851 188.56349688 384.86238155 195.69196892 384.87312889 C202.39367963 384.88316792 209.09531165 384.88290987 215.7970295 384.87561226 C218.26095299 384.87456268 220.72488063 384.87695125 223.188797 384.88297272 C226.54386818 384.89064295 229.89870314 384.88608085 233.25376892 384.87834167 C234.72734648 384.88605702 234.72734648 384.88605702 236.23069328 384.89392823 C237.12855665 384.88932943 238.02642001 384.88473064 238.95149136 384.87999249 C240.11327456 384.88031854 240.11327456 384.88031854 241.29852813 384.88065118 C243.74783354 384.59434226 245.3455088 383.93067957 247.43334961 382.63110352 C248.62990587 380.23799099 248.61739056 378.63439154 248.70723629 375.95995712 C248.74252908 374.96864186 248.77782186 373.9773266 248.81418413 372.95597148 C248.84810575 371.85858378 248.88202738 370.76119607 248.91697693 369.6305542 C248.9754094 367.89042049 248.9754094 367.89042049 249.03502232 366.11513257 C249.14132746 362.88336224 249.24271497 359.6514878 249.34100378 356.41946483 C249.40419155 354.35197174 249.46906254 352.28453713 249.53429985 350.21710777 C250.36027737 323.89671148 250.880669 297.57194762 251.27459481 271.24179129 C251.33944784 266.91563855 251.40656578 262.58952369 251.47509766 258.26342773 C251.48869692 257.40247337 251.50229618 256.54151901 251.51630754 255.65447512 C251.71258325 243.54421914 252.03939045 231.44363174 252.470733 219.33955711 C253.2120288 198.53717166 253.71456565 177.7445341 253.74194336 156.92797852 C253.74347284 156.12741036 253.74500233 155.3268422 253.74657816 154.5020144 C254.35119128 102.2072677 254.35119128 102.2072677 229.01661682 58.15142822 C216.87228416 46.48708329 200.81343205 32.46283006 183.35487366 32.49739075 C182.52208796 32.49512519 181.68930227 32.49285963 180.83128065 32.49052542 C178.03073564 32.48417712 175.23023892 32.48501532 172.4296875 32.48583984 C170.42590777 32.48284889 168.42212861 32.47944651 166.41835022 32.47566223 C160.96801682 32.46681205 155.5176991 32.4644837 150.06735921 32.46384645 C145.52191865 32.46289817 140.97648176 32.45922086 136.43104261 32.45567435 C125.71021142 32.4475261 114.98938862 32.44509047 104.26855469 32.44580078 C93.19807373 32.44640184 82.12764146 32.43584516 71.05717283 32.42005712 C61.56158469 32.40699611 52.0660125 32.40161627 42.57041544 32.40225619 C36.895107 32.40251158 31.21984183 32.39963782 25.54454231 32.38907814 C20.20859913 32.37942122 14.87274078 32.3793014 9.53679466 32.38659477 C7.57598879 32.38764358 5.6151777 32.38526026 3.6543808 32.37923431 C0.98242277 32.37155325 -1.68923945 32.37613331 -4.3611908 32.38386536 C-5.53127439 32.37615001 -5.53127439 32.37615001 -6.72499603 32.3682788 C-11.96061861 32.40098377 -11.96061861 32.40098377 -16.56665039 34.63110352 Z " fill="#901BB0" transform="translate(140.566650390625,47.368896484375)"/>
<path d="M0 0 C1.0856866 -0.00551503 1.0856866 -0.00551503 2.19330627 -0.01114148 C4.62520062 -0.0221783 7.05705224 -0.02602216 9.4889679 -0.02983093 C11.23010392 -0.03609563 12.97123861 -0.04274243 14.71237183 -0.04974365 C20.43647836 -0.07078714 26.16058516 -0.08114685 31.88471985 -0.09111023 C33.85548733 -0.09515779 35.82625467 -0.09927471 37.79702187 -0.10346031 C47.05654317 -0.12251324 56.31605651 -0.13674361 65.57559365 -0.14507228 C76.26196286 -0.15484311 86.94812485 -0.18115819 97.63442105 -0.22157317 C105.89526186 -0.2517423 114.1560433 -0.26654195 122.41693813 -0.26985329 C127.35021296 -0.27220303 132.28326645 -0.28115353 137.21648216 -0.30631447 C141.85978355 -0.32961384 146.50271814 -0.33382091 151.14606285 -0.32355309 C152.84719056 -0.32305805 154.54833643 -0.32936885 156.24940872 -0.34310913 C172.34226993 -0.4657896 172.34226993 -0.4657896 178.9355011 4.14717102 C182.85332057 8.88979459 185.03185972 13.44912967 184.8105011 19.64717102 C183.44394121 25.11341056 181.44758553 28.12390886 176.76661777 31.29162693 C172.99004668 33.35717369 169.5166412 33.70848389 165.26263428 33.64837646 C164.15132844 33.65667806 164.15132844 33.65667806 163.01757199 33.66514736 C160.55163442 33.67868799 158.08672065 33.66382149 155.62080383 33.64888 C153.84627352 33.65266556 152.07174616 33.65816755 150.29722595 33.66525269 C145.48941356 33.67919268 140.68195962 33.66804818 135.8741672 33.65154147 C130.83878736 33.63767281 125.80342794 33.64415304 120.76803589 33.64767456 C112.31378922 33.65037499 103.85968466 33.63691454 95.4054718 33.61372375 C85.6345655 33.58710649 75.86389664 33.58537029 66.0929665 33.59711212 C56.68765951 33.60789458 47.28243832 33.6016997 37.87713814 33.58755684 C33.87686698 33.58180198 29.87665871 33.58187578 25.87638664 33.58662224 C21.16573965 33.59139776 16.45535239 33.58126647 11.74475479 33.55966759 C10.01700402 33.55410771 8.28922825 33.55362709 6.56147575 33.55862045 C4.20115795 33.56458608 1.84163091 33.55204439 -0.51861572 33.53485107 C-1.20062548 33.54086112 -1.88263523 33.54687117 -2.58531195 33.55306333 C-7.12163937 33.49306506 -10.19996654 32.49890772 -14.0644989 30.14717102 C-17.94898688 26.04687816 -19.80520498 22.43760067 -20.4394989 16.83467102 C-19.97285128 12.24596942 -18.73664463 8.90615278 -16.0644989 5.14717102 C-10.67039055 0.85390111 -6.77654705 0.02228546 0 0 Z " fill="#6A25A6" transform="translate(174.0644989013672,345.8528289794922)"/>
<path d="M0 0 C1.0856866 -0.00551503 1.0856866 -0.00551503 2.19330627 -0.01114148 C4.62520062 -0.0221783 7.05705224 -0.02602216 9.4889679 -0.02983093 C11.23010392 -0.03609563 12.97123861 -0.04274243 14.71237183 -0.04974365 C20.43647836 -0.07078714 26.16058516 -0.08114685 31.88471985 -0.09111023 C33.85548733 -0.09515779 35.82625467 -0.09927471 37.79702187 -0.10346031 C47.05654317 -0.12251324 56.31605651 -0.13674361 65.57559365 -0.14507228 C76.26196286 -0.15484311 86.94812485 -0.18115819 97.63442105 -0.22157317 C105.89526186 -0.2517423 114.1560433 -0.26654195 122.41693813 -0.26985329 C127.35021296 -0.27220303 132.28326645 -0.28115353 137.21648216 -0.30631447 C141.85978355 -0.32961384 146.50271814 -0.33382091 151.14606285 -0.32355309 C152.84719056 -0.32305805 154.54833643 -0.32936885 156.24940872 -0.34310913 C172.34226993 -0.4657896 172.34226993 -0.4657896 178.9355011 4.14717102 C182.85332057 8.88979459 185.03185972 13.44912967 184.8105011 19.64717102 C183.44394121 25.11341056 181.44758553 28.12390886 176.76661777 31.29162693 C172.99004668 33.35717369 169.5166412 33.70848389 165.26263428 33.64837646 C164.15132844 33.65667806 164.15132844 33.65667806 163.01757199 33.66514736 C160.55163442 33.67868799 158.08672065 33.66382149 155.62080383 33.64888 C153.84627352 33.65266556 152.07174616 33.65816755 150.29722595 33.66525269 C145.48941356 33.67919268 140.68195962 33.66804818 135.8741672 33.65154147 C130.83878736 33.63767281 125.80342794 33.64415304 120.76803589 33.64767456 C112.31378922 33.65037499 103.85968466 33.63691454 95.4054718 33.61372375 C85.6345655 33.58710649 75.86389664 33.58537029 66.0929665 33.59711212 C56.68765951 33.60789458 47.28243832 33.6016997 37.87713814 33.58755684 C33.87686698 33.58180198 29.87665871 33.58187578 25.87638664 33.58662224 C21.16573965 33.59139776 16.45535239 33.58126647 11.74475479 33.55966759 C10.01700402 33.55410771 8.28922825 33.55362709 6.56147575 33.55862045 C4.20115795 33.56458608 1.84163091 33.55204439 -0.51861572 33.53485107 C-1.20062548 33.54086112 -1.88263523 33.54687117 -2.58531195 33.55306333 C-7.12163937 33.49306506 -10.19996654 32.49890772 -14.0644989 30.14717102 C-17.94898688 26.04687816 -19.80520498 22.43760067 -20.4394989 16.83467102 C-19.97285128 12.24596942 -18.73664463 8.90615278 -16.0644989 5.14717102 C-10.67039055 0.85390111 -6.77654705 0.02228546 0 0 Z " fill="#7E20AB" transform="translate(174.0644989013672,281.8528289794922)"/>
<path d="M0 0 C2.85826988 2.63476002 5.59742088 5.36448787 8.3052063 8.15145874 C9.31756363 9.16926776 10.33126507 10.18574145 11.34623718 11.20094299 C13.46066274 13.32306493 15.56300989 15.45621838 17.65652466 17.59896851 C20.33494856 20.33981179 23.03487002 23.05816041 25.74319363 25.76942921 C27.83328159 27.86422482 29.91521632 29.96696356 31.99443245 32.07254601 C32.98751975 33.07765613 33.98226796 34.08112812 34.97872734 35.08289528 C36.36923198 36.48465624 37.74848178 37.89755444 39.12722778 39.31088257 C39.91282578 40.11093216 40.69842377 40.91098175 41.50782776 41.73527527 C44.95720275 45.91501356 45.65388135 49.53307399 45.7973938 54.90927124 C44.87824175 60.37476674 41.65634141 64.22245405 37.84255981 68.03329468 C36.45080284 69.43439484 36.45080284 69.43439484 35.03092957 70.86380005 C34.02109914 71.86494345 33.01095462 72.86577011 32.0005188 73.86630249 C30.96012603 74.90617603 29.92025268 75.9465695 28.88087463 76.98745728 C26.7075873 79.16065517 24.52925152 81.32861802 22.34695435 83.49276733 C19.55308569 86.26390752 16.77047094 89.04603033 13.9913187 91.83192062 C11.84784711 93.97873601 9.69941394 96.1205282 7.54936028 98.26074982 C6.52140498 99.28486313 5.49478605 100.31031967 4.46954536 101.33715057 C3.03631108 102.77075647 1.59583669 104.19711305 0.15505981 105.62313843 C-0.66195908 106.43554993 -1.47897797 107.24796143 -2.320755 108.08499146 C-6.80102632 112.04503036 -10.26673554 112.45661342 -16.09713745 112.31942749 C-20.8231478 111.84084416 -23.60017238 110.0887934 -26.81588745 106.69442749 C-30.09734427 101.77224227 -31.17206503 98.03017368 -30.56588745 92.06942749 C-27.68132019 82.60262621 -19.19680318 76.43128514 -11.9604187 70.24130249 C-6.27633588 65.08575591 -0.9565628 59.5282434 4.43411255 54.06942749 C2.87285433 50.30074178 0.53146622 47.95080231 -2.36276245 45.11239624 C-2.8340155 44.64634476 -3.30526855 44.18029327 -3.790802 43.70011902 C-5.29446584 42.21419629 -6.80463444 40.73512787 -8.31588745 39.25692749 C-26.65494902 21.2593478 -26.65494902 21.2593478 -26.87838745 12.75692749 C-26.81827394 7.69403388 -26.10462407 4.88753805 -22.56588745 1.06942749 C-15.3219039 -4.63328296 -7.64902231 -5.75512078 0 0 Z " fill="#BE10BB" transform="translate(322.5658874511719,138.93057250976563)"/>
<path d="M0 0 C2.90998504 2.29250041 4.81334124 4.4669381 6.1640625 7.88671875 C6.46484375 10.5078125 6.46484375 10.5078125 6.4765625 13.32421875 C6.49332031 14.25105469 6.51007813 15.17789063 6.52734375 16.1328125 C5.77059199 21.8694791 1.80416142 25.62777911 -2.0234375 29.69921875 C-2.53229492 30.24602295 -3.04115234 30.79282715 -3.56542969 31.35620117 C-10.46984452 38.71344869 -17.65802476 45.79791303 -24.8359375 52.88671875 C-23.27827823 56.63982757 -20.9579431 58.98089788 -18.07421875 61.80859375 C-17.60533737 62.27227356 -17.13645599 62.73595337 -16.65336609 63.21368408 C-15.15642152 64.692889 -13.65298001 66.16524576 -12.1484375 67.63671875 C8.40749982 87.80658179 8.40749982 87.80658179 8.6015625 96.69921875 C8.51099498 101.65024302 7.92128215 104.79960857 4.63671875 108.55078125 C0.0537342 112.70828978 -4.36689007 113.43211844 -10.36328125 113.2421875 C-14.35068564 112.66895875 -16.61022494 111.30600317 -19.8359375 108.88671875 C-20.14426514 108.26756088 -20.45259277 107.64840302 -20.77026367 107.01048279 C-22.09558948 104.36926254 -23.77848868 102.72606505 -25.88671875 100.65649414 C-27.13811646 99.41984764 -27.13811646 99.41984764 -28.41479492 98.15821838 C-29.31689697 97.27585007 -30.21899902 96.39348175 -31.1484375 95.484375 C-32.56117505 94.08683173 -33.97390406 92.6892797 -35.38612366 91.29121304 C-38.86650366 87.84909046 -42.35805437 84.41831094 -45.85058594 80.98852539 C-47.81161547 79.06198235 -49.76854385 77.13143136 -51.72143555 75.19664001 C-53.56010251 73.37584587 -55.40513025 71.56144796 -57.25708008 69.75416565 C-58.50847778 68.51279091 -58.50847778 68.51279091 -59.78515625 67.24633789 C-60.52080811 66.52338028 -61.25645996 65.80042267 -62.0144043 65.05555725 C-65.42882663 60.99011908 -66.05906029 57.2974267 -66.19921875 52.046875 C-65.3015088 46.70887928 -62.18463861 42.85596637 -58.47558594 39.10644531 C-57.59747253 38.21242004 -56.71935913 37.31839478 -55.81463623 36.39727783 C-54.85872708 35.44010145 -53.90227228 34.48346974 -52.9453125 33.52734375 C-51.95716718 32.53208847 -50.969318 31.53653908 -49.98175049 30.54071045 C-47.9156708 28.46122405 -45.84379464 26.38772448 -43.76806641 24.31787109 C-41.11713739 21.67284275 -38.48493111 19.01000695 -35.85723495 16.34192276 C-33.82405915 14.28282492 -31.77944622 12.23538355 -29.73145294 10.19103241 C-28.75633216 9.21422545 -27.78515987 8.23345931 -26.81816864 7.24860382 C-18.84274333 -0.85785793 -11.1073661 -6.73531774 0 0 Z " fill="#891DAE" transform="translate(209.8359375,138.11328125)"/>
<path d="M0 0 C5.65134314 1.98843555 8.49495092 5.14040676 11.25 10.375 C13.01347185 16.54715147 11.67449875 22.32247337 10.13574219 28.36279297 C9.83814247 29.57159119 9.83814247 29.57159119 9.53453064 30.80480957 C8.88021628 33.45272592 8.21397983 36.097467 7.546875 38.7421875 C7.08515121 40.59380303 6.62391628 42.44554052 6.16314697 44.2973938 C5.19663473 48.17374604 4.22420162 52.0485515 3.24755859 55.92236328 C2.00126875 60.86772259 0.76975534 65.81661924 -0.45729446 70.76678276 C-1.4070414 74.59117342 -2.36468865 78.4135524 -3.32466888 82.23538589 C-3.78155508 84.05828688 -4.23602872 85.88179442 -4.68796539 87.7059288 C-10.58245271 111.45036486 -10.58245271 111.45036486 -16.5625 116.0625 C-21.55180972 118.74332314 -26.48009126 118.87329899 -32 118 C-36.26498677 116.66227352 -38.67882144 114.41176739 -41.4375 110.875 C-44.85247916 103.79263018 -43.14426782 97.04876264 -41 89.81640625 C-38.6226551 81.52781791 -36.52473755 73.17740923 -34.47750664 64.80267906 C-33.93085342 62.56691728 -33.38199658 60.33170699 -32.83253479 58.09663391 C-31.3111984 51.90504212 -29.79074925 45.71328999 -28.2902832 39.51660156 C-27.3610714 35.68075179 -26.42029419 31.84789912 -25.47191048 28.01674652 C-25.11641093 26.57140046 -24.76516253 25.12500135 -24.41842461 23.67752838 C-23.93498957 21.66138439 -23.43684161 19.64940045 -22.93530273 17.63769531 C-22.65726303 16.49729797 -22.37922333 15.35690063 -22.09275818 14.1819458 C-18.27300762 3.05941249 -11.11938679 -0.94087119 0 0 Z " fill="#A416B5" transform="translate(272,133)"/>
</svg>