<?xml version="1.0" encoding="UTF-8"?>
<svg version="1.1" xmlns="http://www.w3.org/2000/svg" width="512" height="512">
<path d="M0 0 C1.25951981 -0.01043099 2.51903961 -0.02086198 3.81672668 -0.03160906 C5.21709418 -0.02296054 6.61745937 -0.0139339 8.01782227 -0.00457001 C9.50335807 -0.00917738 10.98888933 -0.0155292 12.47441101 -0.02347898 C16.56234127 -0.04021816 20.6498993 -0.03190531 24.73783112 -0.01953411 C29.14417579 -0.01050461 33.55045528 -0.02444288 37.95678711 -0.0354538 C46.59106313 -0.05326612 55.22520029 -0.04938698 63.85948181 -0.03780323 C70.87500145 -0.02877984 77.89048209 -0.02754016 84.90600586 -0.0318985 C85.90343905 -0.03251143 86.90087225 -0.03312436 87.92853069 -0.03375587 C89.95462164 -0.03503473 91.98071258 -0.03633159 94.00680351 -0.03764623 C113.017835 -0.04905998 132.02878942 -0.03592587 151.03980827 -0.01444477 C167.3619453 0.00342693 183.68396854 0.00032304 200.00610352 -0.01811981 C218.94781875 -0.0395125 237.88946639 -0.04796127 256.83119202 -0.03567076 C258.84994506 -0.03439652 260.86869811 -0.03313904 262.88745117 -0.0318985 C264.37745652 -0.03097285 264.37745652 -0.03097285 265.89756298 -0.03002849 C272.90690416 -0.02657078 279.91620256 -0.03241299 286.92553711 -0.04181671 C295.46437963 -0.0530203 304.00307503 -0.05003128 312.54190063 -0.02869374 C316.90087993 -0.01816115 321.25961368 -0.01409889 325.61859131 -0.02729034 C329.605858 -0.03917465 333.59265061 -0.03271781 337.57987404 -0.01138014 C339.02530255 -0.00689715 340.47077079 -0.00921822 341.91617393 -0.01888329 C343.87524105 -0.03098227 345.83441974 -0.0162242 347.79345703 0 C349.4283181 0.00097411 349.4283181 0.00097411 351.09620667 0.00196791 C354.61428879 0.63183431 355.79306142 1.64870879 357.89672852 4.50336456 C358.39993453 6.57751775 358.39993453 6.57751775 358.4045372 8.83742905 C358.41598479 9.70230855 358.42743238 10.56718806 358.43922687 11.45827603 C358.43146645 12.40379795 358.42370603 13.34931986 358.41571045 14.32349396 C358.42696233 15.83545133 358.42696233 15.83545133 358.43844151 17.37795329 C358.4587884 20.76534193 358.45060204 24.15206567 358.44262695 27.53949738 C358.45135812 29.96370865 358.4618423 32.38791416 358.47395325 34.8121109 C358.49609766 40.03626359 358.50601321 45.26028846 358.50484467 50.48448181 C358.50317623 58.03777214 358.52350181 65.59087722 358.54919997 73.14411816 C358.59029559 85.39862356 358.61359758 97.65309567 358.62573242 109.90766144 C358.63755851 121.81199087 358.65775056 133.71625762 358.68920898 145.62055206 C358.69114509 146.35430208 358.69308119 147.0880521 358.69507596 147.84403697 C358.70484045 151.52503633 358.71476957 155.20603524 358.72478056 158.88703394 C358.80762189 189.42578267 358.86129939 219.96452187 358.89672852 250.50336456 C359.82221497 249.56455444 360.74770142 248.62574432 361.70123291 247.65848541 C370.4523775 238.78537217 379.21957947 229.92840266 388.002491 221.08672905 C392.51668197 216.54131164 397.0251566 211.99052038 401.52075195 207.42670441 C405.86466325 203.01729476 410.22334156 198.62298024 414.59236908 194.23846054 C416.25130197 192.56849623 417.90497175 190.89328548 419.5530777 189.21263504 C439.26948654 169.12275302 439.26948654 169.12275302 451.21704102 167.77680206 C461.88522564 168.06157907 469.67018804 169.20961194 477.77172852 176.62836456 C485.19048114 184.72990504 486.33851401 192.51486743 486.62329102 203.18305206 C485.73309925 211.74802039 480.99627446 219.02215655 474.58830261 224.51721954 C473.01070963 225.77104174 471.43224759 227.02410698 469.83241212 228.24942172 C466.78043902 230.59247514 463.795023 233.01919703 460.79589844 235.42925262 C460.15601508 235.9400684 459.51613172 236.45088418 458.85685796 236.97717923 C445.1889071 247.91136241 432.07500118 259.52845489 419.08422852 271.25336456 C418.01159783 272.22085042 418.01159783 272.22085042 416.91729784 273.20788145 C380.3305369 306.3331253 353.10939713 336.48187749 350.51387978 387.46020126 C350.01091812 399.60356998 350.38156407 411.68865442 351.08422852 423.81586456 C351.13319763 424.66917295 351.18216674 425.52248135 351.23261976 426.40164757 C352.13212511 441.6355153 353.34517662 456.84346113 355.41357422 471.96639252 C355.50675487 472.6581288 355.59993553 473.34986508 355.69593984 474.06256306 C356.13333394 477.28322021 356.59908632 480.49500289 357.11282635 483.70447159 C357.2740841 484.81379673 357.43534185 485.92312187 357.60148621 487.06606293 C357.75495608 488.02611897 357.90842596 488.98617502 358.06654644 489.97532368 C357.89672852 492.50336456 357.89672852 492.50336456 356.26756936 494.62990683 C353.24195286 497.02077362 351.6227253 497.0044475 347.79345703 497.00672913 C346.53393723 497.01716012 345.27441742 497.0275911 343.97673035 497.03833818 C342.57636285 497.02968967 341.17599766 497.02066303 339.77563477 497.01129913 C338.29009896 497.01590651 336.8045677 497.02225832 335.31904602 497.03020811 C331.23111576 497.04694729 327.14355774 497.03863444 323.05562592 497.02626324 C318.64928124 497.01723374 314.24300175 497.03117201 309.83666992 497.04218292 C301.2023939 497.05999525 292.56825674 497.05611611 283.93397522 497.04453236 C276.91845558 497.03550896 269.90297494 497.03426929 262.88745117 497.03862762 C261.89001798 497.03924056 260.89258478 497.03985349 259.86492634 497.04048499 C257.83883539 497.04176386 255.81274445 497.04306071 253.78665352 497.04437536 C234.77562203 497.05578911 215.76466761 497.042655 196.75364876 497.02117389 C180.43151173 497.0033022 164.10948849 497.00640608 147.78735352 497.02484894 C128.84563828 497.04624163 109.90399064 497.0546904 90.96226501 497.04239988 C88.94351197 497.04112565 86.92475892 497.03986817 84.90600586 497.03862762 C83.41600051 497.03770197 83.41600051 497.03770197 81.89589405 497.03675762 C74.88655287 497.03329991 67.87725448 497.03914212 60.86791992 497.04854584 C52.3290774 497.05974942 43.790382 497.05676041 35.2515564 497.03542286 C30.8925771 497.02489028 26.53384336 497.02082801 22.17486572 497.03401947 C18.18759903 497.04590378 14.20080643 497.03944694 10.21358299 497.01810926 C8.76815448 497.01362628 7.32268625 497.01594734 5.8772831 497.02561241 C3.91821598 497.0377114 1.9590373 497.02295332 0 497.00672913 C-1.63486107 497.00575501 -1.63486107 497.00575501 -3.30274963 497.00476122 C-6.10327148 496.50336456 -6.10327148 496.50336456 -8.45326567 494.97829771 C-10.7535369 491.52799622 -10.65530655 488.40954771 -10.60663605 484.40106964 C-10.61244981 483.57372629 -10.61826357 482.74638294 -10.62425351 481.89396858 C-10.63892812 479.10331941 -10.62493369 476.31353954 -10.61120605 473.52289581 C-10.61581202 471.50938719 -10.62216288 469.49588192 -10.63011503 467.48238373 C-10.64687325 461.93508469 -10.63853252 456.38805953 -10.62617016 450.84075928 C-10.61714849 444.86385454 -10.63107503 438.88699809 -10.64208984 432.91010284 C-10.65887965 421.87336388 -10.65738083 410.8367006 -10.64644397 399.79996109 C-10.6363905 389.60489477 -10.63375084 379.4098606 -10.63853455 369.21479034 C-10.63884009 368.53910857 -10.63914563 367.8634268 -10.63946043 367.16726983 C-10.64070573 364.42460974 -10.64197933 361.68194968 -10.64329948 358.93928963 C-10.65554158 333.19940431 -10.64443199 307.45957488 -10.62291189 281.71969819 C-10.60392878 258.84026537 -10.60562726 235.9609216 -10.62475586 213.08148956 C-10.64616413 187.38935224 -10.65467345 161.69726432 -10.6423068 136.00511932 C-10.64102389 133.26739249 -10.63977253 130.52966564 -10.63853455 127.79193878 C-10.63821824 127.11781704 -10.63790193 126.4436953 -10.63757603 125.74914563 C-10.63302189 115.55929492 -10.63835513 105.36947987 -10.64845276 95.17963409 C-10.65987429 83.59587773 -10.65667746 72.01220613 -10.63532978 60.42845917 C-10.62479077 54.51409685 -10.62074602 48.59991563 -10.63392639 42.6855545 C-10.64579713 37.27720819 -10.6393759 31.86921177 -10.61801618 26.46089745 C-10.61352747 24.49864742 -10.61586679 22.53636816 -10.62551934 20.57413673 C-10.63759065 17.9175506 -10.62530349 15.26218085 -10.60663605 12.60565948 C-10.61600071 11.83439035 -10.62536538 11.06312122 -10.63501382 10.2684803 C-10.58764556 6.92201885 -10.32777686 4.84011235 -8.45326567 2.02843142 C-5.44180711 0.07409653 -3.58268981 0.00213471 0 0 Z " fill="#000000" transform="translate(18.103271484375,7.496635437011719)"/>
<path d="M0 0 C89.76 0 179.52 0 272 0 C272.391875 22.873125 272.78375 45.74625 273.1875 69.3125 C273.36047607 76.50071533 273.53345215 83.68893066 273.71166992 91.0949707 C273.79748535 99.95935059 273.79748535 99.95935059 273.81343079 104.12590027 C273.83095389 107.00213778 273.90130511 109.87153353 274.00593567 112.74589539 C274.47891795 126.45874165 274.95447943 141.26683828 265.74023438 152.42773438 C252.04430383 165.5925258 228.4027329 162.39137305 210.93523228 162.08675277 C208.36223744 162.03450737 205.78926654 161.98107018 203.21632028 161.92648482 C197.2946303 161.81908322 191.37317658 161.80058236 185.45064416 161.78109924 C173.73556517 161.73971752 162.02302819 161.61384413 150.30932617 161.43334961 C138.9442194 161.25841083 127.57980794 161.12419075 116.21362305 161.04370117 C115.51069684 161.03870943 114.80777064 161.03371768 114.08354364 161.02857467 C110.55646512 161.00377537 107.02938175 160.97976578 103.50229514 160.95614851 C74.33321241 160.75981508 45.16664042 160.42430251 16 160 C16 165.28 16 170.56 16 176 C88.6 176 161.2 176 236 176 C229.35474541 183.75279702 229.35474541 183.75279702 225.48291016 187.09399414 C211.32841947 199.8511091 204.28244832 212.86881733 197.375 230.4375 C196.37957246 232.85930633 195.37958697 235.27924435 194.375 237.69726562 C191.86167282 243.77699666 189.41679756 249.88139596 187 256 C186.63605133 256.86734268 186.27210266 257.73468536 185.89712524 258.62831116 C184.75354101 261.65155233 184.59055514 263.79268192 185 267 C186.5 269.5 186.5 269.5 189 271 C193.39449324 271.3608343 196.44037291 270.69702857 200.45117188 268.9362793 C201.49245239 268.48548508 202.53373291 268.03469086 203.60656738 267.57023621 C204.71608765 267.07655045 205.82560791 266.58286469 206.96875 266.07421875 C208.12242065 265.57082474 209.27609131 265.06743073 210.46472168 264.54878235 C213.52375504 263.21136694 216.57823784 261.86445452 219.63104248 260.51293945 C222.11358807 259.41650411 224.60017506 258.32942862 227.08705902 257.24287701 C243.85650644 250.96640366 243.85650644 250.96640366 258.26953125 240.98828125 C259.01267578 240.23095703 259.75582031 239.47363281 260.52148438 238.69335938 C261.27751953 237.90767578 262.03355469 237.12199219 262.8125 236.3125 C264.33779369 234.74409743 265.8650267 233.17757768 267.39453125 231.61328125 C268.06331299 230.92016846 268.73209473 230.22705566 269.42114258 229.51293945 C271 228 271 228 272 228 C272 247.8 272 267.6 272 288 C182.24 288 92.48 288 0 288 C0 192.96 0 97.92 0 0 Z " fill="#F1F1F1" transform="translate(56,168)"/>
<path d="M0 0 C110.88 0 221.76 0 336 0 C336.309375 41.435625 336.61875 82.87125 336.9375 125.5625 C337.07406006 138.63431885 337.21062012 151.7061377 337.35131836 165.17407227 C337.41906738 181.16589355 337.41906738 181.16589355 337.43165588 188.6580658 C337.445604 193.87928754 337.50043853 199.09815869 337.58363342 204.31858826 C337.6897863 210.9895639 337.71729729 217.65663391 337.69608414 224.32861507 C337.70051553 226.76959741 337.7300265 229.210702 337.78822696 231.65099442 C338.24531969 251.75949779 338.24531969 251.75949779 330.56358105 260.04765314 C322.22674861 268 322.22674861 268 320 268 C319.99503478 266.96051728 319.99503478 266.96051728 319.98996925 265.9000349 C319.90880277 249.04994571 319.81673132 232.19995516 319.71247292 215.34999371 C319.66231853 207.20152863 319.61587599 199.05307377 319.578125 190.90454102 C319.54521773 183.80354377 319.50539361 176.70262506 319.45720994 169.60171443 C319.43193228 165.8406929 319.41015481 162.07972354 319.39665604 158.31863976 C319.38146947 154.12336283 319.35084293 149.92833669 319.31884766 145.7331543 C319.31668747 144.48159042 319.31452728 143.23002655 319.31230164 141.9405365 C319.29555641 140.23048431 319.29555641 140.23048431 319.2784729 138.48588562 C319.27294214 137.49311458 319.26741138 136.50034353 319.26171303 135.47748852 C319.16718996 132.74787732 319.16718996 132.74787732 317 130 C314.04979977 129.01659992 312.14134821 128.87198155 309.06614017 128.86577892 C308.04199892 128.86132108 307.01785767 128.85686324 305.96268183 128.85227031 C304.83410098 128.85245467 303.70552014 128.85263903 302.54273987 128.85282898 C301.34651802 128.84915229 300.15029616 128.8454756 298.91782516 128.8416875 C295.59165072 128.83255869 292.26552562 128.82795057 288.93934333 128.82529819 C285.35441119 128.82139562 281.76949334 128.81181744 278.18457031 128.80308533 C269.52573971 128.78332263 260.86690793 128.77325629 252.20806041 128.76435754 C248.13263762 128.75997551 244.05721612 128.75460859 239.98179436 128.74936867 C226.43902767 128.73235882 212.89626179 128.71786288 199.35348606 128.71061993 C195.83909161 128.70870998 192.32469716 128.70678965 188.81030273 128.70483398 C187.93679835 128.70435024 187.06329397 128.7038665 186.16331976 128.7033681 C172.00124617 128.69506109 157.83925687 128.66971179 143.67722011 128.63725331 C129.14514464 128.60421746 114.61311207 128.58617444 100.08099884 128.58297569 C91.91848932 128.58080768 83.75610282 128.57201636 75.59362984 128.54651451 C68.64495127 128.52485514 61.69642559 128.51673359 54.74771709 128.52648129 C51.20083945 128.53103954 47.65427759 128.52905206 44.10744286 128.50971985 C40.26624377 128.48896337 36.42548453 128.49902965 32.58424377 128.51225281 C31.45789365 128.50128356 30.33154352 128.49031432 29.17106158 128.47901267 C28.14431257 128.48759356 27.11756357 128.49617445 26.05970097 128.50501537 C25.17278161 128.50403856 24.28586226 128.50306176 23.37206656 128.50205535 C20.13253323 129.18209879 18.96330777 130.36596355 17 133 C16.40731011 135.51583267 16.40731011 135.51583267 16.50222206 138.30678558 C16.49302447 139.38865222 16.48382688 140.47051885 16.47435057 141.58516932 C16.4846377 142.77309249 16.49492482 143.96101567 16.50552368 145.18493652 C16.50069485 146.44734964 16.49586602 147.70976275 16.49089086 149.01043081 C16.4780495 152.516921 16.4902104 156.02295019 16.50641942 159.52941012 C16.51956336 163.30997122 16.50967868 167.09048034 16.50265503 170.87104797 C16.49256503 178.27810953 16.5038617 185.68499268 16.52235563 193.09203207 C16.54310985 201.71383159 16.54298362 210.33559238 16.54201047 218.95741218 C16.54100887 234.33867057 16.55934198 249.71984583 16.58837891 265.10107422 C16.61655446 280.03370681 16.63072048 294.96626624 16.62939453 309.89892578 C16.62931462 310.81859491 16.62923471 311.73826403 16.62915237 312.68580192 C16.62907166 313.60386495 16.62899095 314.52192798 16.6289078 315.46781111 C16.62752865 332.45686653 16.63930516 349.4458908 16.65721423 366.43493614 C16.66325132 372.44789198 16.66537388 378.46084212 16.66627884 384.47380066 C16.66764212 391.79939628 16.67655756 399.12493942 16.69494446 406.45051277 C16.70418834 410.18969644 16.71026855 413.92881292 16.70775604 417.6680088 C16.7051672 421.71710206 16.71804136 425.76599553 16.73257446 429.81506348 C16.72947726 431.00298666 16.72638005 432.19090983 16.723189 433.41483068 C16.72963789 434.49669732 16.73608678 435.57856395 16.74273109 436.69321442 C16.74413994 437.6281959 16.74554879 438.56317739 16.74700034 439.52649164 C17.01645953 442.16092034 17.57668581 443.77846235 19 446 C21.4597017 447.22985085 23.05945499 447.12644976 25.810812 447.12863445 C26.8329622 447.1318589 27.85511241 447.13508335 28.90823686 447.1384055 C30.03973055 447.1368569 31.17122424 447.1353083 32.33700562 447.13371277 C33.53237304 447.13597833 34.72774047 447.13824388 35.95933115 447.14057809 C39.28776894 447.14583085 42.6161529 447.14655999 45.94459105 447.14538372 C49.5302186 447.14518025 53.115838 447.15069332 56.70146179 447.15544128 C63.73040074 447.16376022 70.7593313 447.16649669 77.78827475 447.16705366 C83.49996052 447.16752825 89.21164351 447.16958014 94.9233284 447.17275429 C111.10514668 447.1815644 127.28695832 447.18617313 143.46877901 447.18542381 C144.34178702 447.18538386 145.21479502 447.1853439 146.11425781 447.18530273 C147.42536264 447.18524141 147.42536264 447.18524141 148.76295443 447.18517885 C162.93152916 447.18477232 177.10007733 447.19434269 191.26864438 447.2084411 C205.80520843 447.22279193 220.34175951 447.22971199 234.87833083 447.22884732 C243.04416692 447.2285149 251.20997517 447.23128192 259.3758049 447.24202538 C266.32813888 447.25111341 273.28043238 447.25331967 280.23276971 447.24651595 C283.78157445 447.24324207 287.33030146 447.24322516 290.87909889 447.2518692 C294.72244467 447.2611346 298.56567586 447.25498079 302.4090271 447.24723816 C304.09957547 447.2549535 304.09957547 447.2549535 305.82427633 447.26282471 C307.36532488 447.25592652 307.36532488 447.25592652 308.93750572 447.24888897 C310.26869786 447.24921502 310.26869786 447.24921502 311.62678277 447.24954766 C314.23142469 446.97566532 315.82766071 446.45803193 318 445 C319.25120032 441.24639905 319.05648576 437.81348909 318.96728516 433.91113281 C318.93785543 432.20087813 318.90913124 430.4906112 318.88101196 428.78033447 C318.86498554 427.87247444 318.84895912 426.96461441 318.83244705 426.02924347 C318.74275804 420.18680048 318.724596 414.34362035 318.69610023 408.50061417 C318.66711653 403.37806138 318.611475 398.25859599 318.49609375 393.13720703 C318.38566947 388.17249215 318.35029968 383.21204432 318.36359787 378.24617767 C318.35567308 376.36591456 318.32161013 374.48555137 318.25941849 372.60630035 C317.99534676 364.22548845 317.85430121 357.10717082 323.41522217 350.39929199 C326.9757675 346.61261976 330.77421935 343.03985395 335 340 C335.33 340 335.66 340 336 340 C336 380.92 336 421.84 336 464 C225.12 464 114.24 464 0 464 C0 310.88 0 157.76 0 0 Z " fill="#4C6BB4" transform="translate(24,24)"/>
<path d="M0 0 C0 19.8 0 39.6 0 60 C-89.76 60 -179.52 60 -272 60 C-272 52.08 -272 44.16 -272 36 C-211.28 36 -150.56 36 -88 36 C-87.01 38.475 -87.01 38.475 -86 41 C-82.48470511 43.34352993 -81.13586016 43.3331336 -77 43 C-74.25932478 42.18471731 -74.25932478 42.18471731 -71.54882812 40.9362793 C-70.50754761 40.48548508 -69.46626709 40.03469086 -68.39343262 39.57023621 C-67.28391235 39.07655045 -66.17439209 38.58286469 -65.03125 38.07421875 C-63.87757935 37.57082474 -62.72390869 37.06743073 -61.53527832 36.54878235 C-58.47624496 35.21136694 -55.42176216 33.86445452 -52.36895752 32.51293945 C-49.88641193 31.41650411 -47.39982494 30.32942862 -44.91294098 29.24287701 C-28.14349356 22.96640366 -28.14349356 22.96640366 -13.73046875 12.98828125 C-12.98732422 12.23095703 -12.24417969 11.47363281 -11.47851562 10.69335938 C-10.72248047 9.90767578 -9.96644531 9.12199219 -9.1875 8.3125 C-7.66220631 6.74409743 -6.1349733 5.17757768 -4.60546875 3.61328125 C-3.93668701 2.92016846 -3.26790527 2.22705566 -2.57885742 1.51293945 C-1 0 -1 0 0 0 Z " fill="#E1E6F5" transform="translate(328,396)"/>
<path d="M0 0 C0 40.92 0 81.84 0 124 C-110.88 124 -221.76 124 -336 124 C-336 116.08 -336 108.16 -336 100 C-330.72 100 -325.44 100 -320 100 C-319.01 101.98 -318.02 103.96 -317 106 C-314.5402983 107.22985085 -312.94054501 107.12644976 -310.189188 107.12863445 C-309.1670378 107.1318589 -308.14488759 107.13508335 -307.09176314 107.1384055 C-305.96026945 107.1368569 -304.82877576 107.1353083 -303.66299438 107.13371277 C-302.46762696 107.13597833 -301.27225953 107.13824388 -300.04066885 107.14057809 C-296.71223106 107.14583085 -293.3838471 107.14655999 -290.05540895 107.14538372 C-286.4697814 107.14518025 -282.884162 107.15069332 -279.29853821 107.15544128 C-272.26959926 107.16376022 -265.2406687 107.16649669 -258.21172525 107.16705366 C-252.50003948 107.16752825 -246.78835649 107.16958014 -241.0766716 107.17275429 C-224.89485332 107.1815644 -208.71304168 107.18617313 -192.53122099 107.18542381 C-191.65821298 107.18538386 -190.78520498 107.1853439 -189.88574219 107.18530273 C-188.57463736 107.18524141 -188.57463736 107.18524141 -187.23704557 107.18517885 C-173.06847084 107.18477232 -158.89992267 107.19434269 -144.73135562 107.2084411 C-130.19479157 107.22279193 -115.65824049 107.22971199 -101.12166917 107.22884732 C-92.95583308 107.2285149 -84.79002483 107.23128192 -76.6241951 107.24202538 C-69.67186112 107.25111341 -62.71956762 107.25331967 -55.76723029 107.24651595 C-52.21842555 107.24324207 -48.66969854 107.24322516 -45.12090111 107.2518692 C-41.27755533 107.2611346 -37.43432414 107.25498079 -33.5909729 107.24723816 C-32.46394065 107.25238172 -31.33690841 107.25752529 -30.17572367 107.26282471 C-28.63467512 107.25592652 -28.63467512 107.25592652 -27.06249428 107.24888897 C-25.73130214 107.24921502 -25.73130214 107.24921502 -24.37321723 107.24954766 C-21.76857531 106.97566532 -20.17233929 106.45803193 -18 105 C-16.74879968 101.24639905 -16.94351424 97.81348909 -17.03271484 93.91113281 C-17.06214457 92.20087813 -17.09086876 90.4906112 -17.11898804 88.78033447 C-17.13501446 87.87247444 -17.15104088 86.96461441 -17.16755295 86.02924347 C-17.25724196 80.18680048 -17.275404 74.34362035 -17.30389977 68.50061417 C-17.33288347 63.37806138 -17.388525 58.25859599 -17.50390625 53.13720703 C-17.61433053 48.17249215 -17.64970032 43.21204432 -17.63640213 38.24617767 C-17.64432692 36.36591456 -17.67838987 34.48555137 -17.74058151 32.60630035 C-18.00465324 24.22548845 -18.14569879 17.10717082 -12.58477783 10.39929199 C-2.80649542 0 -2.80649542 0 0 0 Z " fill="#3A5791" transform="translate(360,364)"/>
<path d="M0 0 C7.92 0 15.84 0 24 0 C24.33959373 31.97514938 24.60790842 63.94960698 24.76597994 95.92613444 C24.78473897 99.70718835 24.80415396 103.48823862 24.82397461 107.26928711 C24.82987659 108.39832343 24.82987659 108.39832343 24.83589781 109.55016857 C24.90104464 121.71383942 25.01924146 133.8764393 25.15729194 146.03947628 C25.29791491 158.53402894 25.38095414 171.02802349 25.41132742 183.52333492 C25.43183998 191.22500986 25.49643968 198.92365749 25.618747 206.62439954 C25.70794291 212.54448515 25.71674255 218.46304506 25.69661522 224.38381958 C25.70072171 226.80138138 25.73029487 229.21906411 25.78808212 231.63593864 C26.2453872 251.75942495 26.2453872 251.75942495 18.56358105 260.04765314 C10.22674861 268 10.22674861 268 8 268 C7.99668985 267.30701152 7.99337971 266.61402304 7.98996925 265.9000349 C7.90880277 249.04994571 7.81673132 232.19995516 7.71247292 215.34999371 C7.66231853 207.20152863 7.61587599 199.05307377 7.578125 190.90454102 C7.54521773 183.80354377 7.50539361 176.70262506 7.45720994 169.60171443 C7.43193228 165.8406929 7.41015481 162.07972354 7.39665604 158.31863976 C7.38146947 154.12336283 7.35084293 149.92833669 7.31884766 145.7331543 C7.31668747 144.48159042 7.31452728 143.23002655 7.31230164 141.9405365 C7.30113815 140.80050171 7.28997467 139.66046692 7.2784729 138.48588562 C7.27294214 137.49311458 7.26741138 136.50034353 7.26171303 135.47748852 C7.16718996 132.74787732 7.16718996 132.74787732 5 130 C3.35 129.34 1.7 128.68 0 128 C0 96.32 0 64.64 0 32 C-2.64 32 -5.28 32 -8 32 C-8 58.4 -8 84.8 -8 112 C-13.28 112 -18.56 112 -24 112 C-24 85.6 -24 59.2 -24 32 C-29.28 32 -34.56 32 -40 32 C-40 26.72 -40 21.44 -40 16 C-26.8 16 -13.6 16 0 16 C0 10.72 0 5.44 0 0 Z " fill="#3A5791" transform="translate(336,24)"/>
<path d="M0 0 C3.3247945 1.57588004 5.51631617 3.2817149 8.109375 5.9140625 C8.86347656 6.67460937 9.61757813 7.43515625 10.39453125 8.21875 C11.17183594 9.0128125 11.94914063 9.806875 12.75 10.625 C13.54277344 11.42679687 14.33554687 12.22859375 15.15234375 13.0546875 C17.10614493 15.03202846 19.05512103 17.01388909 21 19 C19.42727345 22.79247167 17.05461108 25.1918788 14.16586304 28.074646 C13.67004435 28.57217353 13.17422567 29.06970107 12.66338217 29.58230519 C11.00214591 31.24683353 9.33386648 32.90411658 7.66552734 34.56152344 C6.47269971 35.7537869 5.28031236 36.94649099 4.08833313 38.13960266 C0.85128266 41.3772274 -2.39190117 44.60864481 -5.63620806 47.83899593 C-9.02572142 51.21601437 -12.40957912 54.59869012 -15.79403687 57.98077393 C-22.20380283 64.38432149 -28.6186504 70.78275334 -35.03533208 77.17937016 C-42.34026753 84.46195784 -49.63953083 91.75021929 -56.93831944 99.03896666 C-71.95256969 114.03230674 -86.97394102 129.01849505 -102 144 C-105.3247945 142.42411996 -107.51631617 140.7182851 -110.109375 138.0859375 C-110.86347656 137.32539063 -111.61757813 136.56484375 -112.39453125 135.78125 C-113.56048828 134.59015625 -113.56048828 134.59015625 -114.75 133.375 C-115.54277344 132.57320312 -116.33554687 131.77140625 -117.15234375 130.9453125 C-119.10614493 128.96797154 -121.05512103 126.98611091 -123 125 C-121.42727345 121.20752833 -119.05461108 118.8081212 -116.16586304 115.925354 C-115.67004435 115.42782647 -115.17422567 114.93029893 -114.66338217 114.41769481 C-113.00214591 112.75316647 -111.33386648 111.09588342 -109.66552734 109.43847656 C-108.47269971 108.2462131 -107.28031236 107.05350901 -106.08833313 105.86039734 C-102.85128266 102.6227726 -99.60809883 99.39135519 -96.36379194 96.16100407 C-92.97427858 92.78398563 -89.59042088 89.40130988 -86.20596313 86.01922607 C-79.79619717 79.61567851 -73.3813496 73.21724666 -66.96466792 66.82062984 C-59.65973247 59.53804216 -52.36046917 52.24978071 -45.06168056 44.96103334 C-30.04743031 29.96769326 -15.02605898 14.98150495 0 0 Z " fill="#676767" transform="translate(407,252)"/>
<path d="M0 0 C2.02838436 -0.00433724 4.05452503 -0.04057295 6.08251953 -0.07861328 C15.04087324 -0.10519593 22.62375356 0.58017493 29.83251953 6.26513672 C30.33912109 6.89806641 30.84572266 7.53099609 31.36767578 8.18310547 C31.89232422 8.80830078 32.41697266 9.43349609 32.95751953 10.07763672 C38.08712645 18.06458436 38.44295847 26.18911175 37.43017578 35.37060547 C36.24764089 40.75558964 34.73059996 45.49388528 30.61767578 49.30810547 C29.89580078 49.98873047 29.17392578 50.66935547 28.43017578 51.37060547 C28.83771793 54.75691019 30.43271039 57.77631985 31.80517578 60.87060547 C36.89222623 73.09427163 37.7472395 83.2653049 37.43017578 96.37060547 C32.15017578 96.37060547 26.87017578 96.37060547 21.43017578 96.37060547 C21.40439453 95.21044922 21.37861328 94.05029297 21.35205078 92.85498047 C21.05067941 83.46005548 20.39515521 75.04721629 16.43017578 66.37060547 C16.05376953 65.48115234 15.67736328 64.59169922 15.28955078 63.67529297 C13.91091841 60.75377627 13.91091841 60.75377627 10.43017578 57.37060547 C6.14017578 57.04060547 1.85017578 56.71060547 -2.56982422 56.37060547 C-2.56982422 69.57060547 -2.56982422 82.77060547 -2.56982422 96.37060547 C-7.84982422 96.37060547 -13.12982422 96.37060547 -18.56982422 96.37060547 C-18.61613816 84.70516263 -18.65168867 73.03974162 -18.67344856 61.37422562 C-18.68389152 55.95762131 -18.69806014 50.54107985 -18.72070312 45.12451172 C-18.74241312 39.89849987 -18.75438899 34.67254852 -18.7595787 29.44649506 C-18.76327777 27.45137326 -18.77050098 25.45625483 -18.78128433 23.46115875 C-18.79577468 20.66950796 -18.79780318 17.87810806 -18.796875 15.08642578 C-18.80406555 14.25924042 -18.8112561 13.43205505 -18.81866455 12.57980347 C-18.79310105 5.48747692 -18.79310105 5.48747692 -16.56982422 2.37060547 C-11.86504266 -1.00605127 -5.52608439 -0.00132108 0 0 Z " fill="#000000" transform="translate(170.56982421875,39.62939453125)"/>
<path d="M0 0 C79.2 0 158.4 0 240 0 C240 5.28 240 10.56 240 16 C160.8 16 81.6 16 0 16 C0 10.72 0 5.44 0 0 Z " fill="#000000" transform="translate(72,296)"/>
<path d="M0 0 C79.2 0 158.4 0 240 0 C240 5.28 240 10.56 240 16 C160.8 16 81.6 16 0 16 C0 10.72 0 5.44 0 0 Z " fill="#000000" transform="translate(72,264)"/>
<path d="M0 0 C79.2 0 158.4 0 240 0 C240 5.28 240 10.56 240 16 C160.8 16 81.6 16 0 16 C0 10.72 0 5.44 0 0 Z " fill="#000000" transform="translate(72,232)"/>
<path d="M0 0 C1.1758667 -0.00287018 1.1758667 -0.00287018 2.37548828 -0.00579834 C4.02962567 -0.00715675 5.68377384 -0.00348432 7.33789062 0.00488281 C9.8661296 0.01558744 12.39365806 0.00497615 14.921875 -0.0078125 C16.53125156 -0.00649084 18.14062769 -0.00392832 19.75 0 C20.5042627 -0.00404846 21.25852539 -0.00809692 22.03564453 -0.01226807 C28.9693137 0.0495128 28.9693137 0.0495128 31.875 2.265625 C34.17787797 5.51236499 34.10854407 8.44412967 34.0703125 12.34375 C34.06386719 13.50390625 34.05742188 14.6640625 34.05078125 15.859375 C34.03402344 17.0659375 34.01726562 18.2725 34 19.515625 C33.99097656 20.73765625 33.98195312 21.9596875 33.97265625 23.21875 C33.94909603 26.23445866 33.91322539 29.25006658 33.875 32.265625 C28.595 32.265625 23.315 32.265625 17.875 32.265625 C17.875 26.985625 17.875 21.705625 17.875 16.265625 C12.595 16.265625 7.315 16.265625 1.875 16.265625 C1.875 24.185625 1.875 32.105625 1.875 40.265625 C4.62070312 40.23082031 4.62070312 40.23082031 7.421875 40.1953125 C9.82291259 40.17655439 12.22395459 40.15835424 14.625 40.140625 C15.8315625 40.12386719 17.038125 40.10710937 18.28125 40.08984375 C19.44140625 40.08339844 20.6015625 40.07695313 21.796875 40.0703125 C22.86518555 40.05983887 23.93349609 40.04936523 25.03417969 40.03857422 C27.93570019 40.27047642 29.51187356 40.58948467 31.875 42.265625 C33.63274594 45.16144909 34.12674866 47.32946559 34.13378906 50.6953125 C34.14009338 51.5630127 34.14639771 52.43071289 34.15289307 53.32470703 C34.1488446 54.25395996 34.14479614 55.18321289 34.140625 56.140625 C34.14349518 57.58284424 34.14349518 57.58284424 34.14642334 59.05419922 C34.14778301 61.0849636 34.14410182 63.11573674 34.13574219 65.14648438 C34.12503967 68.25410494 34.13564496 71.36114741 34.1484375 74.46875 C34.14711587 76.44270961 34.14455339 78.41666886 34.140625 80.390625 C34.14467346 81.31987793 34.14872192 82.24913086 34.15289307 83.20654297 C34.14658875 84.07424316 34.14028442 84.94194336 34.13378906 85.8359375 C34.13219788 86.59664551 34.13060669 87.35735352 34.12896729 88.14111328 C33.83816316 90.57377611 33.13494577 92.17493018 31.875 94.265625 C28.29645474 96.99491405 24.05276286 96.55434483 19.75 96.53125 C18.96608887 96.53316345 18.18217773 96.5350769 17.37451172 96.53704834 C15.72037433 96.53840675 14.06622616 96.53473432 12.41210938 96.52636719 C9.8838704 96.51566256 7.35634194 96.52627385 4.828125 96.5390625 C3.21874844 96.53774084 1.60937231 96.53517832 0 96.53125 C-0.7542627 96.53529846 -1.50852539 96.53934692 -2.28564453 96.54351807 C-9.2193137 96.4817372 -9.2193137 96.4817372 -12.125 94.265625 C-14.42787797 91.01888501 -14.35854407 88.08712033 -14.3203125 84.1875 C-14.31386719 83.02734375 -14.30742188 81.8671875 -14.30078125 80.671875 C-14.28402344 79.4653125 -14.26726563 78.25875 -14.25 77.015625 C-14.24097656 75.79359375 -14.23195312 74.5715625 -14.22265625 73.3125 C-14.19909603 70.29679134 -14.16322539 67.28118342 -14.125 64.265625 C-8.845 64.265625 -3.565 64.265625 1.875 64.265625 C1.875 69.545625 1.875 74.825625 1.875 80.265625 C7.155 80.265625 12.435 80.265625 17.875 80.265625 C17.875 72.345625 17.875 64.425625 17.875 56.265625 C15.12929687 56.30042969 15.12929687 56.30042969 12.328125 56.3359375 C9.92708741 56.35469561 7.52604541 56.37289576 5.125 56.390625 C3.9184375 56.40738281 2.711875 56.42414063 1.46875 56.44140625 C0.30859375 56.44785156 -0.8515625 56.45429687 -2.046875 56.4609375 C-3.11518555 56.47141113 -4.18349609 56.48188477 -5.28417969 56.49267578 C-8.18570019 56.26077358 -9.76187356 55.94176533 -12.125 54.265625 C-13.88274594 51.36980091 -14.37674866 49.20178441 -14.38378906 45.8359375 C-14.39009338 44.9682373 -14.39639771 44.10053711 -14.40289307 43.20654297 C-14.3988446 42.27729004 -14.39479614 41.34803711 -14.390625 40.390625 C-14.39253845 39.42914551 -14.3944519 38.46766602 -14.39642334 37.47705078 C-14.39778301 35.4462864 -14.39410182 33.41551326 -14.38574219 31.38476562 C-14.37503967 28.27714506 -14.38564496 25.17010259 -14.3984375 22.0625 C-14.39711587 20.08854039 -14.39455339 18.11458114 -14.390625 16.140625 C-14.39467346 15.21137207 -14.39872192 14.28211914 -14.40289307 13.32470703 C-14.39658875 12.45700684 -14.39028442 11.58930664 -14.38378906 10.6953125 C-14.38219788 9.93460449 -14.38060669 9.17389648 -14.37896729 8.39013672 C-14.08816316 5.95747389 -13.38494577 4.35631982 -12.125 2.265625 C-8.54645474 -0.46366405 -4.30276286 -0.02309483 0 0 Z " fill="#000000" transform="translate(54.125,39.734375)"/>
<path d="M0 0 C1.1758667 -0.00287018 1.1758667 -0.00287018 2.37548828 -0.00579834 C4.02962567 -0.00715675 5.68377384 -0.00348432 7.33789062 0.00488281 C9.8661296 0.01558744 12.39365806 0.00497615 14.921875 -0.0078125 C16.53125156 -0.00649084 18.14062769 -0.00392832 19.75 0 C20.5042627 -0.00404846 21.25852539 -0.00809692 22.03564453 -0.01226807 C28.9693137 0.0495128 28.9693137 0.0495128 31.875 2.265625 C33.62374181 5.16740501 34.12674415 7.32730989 34.13378906 10.6953125 C34.14009338 11.5630127 34.14639771 12.43071289 34.15289307 13.32470703 C34.1488446 14.25395996 34.14479614 15.18321289 34.140625 16.140625 C34.14349518 17.58284424 34.14349518 17.58284424 34.14642334 19.05419922 C34.14778301 21.0849636 34.14410182 23.11573674 34.13574219 25.14648438 C34.12503967 28.25410494 34.13564496 31.36114741 34.1484375 34.46875 C34.14711587 36.44270961 34.14455339 38.41666886 34.140625 40.390625 C34.14467346 41.31987793 34.14872192 42.24913086 34.15289307 43.20654297 C34.14658875 44.07424316 34.14028442 44.94194336 34.13378906 45.8359375 C34.13219788 46.59664551 34.13060669 47.35735352 34.12896729 48.14111328 C33.83781613 50.57667914 33.14343471 52.1759238 31.875 54.265625 C28.62826001 56.56850297 25.69649533 56.49916907 21.796875 56.4609375 C20.75112305 56.45594238 19.70537109 56.45094727 18.62792969 56.44580078 C17.30696289 56.42759277 15.98599609 56.40938477 14.625 56.390625 C10.4175 56.349375 6.21 56.308125 1.875 56.265625 C1.875 69.465625 1.875 82.665625 1.875 96.265625 C-3.405 96.265625 -8.685 96.265625 -14.125 96.265625 C-14.17131394 84.60018216 -14.20686445 72.93476115 -14.22862434 61.26924515 C-14.2390673 55.85264084 -14.25323593 50.43609938 -14.27587891 45.01953125 C-14.29758891 39.7935194 -14.30956477 34.56756805 -14.31475449 29.34151459 C-14.31845355 27.3463928 -14.32567676 25.35127436 -14.33646011 23.35617828 C-14.35095046 20.56452749 -14.35297896 17.77312759 -14.35205078 14.98144531 C-14.35924133 14.15425995 -14.36643188 13.32707458 -14.37384033 12.474823 C-14.34834069 5.40021388 -14.34834069 5.40021388 -12.125 2.265625 C-8.54645474 -0.46366405 -4.30276286 -0.02309483 0 0 Z " fill="#000000" transform="translate(254.125,39.734375)"/>
<path d="M0 0 C1.1758667 -0.00287018 1.1758667 -0.00287018 2.37548828 -0.00579834 C4.02962567 -0.00715675 5.68377384 -0.00348432 7.33789062 0.00488281 C9.8661296 0.01558744 12.39365806 0.00497615 14.921875 -0.0078125 C16.53125156 -0.00649084 18.14062769 -0.00392832 19.75 0 C20.5042627 -0.00404846 21.25852539 -0.00809692 22.03564453 -0.01226807 C28.9693137 0.0495128 28.9693137 0.0495128 31.875 2.265625 C34.5488201 5.79907562 34.13079171 9.85737293 34.0703125 14.09375 C34.0674826 14.84275574 34.06465271 15.59176147 34.06173706 16.36346436 C34.0505726 18.74768276 34.02547531 21.13152079 34 23.515625 C33.98996535 25.13541123 33.98084035 26.75520336 33.97265625 28.375 C33.95234987 32.33880489 33.9131954 36.30179089 33.875 40.265625 C28.595 40.265625 23.315 40.265625 17.875 40.265625 C17.875 32.345625 17.875 24.425625 17.875 16.265625 C12.595 16.265625 7.315 16.265625 1.875 16.265625 C1.875 37.385625 1.875 58.505625 1.875 80.265625 C7.155 80.265625 12.435 80.265625 17.875 80.265625 C17.875 72.345625 17.875 64.425625 17.875 56.265625 C23.155 56.265625 28.435 56.265625 33.875 56.265625 C33.92095514 61.03474707 33.96076684 65.80309842 33.98486328 70.57226562 C33.99491023 72.19403692 34.00855015 73.81579016 34.02587891 75.4375 C34.05018493 77.77087874 34.06149613 80.1040176 34.0703125 82.4375 C34.08063507 83.16056335 34.09095764 83.88362671 34.10159302 84.62860107 C34.1030789 91.32122093 34.1030789 91.32122093 31.875 94.265625 C28.29645474 96.99491405 24.05276286 96.55434483 19.75 96.53125 C18.96608887 96.53316345 18.18217773 96.5350769 17.37451172 96.53704834 C15.72037433 96.53840675 14.06622616 96.53473432 12.41210938 96.52636719 C9.8838704 96.51566256 7.35634194 96.52627385 4.828125 96.5390625 C3.21874844 96.53774084 1.60937231 96.53517832 0 96.53125 C-0.7542627 96.53529846 -1.50852539 96.53934692 -2.28564453 96.54351807 C-9.2193137 96.4817372 -9.2193137 96.4817372 -12.125 94.265625 C-14.70660945 90.52791927 -14.40689593 86.52919163 -14.38378906 82.1640625 C-14.38904602 80.94387421 -14.38904602 80.94387421 -14.39440918 79.69903564 C-14.40320444 77.0128117 -14.39738514 74.32685158 -14.390625 71.640625 C-14.39197228 69.77262318 -14.39391335 67.90462171 -14.39642334 66.03662109 C-14.39937161 62.12268738 -14.39508647 58.20884498 -14.38574219 54.29492188 C-14.37434784 49.27774791 -14.3809089 44.26078794 -14.39288712 39.24362183 C-14.4001137 35.38662097 -14.3978141 31.52967084 -14.39263153 27.67266846 C-14.39129725 25.82269261 -14.39293501 23.97271217 -14.39759064 22.1227417 C-14.40266895 19.5374328 -14.39492728 16.95247058 -14.38378906 14.3671875 C-14.38783752 13.60239075 -14.39188599 12.83759399 -14.39605713 12.04962158 C-14.36626196 8.31703202 -14.28547074 5.39359769 -12.125 2.265625 C-8.54645474 -0.46366405 -4.30276286 -0.02309483 0 0 Z " fill="#000000" transform="translate(110.125,39.734375)"/>
<path d="M0 0 C5.28 0 10.56 0 16 0 C16.34833364 18.12456547 16.61546554 36.24797011 16.77718258 54.3751688 C16.85429275 62.79351323 16.95926405 71.20973072 17.1315918 79.62670898 C17.28185413 86.96949662 17.37804498 94.3107434 17.41132742 101.6550259 C17.43076499 105.53910134 17.47588211 109.41877216 17.58595085 113.30142403 C18.3157347 140.03991206 18.3157347 140.03991206 10.57968235 148.55071163 C2.60001588 156 2.60001588 156 0 156 C0 120.36 0 84.72 0 48 C-15.84 48 -31.68 48 -48 48 C-48 42.72 -48 37.44 -48 32 C-32.16 32 -16.32 32 0 32 C0 21.44 0 10.88 0 0 Z " fill="#E1E6F5" transform="translate(312,168)"/>
<path d="M0 0 C47.52 0 95.04 0 144 0 C144 5.28 144 10.56 144 16 C96.48 16 48.96 16 0 16 C0 10.72 0 5.44 0 0 Z " fill="#000000" transform="translate(104,200)"/>
<path d="M0 0 C15.84 0 31.68 0 48 0 C48 5.28 48 10.56 48 16 C42.72 16 37.44 16 32 16 C32 42.4 32 68.8 32 96 C26.72 96 21.44 96 16 96 C16 69.6 16 43.2 16 16 C10.72 16 5.44 16 0 16 C0 10.72 0 5.44 0 0 Z " fill="#000000" transform="translate(296,40)"/>
<path d="M0 0 C5.28 0 10.56 0 16 0 C16 31.68 16 63.36 16 96 C10.72 96 5.44 96 0 96 C0 64.32 0 32.64 0 0 Z " fill="#000000" transform="translate(216,40)"/>
<path d="M0 0 C3.98561154 2.62688033 6.23980531 5.28191592 7.75 9.8125 C8.15369412 15.16144708 7.41391609 18.19358075 4.75 22.8125 C2.57348633 25.32958984 2.57348633 25.32958984 0.08203125 27.7734375 C-0.81064453 28.65644531 -1.70332031 29.53945312 -2.62304688 30.44921875 C-3.55181641 31.35285156 -4.48058594 32.25648438 -5.4375 33.1875 C-6.3880624 34.12299468 -7.33793909 35.05918664 -8.28710938 35.99609375 C-10.60142911 38.27517004 -12.92246896 40.54693054 -15.25 42.8125 C-18.61335594 41.35504576 -20.79534005 39.50132146 -23.359375 36.8984375 C-24.11347656 36.13789063 -24.86757813 35.37734375 -25.64453125 34.59375 C-26.42183594 33.7996875 -27.19914062 33.005625 -28 32.1875 C-28.79277344 31.38570312 -29.58554687 30.58390625 -30.40234375 29.7578125 C-32.35614493 27.78047154 -34.30512103 25.79861091 -36.25 23.8125 C-34.74837967 20.306729 -32.72156889 18.02640553 -30.0390625 15.3359375 C-29.20632813 14.500625 -28.37359375 13.6653125 -27.515625 12.8046875 C-26.64421875 11.94101563 -25.7728125 11.07734375 -24.875 10.1875 C-24.01132812 9.31609375 -23.14765625 8.4446875 -22.2578125 7.546875 C-21.4225 6.71414062 -20.5871875 5.88140625 -19.7265625 5.0234375 C-18.96424316 4.26337402 -18.20192383 3.50331055 -17.41650391 2.72021484 C-12.1055979 -1.95630302 -6.5342901 -2.38752908 0 0 Z " fill="#676767" transform="translate(480.25,193.1875)"/>
<path d="M0 0 C15.84 0 31.68 0 48 0 C48 5.28 48 10.56 48 16 C32.16 16 16.32 16 0 16 C0 10.72 0 5.44 0 0 Z " fill="#000000" transform="translate(264,200)"/>
<path d="M0 0 C4.5478125 -0.1546875 4.5478125 -0.1546875 9.1875 -0.3125 C10.13391357 -0.35802002 11.08032715 -0.40354004 12.05541992 -0.45043945 C16.33495653 -0.52084898 18.44496982 -0.37589718 22.07421875 2.08203125 C24.42689423 5.64683567 24.67078468 7.7511813 24.625 12 C24.63789063 13.19625 24.65078125 14.3925 24.6640625 15.625 C23.7929864 20.0521162 22.73841711 21.46813682 19 24 C15.69432461 24.5811448 12.53022529 24.47327635 9.1875 24.3125 C6.155625 24.209375 3.12375 24.10625 0 24 C0 16.08 0 8.16 0 0 Z " fill="#4C6BB3" transform="translate(168,56)"/>
<path d="M0 0 C3.36335594 1.45745424 5.54534005 3.31117854 8.109375 5.9140625 C8.86347656 6.67460937 9.61757813 7.43515625 10.39453125 8.21875 C11.17183594 9.0128125 11.94914062 9.806875 12.75 10.625 C13.54277344 11.42679688 14.33554687 12.22859375 15.15234375 13.0546875 C17.10614493 15.03202846 19.05512103 17.01388909 21 19 C19.30413874 22.63303084 17.26199512 24.94549046 14.375 27.75 C13.55773437 28.54921875 12.74046875 29.3484375 11.8984375 30.171875 C11.27195312 30.77515625 10.64546875 31.3784375 10 32 C6.63664406 30.54254576 4.45465995 28.68882146 1.890625 26.0859375 C1.13652344 25.32539063 0.38242187 24.56484375 -0.39453125 23.78125 C-1.17183594 22.9871875 -1.94914062 22.193125 -2.75 21.375 C-3.54277344 20.57320312 -4.33554687 19.77140625 -5.15234375 18.9453125 C-7.10614493 16.96797154 -9.05512103 14.98611091 -11 13 C-9.30413874 9.36696916 -7.26199512 7.05450954 -4.375 4.25 C-3.55773437 3.45078125 -2.74046875 2.6515625 -1.8984375 1.828125 C-0.95871094 0.92320312 -0.95871094 0.92320312 0 0 Z " fill="#B3B3B3" transform="translate(431,228)"/>
<path d="M0 0 C0.66 0 1.32 0 2 0 C2 6.27 2 12.54 2 19 C-10.87 19 -23.74 19 -37 19 C-36 16 -36 16 -32.68945312 14.29833984 C-31.22468857 13.67486522 -29.75487304 13.06317578 -28.28125 12.4609375 C-27.50817505 12.13461334 -26.7351001 11.80828918 -25.93859863 11.47207642 C-23.46324222 10.42941512 -20.98198728 9.40176451 -18.5 8.375 C-16.01931355 7.33822364 -13.53992637 6.29843254 -11.06140137 5.25650024 C-9.51711173 4.60845947 -7.97132069 3.96398332 -6.4239502 3.32333374 C-2.96034442 2.07045537 -2.96034442 2.07045537 0 0 Z " fill="#EEEEEE" transform="translate(310,413)"/>
<path d="M0 0 C5.28 0 10.56 0 16 0 C16 7.92 16 15.84 16 24 C10.72 24 5.44 24 0 24 C0 16.08 0 8.16 0 0 Z " fill="#4C6CB5" transform="translate(256,56)"/>
<path d="M0 0 C4.03082 1.612328 6.75944137 4.46234596 9.75 7.5 C10.25660156 7.99886719 10.76320313 8.49773437 11.28515625 9.01171875 C15 12.74658861 15 12.74658861 15 15 C11.21091124 16.67257264 7.41832115 18.33705115 3.625 20 C2.54476563 20.47695313 1.46453125 20.95390625 0.3515625 21.4453125 C-0.6796875 21.89648438 -1.7109375 22.34765625 -2.7734375 22.8125 C-3.72653809 23.23144531 -4.67963867 23.65039062 -5.66162109 24.08203125 C-8 25 -8 25 -10 25 C-7.37589493 16.35588919 -3.68616238 8.23074615 0 0 Z " fill="#454545" transform="translate(274,391)"/>
<path d="M0 0 C4.03082 1.612328 6.75944137 4.46234596 9.75 7.5 C10.25660156 7.99886719 10.76320313 8.49773437 11.28515625 9.01171875 C15 12.74658861 15 12.74658861 15 15 C12.62499103 16.55289048 11.10847641 16.99753463 8.25 17.0625 C3.00575418 15.34803502 -1.54203736 11.63448312 -4.234375 6.76953125 C-4.48703125 6.18558594 -4.7396875 5.60164062 -5 5 C-3.35 3.35 -1.7 1.7 0 0 Z " fill="#C9C9C9" transform="translate(431,228)"/>
</svg>
