<svg xmlns="http://www.w3.org/2000/svg" version="1.1" viewBox="-0.56 -0.66 409.94 409.93">
<path d="M0 0 C1.20119856 -0.00694553 2.40239712 -0.01389106 3.63999563 -0.02104706 C6.9527333 -0.0361154 10.26456688 -0.03340015 13.57726276 -0.02289402 C17.15814539 -0.01587719 20.73893793 -0.03191869 24.3197937 -0.04489136 C31.32643701 -0.06649523 38.33291768 -0.06641378 45.33958333 -0.05826581 C51.03628603 -0.05195718 56.73294142 -0.05311075 62.42964363 -0.05953789 C63.2414932 -0.06043954 64.05334276 -0.0613412 64.88979383 -0.06227018 C66.53924073 -0.06412144 68.18868761 -0.065984 69.83813448 -0.06785773 C85.29365801 -0.08442363 100.74909017 -0.07572733 116.20460821 -0.05887216 C130.33318724 -0.04417647 144.46155358 -0.05880385 158.59010523 -0.08764232 C173.11112099 -0.11706027 187.63203866 -0.1280016 202.15308291 -0.11846012 C203.79665123 -0.11743761 205.44021956 -0.116443 207.08378792 -0.11547661 C208.29666753 -0.11476202 208.29666753 -0.11476202 209.53404976 -0.114033 C215.22067417 -0.11187203 220.90720538 -0.12165606 226.59380913 -0.13624763 C233.52868238 -0.15379459 240.46328456 -0.15361992 247.39814728 -0.13089598 C250.93370491 -0.11977497 254.46878538 -0.11654179 258.00432205 -0.13519669 C261.84321707 -0.15519096 265.68137123 -0.13616883 269.52026367 -0.11352539 C270.62893498 -0.12536112 271.73760629 -0.13719685 272.87987369 -0.14939123 C281.45080176 -0.04686779 287.90771833 2.23623133 294.51112366 7.7646637 C301.84186542 16.48230255 304.96952203 20.87266368 304.98475647 32.44239807 C304.98972137 33.34363907 304.99468628 34.24488007 304.99980164 35.1734314 C305.0143955 38.15176661 305.02121938 41.13004862 305.02674866 44.1084137 C305.03250082 46.17819724 305.03825854 48.24798077 305.04402161 50.31776428 C305.05452259 54.6553726 305.06037169 58.99296243 305.06385803 63.33058167 C305.06935178 68.89259587 305.09340244 74.45436639 305.12182999 80.01630402 C305.14043496 84.29020407 305.14566075 88.56404504 305.14719391 92.83798218 C305.150224 94.88892962 305.15826446 96.93987594 305.17137909 98.99078369 C305.18840051 101.85635587 305.18656929 104.72132735 305.18006897 107.58692932 C305.18928375 108.43588272 305.19849854 109.28483612 305.20799255 110.15951538 C305.19963882 111.3328669 305.19963882 111.3328669 305.19111633 112.52992249 C305.19258289 113.20685402 305.19404945 113.88378555 305.19556046 114.58123016 C304.6853041 117.23368822 303.65349738 118.54002219 301.82362366 120.5146637 C299.67855835 120.99568176 299.67855835 120.99568176 297.16859436 120.96876526 C296.22784561 120.96846313 295.28709686 120.96816101 294.31784058 120.96784973 C293.30525681 120.94720459 292.29267303 120.92655945 291.24940491 120.9052887 C290.21043564 120.89962891 289.17146637 120.89396912 288.10101318 120.88813782 C284.77891684 120.86572697 281.45789462 120.81552059 278.13612366 120.7646637 C275.88548818 120.74460484 273.63483581 120.72635301 271.38417053 120.7099762 C265.86362106 120.6658469 260.34369908 120.5988879 254.82362366 120.5146637 C254.82731083 121.82387944 254.830998 123.13309519 254.83479691 124.48198414 C254.92149542 155.5851713 254.98741926 186.68832644 255.02788498 217.79160627 C255.03288759 221.62287627 255.0380649 225.45414602 255.04335022 229.28541565 C255.04439946 230.04812762 255.0454487 230.81083958 255.04652974 231.59666403 C255.06391796 243.93387154 255.09544688 256.27100422 255.13223484 268.60816739 C255.16968841 281.27452483 255.19186883 293.94084318 255.19997764 306.60725373 C255.20545628 314.41826652 255.22273747 322.22906777 255.25528952 330.04001542 C255.2790045 336.03728962 255.28143239 342.03438323 255.27605438 348.03170967 C255.27715265 350.48625234 255.28508028 352.94080319 255.30044556 355.395298 C255.3204408 358.75486071 255.31552737 362.11352923 255.30464172 365.47311401 C255.31629309 366.43715552 255.32794446 367.40119703 255.33994889 368.39445192 C255.23381548 380.57005729 250.2215418 390.82185153 241.87440491 399.5537262 C235.24946298 405.67105961 228.10796764 409.6356895 218.97812176 409.64329815 C217.99912369 409.6465226 217.02012563 409.64974704 216.01146096 409.6530692 C214.93842164 409.6515206 213.86538232 409.64997199 212.75982666 409.64837646 C211.61795326 409.65064202 210.47607986 409.65290758 209.29960424 409.65524179 C205.45888634 409.66159103 201.61820365 409.66075182 197.77748108 409.65992737 C195.02966172 409.66237405 192.28184486 409.6662922 189.5340271 409.67010498 C182.83589663 409.6784141 176.13777496 409.68115995 169.43963977 409.68171736 C163.99499938 409.68219243 158.5503619 409.68424671 153.10572243 409.68741798 C137.67030524 409.69622552 122.234895 409.70083724 106.79947527 409.70008751 C105.96721719 409.70004755 105.13495911 409.7000076 104.27748108 409.69996643 C103.44420712 409.69992555 102.61093317 409.69988467 101.75240848 409.69984255 C88.24880599 409.69943612 74.74523138 409.70900455 61.24163695 409.7231048 C47.37735239 409.73746746 33.51308142 409.74437503 19.64878923 409.74351102 C11.86462464 409.743179 4.08048929 409.74592839 -3.70366859 409.75668907 C-10.33161239 409.76579266 -16.9595137 409.76797052 -23.58746103 409.76117965 C-26.96857422 409.75791361 -30.34953935 409.75894665 -33.73065567 409.7665329 C-37.39771976 409.77422843 -41.06456909 409.76962396 -44.73162842 409.76190186 C-45.79797557 409.76704542 -46.86432273 409.77218898 -47.96298343 409.77748841 C-58.46621887 409.72854111 -65.79726801 407.04543931 -74.17637634 400.5146637 C-76.8030856 397.68809612 -79.00930134 394.70049951 -81.17637634 391.5146637 C-81.68813416 390.87013245 -82.19989197 390.2256012 -82.72715759 389.5615387 C-88.7549461 381.04789671 -88.61959788 370.5892242 -88.73887634 360.5771637 C-88.76554382 359.39179016 -88.7922113 358.20641663 -88.81968689 356.98512268 C-88.77984737 347.48373428 -88.77984737 347.48373428 -85.76622009 343.76075745 C-82.47078945 340.90272936 -81.05525654 340.3893037 -76.81846619 340.40113831 C-75.90508484 340.40125916 -74.99170349 340.40138 -74.05064392 340.40150452 C-73.089245 340.40662048 -72.12784607 340.41173645 -71.13731384 340.41700745 C-69.81340637 340.41851807 -69.81340637 340.41851807 -68.4627533 340.4200592 C-65.1589478 340.42529974 -61.8551608 340.43926096 -58.55137634 340.4521637 C-51.16762634 340.4727887 -43.78387634 340.4934137 -36.17637634 340.5146637 C-36.17637634 317.4146637 -36.17637634 294.3146637 -36.17637634 270.5146637 C-32.17637634 273.5146637 -28.17637634 276.5146637 -24.17637634 279.5146637 C-22.19637634 279.8446637 -20.21637634 280.1746637 -18.17637634 280.5146637 C-18.17637634 300.3146637 -18.17637634 320.1146637 -18.17637634 340.5146637 C-12.1993158 340.50419006 -6.22225525 340.49371643 -0.06407166 340.48292542 C19.64539764 340.44984192 39.35486799 340.42761482 59.06435776 340.41103935 C71.01863264 340.4007191 82.97288126 340.38664447 94.92713928 340.36378479 C105.34434121 340.34387383 115.76152412 340.33095271 126.17874455 340.32648671 C131.69649055 340.32387544 137.21418212 340.31772228 142.73191071 340.30320358 C147.92252984 340.28965591 153.11307199 340.28543535 158.30370712 340.28844833 C160.21129906 340.28789691 162.11889351 340.28390275 164.02647018 340.27625275 C166.62632879 340.26633556 169.22589483 340.268683 171.82575989 340.27415466 C172.96389448 340.26541614 172.96389448 340.26541614 174.1250217 340.25650108 C177.84891227 340.27775576 180.66241135 340.43905275 183.82362366 342.5146637 C183.82362366 343.1746637 183.82362366 343.8346637 183.82362366 344.5146637 C184.48362366 344.5146637 185.14362366 344.5146637 185.82362366 344.5146637 C187.08103041 347.02947721 186.99842821 348.86604324 187.06971741 351.6787262 C187.1025885 352.71899963 187.13545959 353.75927307 187.16932678 354.83106995 C187.22987199 357.01327377 187.28723469 359.19556853 187.34120178 361.37794495 C187.6764006 373.17956857 187.6764006 373.17956857 192.82362366 383.5146637 C199.04055631 388.33669464 205.16484747 392.13945663 213.21424866 391.96388245 C219.43846789 390.8923477 225.68938412 387.81041325 229.99159241 383.18263245 C235.10473944 375.73640767 235.25197018 370.01425786 235.20889282 361.14494324 C235.21290142 359.76523075 235.21822864 358.38552158 235.22475857 357.00581872 C235.23890557 353.21926789 235.23447966 349.43293173 235.22704542 345.64637017 C235.22230572 341.56022005 235.23486928 337.47411937 235.2454071 333.38798523 C235.26138713 326.30647585 235.26665747 319.22502369 235.26487923 312.14349747 C235.26249417 301.88739621 235.27849569 291.6313862 235.29933178 281.3753088 C235.33286871 264.71229444 235.35452118 248.04928824 235.36732483 231.38624573 C235.36847906 229.89036085 235.36847906 229.89036085 235.36965661 228.36425607 C235.37275839 224.32441632 235.37584122 220.28457655 235.37889666 216.24473677 C235.38741391 205.14542002 235.3983184 194.04610613 235.41029358 182.9467926 C235.4113616 181.95378488 235.41242962 180.96077716 235.41353 179.93767829 C235.43165647 163.34881634 235.45767121 146.75997367 235.48842472 130.17113054 C235.50692892 119.94912425 235.51789139 109.72716137 235.51894664 99.50513808 C235.5200547 92.49026354 235.52805032 85.47541868 235.54133029 78.4605567 C235.54870932 74.42013139 235.55287749 70.37977105 235.54821205 66.33934021 C235.54396936 62.62921295 235.5490745 58.91921219 235.56111991 55.20910315 C235.56513169 53.25479068 235.55946545 51.30046541 235.55327421 49.34615862 C235.66545354 25.40205655 235.66545354 25.40205655 239.82362366 18.5146637 C208.71416098 18.59657772 177.60474816 18.68859263 146.49535941 18.79471531 C142.82288004 18.80723423 139.15040038 18.81966699 135.47792053 18.83204651 C134.74679378 18.8345125 134.01566702 18.8369785 133.26238491 18.83951922 C121.42300753 18.87924641 109.58362062 18.91199392 97.74421547 18.94216351 C85.5965245 18.97327399 73.44887406 19.01188167 61.30122864 19.05745375 C53.80506834 19.08533927 46.30893769 19.10737203 38.81273945 19.1219262 C33.06532545 19.13371135 27.31798837 19.15592578 21.5706234 19.18204689 C19.21237056 19.19112817 16.85410187 19.19681418 14.49583244 19.19887733 C11.27920882 19.20219591 8.06286495 19.21766285 4.84629822 19.2361908 C3.91049293 19.23425606 2.97468765 19.23232133 2.01052463 19.23032796 C-2.73283034 19.2712482 -6.79674438 19.4636661 -11.17637634 21.5146637 C-12.16637634 22.9996637 -12.16637634 22.9996637 -13.17637634 24.5146637 C-13.83637634 24.5146637 -14.49637634 24.5146637 -15.17637634 24.5146637 C-17.09247789 31.15714905 -17.74004725 37.62525699 -18.17637634 44.5146637 C-19.02200134 44.7621637 -19.86762634 45.0096637 -20.73887634 45.2646637 C-27.31579952 47.65627212 -31.31367807 50.58631377 -36.17637634 55.5146637 C-36.32656333 51.30134105 -36.43443287 47.08950256 -36.50596619 42.87428284 C-36.53583368 41.44562084 -36.57654543 40.01713721 -36.62901306 38.58912659 C-36.97752116 28.84798348 -35.97520508 21.72188836 -30.17637634 13.5146637 C-29.15543884 12.0606012 -29.15543884 12.0606012 -28.11387634 10.5771637 C-19.98202721 1.92067914 -11.54655817 -0.08565336 0 0 Z " fill="#41A4F4" transform="translate(104.17637634277344,-0.5146636962890625)"/>
<path d="M0 0 C2.16393827 -0.00218237 4.3273631 -0.02033848 6.49121094 -0.03930664 C7.8740217 -0.04224172 9.25683488 -0.04422575 10.63964844 -0.04516602 C11.89310059 -0.0492749 13.14655273 -0.05338379 14.43798828 -0.05761719 C17.71429295 0.17884902 19.911338 0.66041896 22.80371094 2.18530273 C24.28027344 4.50561523 24.28027344 4.50561523 25.42871094 7.31030273 C25.84636719 8.29256836 26.26402344 9.27483398 26.69433594 10.28686523 C27.63239081 12.73769874 28.41437349 15.17790307 29.17871094 17.68530273 C30.52472035 21.43782167 30.52472035 21.43782167 34.11621094 23.18530273 C42.24757205 25.39041761 47.00674301 22.95883657 54.36621094 19.40014648 C58.14812658 18.06358312 59.99131532 18.09527212 63.80371094 19.18530273 C70.07154558 22.65261551 74.91481921 27.82005199 79.42871094 33.31030273 C81.77704588 36.24554601 81.77704588 36.24554601 84.55371094 38.93530273 C87.08236585 41.46395765 87.71056842 42.33708489 88.09667969 45.85327148 C87.73337661 49.98523844 86.06890013 52.93452127 84.11621094 56.49780273 C81.51505182 61.51002583 81.51505182 61.51002583 81.00683594 67.05639648 C81.7895491 69.22308883 82.74318077 71.14688111 83.80371094 73.18530273 C83.80371094 74.17530273 83.80371094 75.16530273 83.80371094 76.18530273 C84.66609375 76.30260742 85.52847656 76.41991211 86.41699219 76.54077148 C89.84382733 77.19293734 92.76683144 78.17780961 95.99121094 79.49780273 C97.52841797 80.11075195 97.52841797 80.11075195 99.09667969 80.73608398 C102.11719767 82.35312897 103.13122921 83.22013389 104.80371094 86.18530273 C105.09617355 88.9002387 105.224639 91.37910891 105.20214844 94.09155273 C105.2064537 95.23412537 105.2064537 95.23412537 105.21084595 96.39978027 C105.21288328 98.00684352 105.20737651 99.61393175 105.19482422 101.22094727 C105.17876471 103.67707914 105.1946829 106.13156563 105.21386719 108.58764648 C105.2118847 110.15145219 105.20804089 111.71525687 105.20214844 113.27905273 C105.20822113 114.01144165 105.21429382 114.74383057 105.22055054 115.49841309 C105.17806384 118.58731833 104.994244 120.83325033 103.51147461 123.57299805 C101.71822761 125.26600779 100.39073476 126.05929694 98.08105469 126.88842773 C97.37787109 127.14624023 96.6746875 127.40405273 95.95019531 127.66967773 C95.22123047 127.92233398 94.49226562 128.17499023 93.74121094 128.43530273 C93.00837891 128.70342773 92.27554688 128.97155273 91.52050781 129.24780273 C86.13801419 131.18530273 86.13801419 131.18530273 83.80371094 131.18530273 C83.26767274 132.57536788 82.75053621 133.97272923 82.24121094 135.37280273 C81.95117188 136.15010742 81.66113281 136.92741211 81.36230469 137.72827148 C80.23345173 142.6936457 82.31043008 146.52896855 84.36621094 150.99780273 C88.01616938 159.81584392 88.01616938 159.81584392 86.80371094 165.18530273 C84.18065398 168.91016882 81.04617753 171.99890184 77.80371094 175.18530273 C76.85526714 176.17449741 75.91000429 177.16675078 74.96777344 178.16186523 C66.74338358 186.72131765 66.74338358 186.72131765 60.80371094 189.18530273 C54.73270187 189.05039142 48.96614786 185.91402292 43.70996094 183.04077148 C40.83126583 181.74889807 38.82370018 182.46050532 35.80371094 183.18530273 C34.22589844 183.40186523 34.22589844 183.40186523 32.61621094 183.62280273 C29.68806559 184.87667249 29.68806559 184.87667249 28.90136719 187.25952148 C28.40790199 189.00132026 27.94562678 190.7521808 27.51074219 192.50952148 C26.01690135 198.16300753 23.95838307 203.12238161 18.80371094 206.18530273 C16.24233073 206.4893323 13.92989564 206.62985861 11.37011719 206.61889648 C10.65516586 206.62413834 9.94021454 206.62938019 9.20359802 206.63478088 C7.69490861 206.64118989 6.18616915 206.63987854 4.67749023 206.63134766 C2.37685556 206.62284209 0.07870955 206.65160143 -2.22167969 206.68334961 C-3.69107999 206.68496201 -5.16048466 206.68438334 -6.62988281 206.68139648 C-7.31336288 206.69263046 -7.99684296 206.70386444 -8.70103455 206.71543884 C-13.46461419 206.64641327 -15.88160794 205.58432593 -19.19628906 202.18530273 C-20.31469727 200.38598633 -20.31469727 200.38598633 -20.99707031 198.58374023 C-21.37895508 197.60147461 -21.37895508 197.60147461 -21.76855469 196.59936523 C-22.01283203 195.92647461 -22.25710937 195.25358398 -22.50878906 194.56030273 C-22.77240234 193.87967773 -23.03601563 193.19905273 -23.30761719 192.49780273 C-25.19628906 187.53329381 -25.19628906 187.53329381 -25.19628906 185.18530273 C-30.91286784 183.09387148 -35.803336 181.36297301 -41.73144531 183.40014648 C-43.47748047 184.25286133 -43.47748047 184.25286133 -45.25878906 185.12280273 C-49.80539469 187.32828326 -53.10391044 188.83419308 -58.19628906 188.18530273 C-60.35644531 187.04858398 -60.35644531 187.04858398 -62.25878906 185.49780273 C-62.938125 184.94608398 -63.61746094 184.39436523 -64.31738281 183.82592773 C-68.51894673 180.15720249 -72.15417249 176.1506559 -75.70410156 171.86499023 C-77.32037347 169.95914276 -77.32037347 169.95914276 -80.07128906 167.81030273 C-82.50613488 164.80255202 -82.94938972 162.75914088 -82.78222656 158.90795898 C-82.03084222 155.4165264 -80.54478987 152.38352169 -79.00878906 149.18530273 C-76.231916 143.20949148 -76.231916 143.20949148 -77.25878906 136.93530273 C-78.17667928 134.89701233 -78.17667928 134.89701233 -79.19628906 133.18530273 C-79.69128906 132.19530273 -79.69128906 132.19530273 -80.19628906 131.18530273 C-83.50605939 129.87635402 -86.83345826 128.70521389 -90.20605469 127.57202148 C-90.91052734 127.32323242 -91.615 127.07444336 -92.34082031 126.81811523 C-92.9838208 126.6004248 -93.62682129 126.38273437 -94.28930664 126.15844727 C-96.95642278 124.79740195 -98.39168417 123.60766707 -100.19628906 121.18530273 C-100.59421462 118.34426441 -100.75800657 115.89847979 -100.72753906 113.06030273 C-100.73136597 112.2763916 -100.73519287 111.49248047 -100.73913574 110.68481445 C-100.74185259 109.03066724 -100.73450717 107.37647691 -100.71777344 105.72241211 C-100.69635798 103.19344112 -100.71758003 100.66731059 -100.74316406 98.13842773 C-100.74052074 96.52904648 -100.73539567 94.91966698 -100.72753906 93.31030273 C-100.73563599 92.55604004 -100.74373291 91.80177734 -100.7520752 91.0246582 C-100.6906675 87.57876443 -100.47719976 85.56373916 -98.39746094 82.76196289 C-95.86825976 80.9503412 -93.32199208 80.09533644 -90.35571289 79.20922852 C-83.55270221 77.20356453 -83.55270221 77.20356453 -78.15332031 72.85717773 C-76.26645605 68.65842177 -75.72743735 65.37917014 -77.25878906 60.99780273 C-77.8724702 59.71113513 -78.51809836 58.43916693 -79.19628906 57.18530273 C-81.84640598 51.68876394 -82.77761468 48.19233411 -82.19628906 42.18530273 C-80.54641451 38.24393574 -78.12367811 36.17735842 -74.79785156 33.56420898 C-73.07614368 32.08186049 -71.7006006 30.50187827 -70.25878906 28.74780273 C-66.19845622 23.92813492 -62.63501136 20.02624146 -56.57128906 17.93530273 C-51.32810059 17.57758032 -46.92990597 20.42635803 -42.44238281 22.83764648 C-38.14697622 24.62093803 -34.79571422 25.03953912 -30.31225586 23.56616211 C-26.68430914 21.84672886 -24.84320834 20.1286005 -23.30566406 16.40014648 C-22.82744994 14.98258319 -22.37463769 13.55622238 -21.94628906 12.12280273 C-19.11487518 3.23884399 -19.11487518 3.23884399 -16.19628906 1.18530273 C-11.00506379 -0.54510569 -5.43487502 -0.00061508 0 0 Z M-4.19628906 19.18530273 C-4.52242188 19.90975586 -4.84855469 20.63420898 -5.18457031 21.38061523 C-5.6215625 22.34741211 -6.05855469 23.31420898 -6.50878906 24.31030273 C-6.93804687 25.26163086 -7.36730469 26.21295898 -7.80957031 27.19311523 C-8.2671875 28.18053711 -8.72480469 29.16795898 -9.19628906 30.18530273 C-9.59203125 31.22944336 -9.98777344 32.27358398 -10.39550781 33.34936523 C-12.78293939 37.10918156 -15.64443693 38.07696754 -19.69628906 39.43530273 C-25.14915167 41.3683481 -25.14915167 41.3683481 -30.19628906 44.18530273 C-38.76109463 45.58094001 -45.5924517 42.90096497 -53.19628906 39.18530273 C-54.32828259 40.09331894 -55.45161269 41.01214099 -56.57128906 41.93530273 C-57.19777344 42.44577148 -57.82425781 42.95624023 -58.46972656 43.48217773 C-60.38213786 45.3686287 -61.42983356 46.60030063 -62.19628906 49.18530273 C-61.37139521 51.76318298 -61.37139521 51.76318298 -59.88378906 54.37280273 C-56.98532418 60.4012903 -54.8572927 65.29825845 -57.12207031 71.87280273 C-58.38925195 74.69748007 -59.78357962 77.4311129 -61.19628906 80.18530273 C-61.87029323 81.84901563 -62.53757529 83.51547688 -63.19628906 85.18530273 C-66.11191494 91.6478908 -71.70986772 92.88920572 -77.98925781 95.31811523 C-80.18966164 96.14484704 -80.18966164 96.14484704 -82.19628906 97.18530273 C-82.19628906 101.14530273 -82.19628906 105.10530273 -82.19628906 109.18530273 C-74.55870622 113.8934438 -74.55870622 113.8934438 -66.08300781 116.48217773 C-65.46039063 116.71420898 -64.83777344 116.94624023 -64.19628906 117.18530273 C-63.29003906 119.18920898 -63.29003906 119.18920898 -62.69628906 121.74780273 C-61.79442485 125.22642184 -60.79150752 128.21700628 -59.07128906 131.37280273 C-56.82698737 135.70543148 -55.55589954 139.53683462 -56.74316406 144.44702148 C-57.79933902 147.70715338 -59.02829817 150.81572277 -60.44628906 153.93530273 C-61.45523212 156.96213191 -61.42822633 158.21415991 -60.19628906 161.18530273 C-58.19121117 163.85675667 -56.24983398 165.78033216 -53.19628906 167.18530273 C-49.12542585 166.80216267 -45.75454239 165.05545608 -42.22363281 163.08374023 C-37.89235646 161.16429214 -32.51855057 161.29917663 -28.11816406 162.97827148 C-26.82575838 163.66387694 -25.54686965 164.37552627 -24.28222656 165.11108398 C-21.11496426 166.74216476 -17.7524125 167.46621487 -14.29785156 168.27905273 C-12.19628906 169.18530273 -12.19628906 169.18530273 -11.10253906 170.79467773 C-10.80347656 171.58358398 -10.50441406 172.37249023 -10.19628906 173.18530273 C-9.69871094 174.39702148 -9.20113281 175.60874023 -8.68847656 176.85717773 C-8.14764578 178.21585019 -7.60862745 179.5752453 -7.07128906 180.93530273 C-6.79414062 181.63268555 -6.51699219 182.33006836 -6.23144531 183.04858398 C-5.55148825 184.76020005 -4.87367469 186.47266737 -4.19628906 188.18530273 C-0.23628906 188.18530273 3.72371094 188.18530273 7.80371094 188.18530273 C10.03101203 184.49873541 11.96440979 180.99029053 13.42871094 176.93530273 C14.80371094 173.18530273 14.80371094 173.18530273 16.80371094 170.18530273 C19.92089844 168.90405273 19.92089844 168.90405273 23.67871094 167.68530273 C28.59119657 166.15134658 28.59119657 166.15134658 32.96386719 163.56030273 C35.88841761 161.37465146 38.45733497 161.66645197 42.00292969 161.73999023 C46.21560141 162.40978741 49.6476084 164.24214419 53.35839844 166.28686523 C55.73724902 167.44507778 55.73724902 167.44507778 57.91699219 166.50952148 C59.76878641 165.20981498 61.46770722 163.92313253 63.11621094 162.37280273 C63.64859375 161.89198242 64.18097656 161.41116211 64.72949219 160.91577148 C66.04364359 159.18326345 66.04364359 159.18326345 65.60058594 156.79077148 C64.80648633 154.19437717 63.84604893 151.78925824 62.74121094 149.31030273 C60.80424491 144.5140059 59.45442874 140.39328999 61.56933594 135.36499023 C62.2446206 134.04121792 62.94816981 132.7315991 63.67480469 131.43530273 C64.98008442 128.83377636 65.76209552 126.21579969 66.61621094 123.43530273 C68.01215677 119.52773235 68.55157515 118.38196865 71.92871094 115.74780273 C73.20185104 115.18319277 74.49686133 114.66677364 75.80371094 114.18530273 C76.67511719 113.82952148 77.54652344 113.47374023 78.44433594 113.10717773 C80.20990716 112.39086027 81.98306011 111.69283046 83.76464844 111.01733398 C85.76240269 110.35579508 85.76240269 110.35579508 86.80371094 109.18530273 C86.87615147 107.16566075 86.88748282 105.1436315 86.86621094 103.12280273 C86.8571875 102.01807617 86.84816406 100.91334961 86.83886719 99.77514648 C86.82726562 98.92049805 86.81566406 98.06584961 86.80371094 97.18530273 C86.07925781 96.85916992 85.35480469 96.53303711 84.60839844 96.19702148 C80.44933702 94.31712572 76.30988116 92.44282794 72.24121094 90.37280273 C69.95594373 89.03931293 69.95594373 89.03931293 67.80371094 89.18530273 C67.72121094 88.40155273 67.63871094 87.61780273 67.55371094 86.81030273 C66.32423085 80.86781565 64.17387416 75.24054756 60.80371094 70.18530273 C60.00235009 62.97305507 61.71138303 58.34834731 64.90527344 51.88452148 C66.06043001 49.28299228 66.06043001 49.28299228 65.14746094 47.03295898 C63.77588911 45.14704772 62.36344659 43.54678901 60.67871094 41.93530273 C59.72996094 41.02780273 58.78121094 40.12030273 57.80371094 39.18530273 C56.38579686 39.63976237 54.96943048 40.09905218 53.55371094 40.56030273 C52.76480469 40.81553711 51.97589844 41.07077148 51.16308594 41.33374023 C48.81051038 42.12985736 48.81051038 42.12985736 46.71386719 43.23608398 C43.71623744 44.72570368 41.1377738 45.01577411 37.80371094 45.18530273 C34.67871094 44.06030273 34.67871094 44.06030273 32.97167969 43.22045898 C30.03660818 41.81902845 27.02491899 40.66923456 23.99121094 39.49780273 C22.87101562 39.06081055 21.75082031 38.62381836 20.59667969 38.17358398 C17.98324741 37.07410985 17.98324741 37.07410985 15.80371094 37.18530273 C15.5265625 36.48920898 15.24941406 35.79311523 14.96386719 35.07592773 C13.73836873 32.02249722 12.49601953 28.97680894 11.24121094 25.93530273 C10.58958984 24.34975586 10.58958984 24.34975586 9.92480469 22.73217773 C9.0366957 20.29751998 9.0366957 20.29751998 7.80371094 19.18530273 C5.78406895 19.1128622 3.7620397 19.10153085 1.74121094 19.12280273 C0.63648437 19.13182617 -0.46824219 19.14084961 -1.60644531 19.15014648 C-2.46109375 19.16174805 -3.31574219 19.17334961 -4.19628906 19.18530273 Z " fill="#f0f0f0" transform="translate(100.1962890625,58.814697265625)"/>
<path d="M0 0 C1.08655884 -0.00700928 2.17311768 -0.01401855 3.29260254 -0.02124023 C6.88803585 -0.03886056 10.48268354 -0.02718245 14.078125 -0.01367188 C16.57389477 -0.01636561 19.06966352 -0.02024703 21.56542969 -0.02526855 C26.79760775 -0.03116908 32.02958108 -0.02296334 37.26171875 -0.00390625 C43.30809512 0.01786244 49.35393196 0.01081088 55.40029526 -0.01121187 C61.22025466 -0.03156034 67.0400092 -0.02939482 72.85998535 -0.01768494 C75.33516515 -0.01501343 77.81035869 -0.01830224 80.28552246 -0.02760315 C83.74280459 -0.03774296 87.19904557 -0.02230206 90.65625 0 C91.68286743 -0.00809692 92.70948486 -0.01619385 93.76721191 -0.02453613 C100.68522231 0.05828949 100.68522231 0.05828949 103.9597168 2.39758301 C105.60469268 4.94604832 105.8952329 6.49479299 105.890625 9.51757812 C105.91253906 10.36320312 105.93445313 11.20882812 105.95703125 12.08007812 C105.01290687 15.73929311 103.56181527 16.57051174 100.328125 18.51757812 C96.8010493 19.11166107 93.31207398 19.06398209 89.7421875 19.03515625 C88.14380035 19.04567017 88.14380035 19.04567017 86.51312256 19.05639648 C82.99285783 19.07399306 79.47339782 19.06234713 75.953125 19.04882812 C73.50602057 19.05152254 71.05891717 19.05540454 68.61181641 19.0604248 C63.48394576 19.06632214 58.35635387 19.05774891 53.22851562 19.0390625 C46.65424409 19.01627332 40.08062574 19.02939507 33.50637817 19.05335236 C28.4534818 19.06780368 23.40074039 19.06320729 18.34783936 19.05284119 C15.92372561 19.05017208 13.49959782 19.05345007 11.07550049 19.0627594 C7.68797517 19.0729135 4.3015089 19.05743829 0.9140625 19.03515625 C-0.59006195 19.04730164 -0.59006195 19.04730164 -2.12457275 19.05969238 C-6.48728375 19.00650596 -8.99394136 18.92577486 -12.79418945 16.63757324 C-15.05548989 14.08445891 -15.32183624 12.89255319 -15.234375 9.51757812 C-15.23566406 8.67195313 -15.23695313 7.82632813 -15.23828125 6.95507812 C-13.40057319 -0.95340344 -6.66375096 -0.05255695 0 0 Z " fill="#184b94" transform="translate(210.671875,67.482421875)"/>
<path d="M0 0 C2.75329021 1.79562405 4.52627461 3.05254922 6 6 C6.19482771 9.44195625 6.34629569 12.16642658 5.01171875 15.37890625 C2.00471692 23.16924689 3.9989798 31.33072614 6.9296875 38.8203125 C7.92160271 41.13696569 7.92160271 41.13696569 10 43 C10 43.99 10 44.98 10 46 C11.32 46.66 12.64 47.32 14 48 C14 48.66 14 49.32 14 50 C14.639375 50.2475 15.27875 50.495 15.9375 50.75 C19.27355275 52.11165418 22.54236739 53.59398156 25.81640625 55.09765625 C31.66038131 57.51260838 37.96904624 58.01031792 44 56 C48.06975559 54.6434148 51.76526568 54.11257406 56 55 C58.62758894 56.76389073 59.352358 58.12991393 61 61 C61.56143022 64.43876009 61.20279275 66.41866078 60.0625 69.6875 C56.996353 73.12530118 53.36876383 73.87941586 49 75 C48.4121875 75.185625 47.824375 75.37125 47.21875 75.5625 C32.0333964 78.55679508 17.9306765 74.4683404 4.9140625 66.765625 C-4.06082553 60.73506783 -11.44524058 50.52616722 -14 40 C-16.13642305 28.92368026 -18.34699063 14.34400811 -12.0625 4.25 C-8.19816578 0.03436267 -5.60997885 -0.58034264 0 0 Z " fill="#f0f0f0" transform="translate(66,138)"/>
<path d="M0 0 C1.36125 0.7115625 1.36125 0.7115625 2.75 1.4375 C5.79240334 3.5502801 7.66989736 6.11803095 10 9 C10.99 9.66 11.98 10.32 13 11 C13 11.99 13 12.98 13 14 C13.66 14 14.32 14 15 14 C21.98079185 27.17130537 21.98079185 27.17130537 23 34 C23.144375 34.8559375 23.28875 35.711875 23.4375 36.59375 C24.58810623 45.51094828 24.06821098 58.18418747 19 66 C15.76047819 68.13513938 13.7737648 69.0154753 9.875 68.9375 C6.59080697 67.86656749 5.16965881 66.65180522 3 64 C1.76285105 61.5257021 2.04418638 60.28500667 2.375 57.5625 C2.51035156 56.38880859 2.51035156 56.38880859 2.6484375 55.19140625 C3 53 3 53 4 50 C5.07358105 40.19973866 3.0549854 32.03355736 -2.45703125 23.83203125 C-8.61902196 16.20677097 -16.54348203 12.96455831 -26 11 C-30.5524906 10.84619964 -34.48310059 11.36501885 -38.6875 13.125 C-42.11059114 14.42022367 -44.4978501 13.89145634 -48 13 C-51.24268686 10.35465019 -52.80645745 8.41931207 -53.375 4.25 C-52.98478531 0.86813935 -52.26700806 -1.16019048 -49.9296875 -3.67578125 C-36.16450354 -13.12192975 -12.92872882 -8.38844718 0 0 Z " fill="#f0f0f0" transform="translate(131,118)"/>
<path d="M0 0 C0.73397003 -0.0071553 1.46794006 -0.01431061 2.22415161 -0.02168274 C4.64096053 -0.03853825 7.05590603 -0.01918808 9.47265625 0.00219727 C11.15747226 0.00136827 12.84228819 -0.00109229 14.52709961 -0.00511169 C18.0544475 -0.00796752 21.58115966 0.00670975 25.10839844 0.03417969 C29.62464354 0.06826264 34.13975212 0.06224252 38.65605164 0.04351711 C42.1340071 0.03293697 45.61169914 0.04189405 49.08963013 0.05690193 C50.7545595 0.06207679 52.41951647 0.06161039 54.08444214 0.05535698 C56.41366504 0.04989225 58.74127368 0.07031726 61.0703125 0.09765625 C61.75513702 0.09113037 62.43996155 0.08460449 63.14553833 0.07788086 C67.83594494 0.17126328 70.26371878 1.28667042 73.53515625 4.63110352 C74.40982495 8.02112383 74.16896006 11.19942703 73.53515625 14.63110352 C71.65000402 17.20747823 70.34180768 18.2277778 67.53515625 19.63110352 C65.22359618 19.74389306 62.90872571 19.79051436 60.59448242 19.80810547 C59.88045761 19.81467667 59.1664328 19.82124786 58.43077087 19.82801819 C56.06322122 19.84775994 53.69573503 19.85941584 51.328125 19.86938477 C50.51979029 19.87346029 49.71145557 19.87753582 48.87862587 19.88173485 C44.59999471 19.90259961 40.32139566 19.91689939 36.04272461 19.92626953 C31.624054 19.93733321 27.20588709 19.97173105 22.78739452 20.01144123 C19.38929816 20.03759171 15.99132207 20.04595996 12.59313393 20.04955101 C10.96444612 20.05442129 9.33576385 20.06604791 7.7071743 20.084589 C5.42571537 20.10894764 3.14556293 20.10802213 0.86401367 20.10107422 C-1.0821862 20.10987358 -1.0821862 20.10987358 -3.06770325 20.11885071 C-7.02806964 19.5502379 -8.65902079 18.42516748 -11.46484375 15.63110352 C-13.04382428 12.47314245 -13.28412546 9.02439716 -12.46484375 5.63110352 C-8.71072223 0.91419266 -5.82607894 -0.09947027 0 0 Z " fill="#d11111" transform="translate(242.46484375,203.368896484375)"/>
<path d="M0 0 C0.7453299 -0.0071553 1.49065979 -0.01431061 2.25857544 -0.02168274 C4.71264669 -0.03853825 7.16488307 -0.01918976 9.61889648 0.00219727 C11.32852835 0.00136835 13.03816014 -0.00109187 14.74778748 -0.00511169 C18.32640645 -0.0079674 21.90439873 0.00671027 25.48291016 0.03417969 C30.06875019 0.0682884 34.65347174 0.06223382 39.23936558 0.04351711 C42.76789161 0.0329473 46.2961575 0.04188423 49.82465935 0.05690193 C51.51553513 0.06208264 53.20643808 0.06160328 54.89731026 0.05535698 C57.26025938 0.04990374 59.62160827 0.07027971 61.984375 0.09765625 C62.68214554 0.09113037 63.37991608 0.08460449 64.09883118 0.07788086 C67.45819936 0.14403468 69.16909382 0.43124969 71.85948181 2.51210022 C73.75511574 5.07385593 73.96605741 6.46859477 73.92749023 9.63110352 C73.94295898 10.89954102 73.94295898 10.89954102 73.95874023 12.19360352 C73.23350105 15.52117155 72.12077148 16.55376308 69.42749023 18.63110352 C66.7728372 19.03114458 64.53001306 19.1889833 61.87670898 19.16455078 C60.74430283 19.17747414 60.74430283 19.17747414 59.58901978 19.19065857 C57.09732635 19.21333362 54.60675614 19.20657786 52.11499023 19.19750977 C50.38150701 19.20274445 48.64802665 19.20902036 46.91455078 19.21629333 C43.28298532 19.22670014 39.65181163 19.22213184 36.02026367 19.20751953 C31.36591149 19.1903249 26.71279301 19.21383302 22.05857849 19.24900913 C18.47944963 19.27096622 14.9006168 19.26954594 11.32144165 19.26124382 C9.60542446 19.26042348 7.88938571 19.26730265 6.1734314 19.28201485 C3.77427236 19.29943214 1.37734075 19.28494543 -1.02172852 19.26220703 C-2.084767 19.27974533 -2.084767 19.27974533 -3.16928101 19.29763794 C-6.90582334 19.22556405 -8.30895065 18.89185175 -11.0090332 16.2205658 C-12.50683307 13.73987862 -13.14075363 12.48006018 -13.13500977 9.63110352 C-13.15692383 8.99172852 -13.17883789 8.35235352 -13.20141602 7.69360352 C-11.21296997 1.17248853 -6.09694908 -0.10246083 0 0 Z " fill="#5cfc2b" transform="translate(242.572509765625,101.368896484375)"/>
<path d="M0 0 C0.70869232 0.0116922 1.41738464 0.0233844 2.14755249 0.03543091 C2.90248993 0.0282756 3.65742737 0.0211203 4.4352417 0.01374817 C6.92720313 -0.00314134 9.41736604 0.01626316 11.90927124 0.03762817 C13.64275257 0.03679949 15.37623383 0.03434012 17.10971069 0.03031921 C20.74138055 0.02746106 24.37243373 0.04216358 28.0039978 0.0696106 C32.65824284 0.10369384 37.31138516 0.09767559 41.96568298 0.07894802 C45.54482202 0.06837744 49.12370463 0.07731629 52.70281982 0.09233284 C54.4188155 0.09751472 56.13483795 0.09703277 57.85083008 0.09078789 C60.24980205 0.08533478 62.64719767 0.10571143 65.04598999 0.13308716 C65.75468231 0.12656128 66.46337463 0.1200354 67.19354248 0.11331177 C70.57647566 0.17892845 72.32310369 0.45545336 75.03549194 2.54753113 C76.92294894 5.10923011 77.13528401 6.50848771 77.09677124 9.66653442 C77.11223999 10.93497192 77.11223999 10.93497192 77.12802124 12.22903442 C76.40361108 15.55279867 75.28336048 16.588622 72.59677124 18.66653442 C69.97624593 19.06666887 67.77265729 19.22447582 65.15365601 19.19998169 C64.03828964 19.21290504 64.03828964 19.21290504 62.90039062 19.22608948 C60.44596398 19.24876514 57.99267774 19.24200791 55.53817749 19.23294067 C53.8295101 19.23817589 52.12084561 19.244452 50.41218567 19.25172424 C46.83189288 19.26213158 43.25199744 19.25756285 39.67172241 19.24295044 C35.08696346 19.22576878 30.50345845 19.24924753 25.91883945 19.28444004 C22.39028136 19.30641831 18.86202306 19.30497149 15.33341789 19.29667473 C13.64334679 19.2958553 11.95325366 19.30271714 10.26324654 19.31744576 C7.89781157 19.33489921 5.53462612 19.32034569 3.16928101 19.29763794 C2.12566154 19.31517624 2.12566154 19.31517624 1.06095886 19.33306885 C-2.79249353 19.25793364 -4.31721406 18.73720362 -7.33720398 16.2559967 C-9.35611118 13.72558947 -10.07376936 12.8187777 -9.96572876 9.66653442 C-9.96701782 9.02715942 -9.96830688 8.38778442 -9.96963501 7.72903442 C-8.47886446 2.30057339 -5.56016797 0.10724967 0 0 Z " fill="#f0e807" transform="translate(239.40322875976563,135.33346557617188)"/>
<path d="M0 0 C0.72377838 -0.0065712 1.44755676 -0.0131424 2.19326782 -0.01991272 C4.59328308 -0.03965535 6.99323573 -0.05131054 9.39331055 -0.0612793 C10.21267782 -0.06535482 11.0320451 -0.06943035 11.87624168 -0.07362938 C16.21322758 -0.09449448 20.55018179 -0.10879414 24.88720703 -0.11816406 C29.36640872 -0.12922808 33.84511355 -0.16362626 38.3241396 -0.20333576 C41.76855898 -0.22948465 45.2128597 -0.23785435 48.65736961 -0.24144554 C50.30838564 -0.24631619 51.95939621 -0.25794386 53.61031532 -0.27648354 C55.92290191 -0.30083878 58.23419936 -0.29991722 60.546875 -0.29296875 C62.51972221 -0.30176811 62.51972221 -0.30176811 64.53242493 -0.31074524 C68.52140205 0.25564582 70.17588654 1.32153075 72.9675293 4.17700195 C73.59643555 6.61450195 73.59643555 6.61450195 73.5300293 9.17700195 C73.53131836 10.02262695 73.53260742 10.86825195 73.53393555 11.73950195 C72.76496555 15.04872454 71.65561987 16.10288958 68.9675293 18.17700195 C66.31198152 18.57194563 64.07004345 18.72489441 61.41674805 18.69458008 C60.28434189 18.70509399 60.28434189 18.70509399 59.12905884 18.71582031 C56.63733982 18.73340393 54.14675956 18.72177706 51.6550293 18.70825195 C49.92154726 18.71094678 48.1880667 18.71482913 46.45458984 18.71984863 C42.82301429 18.72574415 39.19183249 18.71717921 35.56030273 18.69848633 C30.90608885 18.67569649 26.25279759 18.68881932 21.59861755 18.71277618 C18.01950127 18.72723286 14.4406036 18.72262883 10.86148071 18.71226501 C9.14547618 18.70959736 7.42945178 18.71286889 5.71347046 18.72218323 C3.31454933 18.73234703 0.91712055 18.71685202 -1.48168945 18.69458008 C-2.19038177 18.702677 -2.8990741 18.71077393 -3.62924194 18.71911621 C-7.02344168 18.66075813 -8.75580015 18.39183779 -11.47119141 16.2833252 C-13.7519559 13.20634385 -13.58969643 11.01520355 -13.4309082 7.30200195 C-12.85782196 4.24554197 -11.53123206 2.9408335 -9.0324707 1.17700195 C-6.04951147 -0.31447767 -3.32780362 0.02495313 0 0 Z " fill="#d209e0" transform="translate(243.032470703125,169.822998046875)"/>
<path d="M0 0 C2.15602322 1.59705424 2.83736429 2.69959286 3.6875 5.25 C4.02572599 10.05418955 3.09082028 13.52570759 1.375 18 C-0.14141557 22.0607655 -1.61885384 26.08258799 -2.8125 30.25 C-4.34323631 35.53799817 -6.24172829 40.67909994 -8.12109375 45.8515625 C-9.1408559 48.76039224 -10.04008717 51.65946263 -10.875 54.625 C-12.19787448 59.17238104 -13.98540441 63.12128202 -16.3125 67.25 C-20.0443694 69.1159347 -24.25902582 68.93647547 -28.3125 68.25 C-31.2167995 65.3457005 -32.20515643 63.54903914 -32.54296875 59.4609375 C-32.27835854 55.77433422 -31.32222969 52.94793818 -30 49.5 C-28.48358443 45.4392345 -27.00614616 41.41741201 -25.8125 37.25 C-24.28176369 31.96200183 -22.38327171 26.82090006 -20.50390625 21.6484375 C-19.4841441 18.73960776 -18.58491283 15.84053737 -17.75 12.875 C-16.41654253 8.31713691 -14.70494639 4.36201724 -12.3125 0.25 C-8.1357041 -1.1422653 -4.2269766 -1.37091133 0 0 Z " fill="#42A4F5" transform="translate(270.3125,247.75)"/>
<path d="M0 0 C2.47735169 2.32991157 4.83983465 4.73435737 7.18334961 7.19873047 C8.0102832 8.03597656 8.8372168 8.87322266 9.68920898 9.73583984 C15.74584961 15.95252382 15.74584961 15.95252382 15.74584961 18.26123047 C16.40584961 18.26123047 17.06584961 18.26123047 17.74584961 18.26123047 C18.49863419 23.2450414 18.87880885 27.48492417 16.09057617 31.85644531 C13.79122038 34.36847882 11.39926922 36.66778137 8.87084961 38.94873047 C8.0290918 39.75761719 7.18733398 40.56650391 6.32006836 41.39990234 C0.12677998 47.26123047 0.12677998 47.26123047 -2.25415039 47.26123047 C-2.25415039 47.92123047 -2.25415039 48.58123047 -2.25415039 49.26123047 C-5.47817485 50.8732427 -8.76807906 50.85559895 -12.25415039 50.26123047 C-15.31465259 47.98213309 -16.8525748 46.33209872 -18.19165039 42.76123047 C-18.30547167 38.20837938 -16.67015378 35.72408109 -13.65258789 32.36669922 C-12.65237619 31.38622853 -11.64434428 30.41367999 -10.62915039 29.44873047 C-9.85571289 28.6955957 -9.85571289 28.6955957 -9.06665039 27.92724609 C-7.80255885 26.6982682 -6.52926233 25.47877046 -5.25415039 24.26123047 C-8.21750005 20.70941421 -11.17605319 17.28874699 -14.56665039 14.13623047 C-17.26271626 11.25206698 -18.25415039 10.14896068 -18.25415039 6.26123047 C-17.28821317 3.14051022 -16.07751108 0.9962715 -14.25415039 -1.73876953 C-9.08870409 -3.50977969 -4.33331753 -3.34256335 0 0 Z " fill="#40A5F5" transform="translate(298.254150390625,257.73876953125)"/>
<path d="M0 0 C1.52165579 2.28248368 1.92934839 3.94837753 2.125 6.6875 C0.82195747 11.39604018 -2.05168091 14.22234644 -5.5 17.5 C-6.2734375 18.25313477 -6.2734375 18.25313477 -7.0625 19.02148438 C-8.32659154 20.25046227 -9.59988806 21.46996001 -10.875 22.6875 C-7.91165034 26.23931625 -4.9530972 29.65998347 -1.5625 32.8125 C1.13356587 35.69666349 2.125 36.79976979 2.125 40.6875 C1.06226475 44.64860413 -0.517086 47.30161373 -3.875 49.6875 C-7.3475169 50.18357384 -10.67540587 50.28729706 -13.875 48.6875 C-13.875 48.0275 -13.875 47.3675 -13.875 46.6875 C-14.45475586 46.42573975 -15.03451172 46.16397949 -15.63183594 45.89428711 C-19.69733186 43.70711402 -22.8064121 40.41907555 -26.125 37.25 C-26.87007812 36.58806641 -27.61515625 35.92613281 -28.3828125 35.24414062 C-31.53942587 32.20604479 -33.64412609 30.11784329 -34.35742188 25.69873047 C-34.35916338 22.98242108 -34.22342915 20.37970841 -33.875 17.6875 C-33.215 17.6875 -32.555 17.6875 -31.875 17.6875 C-31.61074219 17.0987207 -31.34648437 16.50994141 -31.07421875 15.90332031 C-29.83131056 13.60677416 -28.52493519 12.07916834 -26.6875 10.234375 C-26.07132813 9.615625 -25.45515625 8.996875 -24.8203125 8.359375 C-24.17835938 7.72515625 -23.53640625 7.0909375 -22.875 6.4375 C-22.23304688 5.7878125 -21.59109375 5.138125 -20.9296875 4.46875 C-20.31351563 3.85515625 -19.69734375 3.2415625 -19.0625 2.609375 C-18.21751953 1.76777832 -18.21751953 1.76777832 -17.35546875 0.90917969 C-15.875 -0.3125 -15.875 -0.3125 -13.875 -0.3125 C-13.875 -0.9725 -13.875 -1.6325 -13.875 -2.3125 C-8.83827029 -3.83878173 -4.33965002 -3.03775501 0 0 Z " fill="#41A5F5" transform="translate(229.875,258.3125)"/>
</svg>